<?xml version="1.0" encoding="utf-8"?>
<!-- Generator: Adobe Illustrator 17.0.0, SVG Export Plug-In . SVG Version: 6.00 Build 0)  -->
<!DOCTYPE svg PUBLIC "-//W3C//DTD SVG 1.1//EN" "http://www.w3.org/Graphics/SVG/1.1/DTD/svg11.dtd">
<svg version="1.1" id="Layer_1" xmlns="http://www.w3.org/2000/svg" xmlns:xlink="http://www.w3.org/1999/xlink" x="0px" y="0px"
	 width="402px" height="58px" viewBox="0 0 402 58" enable-background="new 0 0 402 58" xml:space="preserve">
<g>
	<g>
		<path fill="#90492D" d="M89.716,14.196v3.037h-2.458v3.345h2.343v10.118h-2.228v3.818h2.115v2.425
			c0.97-0.372,1.819-0.763,2.568-1.171c0.274-0.169,0.538-0.334,0.779-0.502h-2.427V19.241h3.484l0.56-1.812h-4.044v-3.093h12.821
			v3.093h-5.432l-0.56,1.812h5.518v16.026h-2.226c0.332,0.184,0.66,0.361,0.974,0.528c0.779,0.335,1.538,0.605,2.286,0.808
			l-1.675,3.039c-0.815-0.334-1.608-0.734-2.366-1.197c-0.892-0.56-1.738-1.171-2.539-1.842l1.256-1.336h-3.509l1.253,1.45
			c-0.727,0.668-1.508,1.243-2.343,1.729c-0.744,0.408-1.68,0.808-2.813,1.197l-1.562-2.509v0.499h-8.556v1.535h-2.924V14.196
			H89.716z M80.935,34.514h3.457v-3.818h-2.675V20.578h2.563v-3.345h-3.344L80.935,34.514L80.935,34.514z M84.612,27.824h2.122
			v-4.376h-2.122V27.824z M93.646,23.448h5.907v-1.225h-5.907V23.448z M93.646,27.824h5.907v-1.336h-5.907V27.824z M93.646,32.283
			h5.907v-1.476h-5.907V32.283z"/>
		<path fill="#90492D" d="M114.774,15.561h10.594v-1.699h3.094v1.699h10.62v2.983h-10.62v1.031h9.059V31.28h-6.415
			c0.854,0.634,1.785,1.209,2.784,1.728c1.675,0.91,3.664,1.665,5.965,2.259l-1.918,3.595c-2.325-0.891-4.479-2.08-6.467-3.567
			c-1.076-0.763-2.08-1.607-3.009-2.538v6.776h-3.094v-6.692c-0.91,0.912-1.877,1.729-2.898,2.454
			c-2.643,1.692-4.905,2.88-6.803,3.567l-1.7-3.011c1.933-0.593,3.959-1.487,6.076-2.675c1.135-0.614,2.109-1.243,2.929-1.896
			h-6.746V19.575h9.143v-1.031h-10.594V15.561z M119.345,23.923h6.023v-1.338h-6.023V23.923z M119.345,28.242h6.023v-1.338h-6.023
			V28.242z M128.462,22.585v1.338h5.907v-1.338H128.462z M128.462,26.905v1.338h5.907v-1.338H128.462z"/>
	</g>
	<g>
		<path fill="#90492D" d="M150.551,27.428h6.236v-3.739h2.109v3.739h6.341v1.971h-5.8c0.511,1.745,1.237,3.253,2.178,4.519
			c1.062,1.463,2.473,2.59,4.231,3.384l-1.106,2.107c-1.838-0.861-3.411-2.186-4.723-3.977c-0.725-0.951-1.356-2.046-1.889-3.279
			c-0.385,0.941-0.888,1.836-1.511,2.684c-1.416,1.858-3.189,3.384-5.322,4.572l-1.167-1.851c2.308-1.326,4.018-2.823,5.128-4.489
			c0.761-1.19,1.236-2.411,1.428-3.669h-6.132L150.551,27.428L150.551,27.428z"/>
		<path fill="#90492D" d="M178.71,27.784c0.907,0.478,1.727,1.037,2.466,1.684l-1.496,1.852c-0.78-0.806-1.605-1.486-2.463-2.04
			L178.71,27.784z M179.88,31.999l1.889,0.594c-0.739,2.686-1.569,4.933-2.5,6.746l-1.986-1.036
			C178.425,36.187,179.295,34.084,179.88,31.999z M178.929,23.621c0.819,0.43,1.569,0.928,2.247,1.495l-1.428,1.785
			c-0.727-0.703-1.472-1.296-2.243-1.785L178.929,23.621z M181.565,23.978h11.301v1.818h-3.281v1.494h2.875v12.119h-1.903v-0.613
			h-6.61v0.613h-1.889V27.29h2.927v-1.494h-3.419L181.565,23.978L181.565,23.978z M183.946,34.107h6.61v-1.225
			c-0.376,0-0.839-0.017-1.396-0.05c-0.927-0.045-1.396-0.729-1.396-2.058v-1.631h-0.967v0.458c0,0.841-0.182,1.604-0.541,2.295
			c-0.329,0.624-0.756,1.133-1.273,1.531l-1.038-0.799L183.946,34.107L183.946,34.107z M183.946,31.761
			c0.279-0.238,0.5-0.504,0.66-0.799c0.25-0.43,0.378-0.884,0.378-1.36v-0.458h-1.038L183.946,31.761L183.946,31.761z
			 M183.946,36.946h6.61v-1.003h-6.61V36.946z M187.765,27.29v-1.494h-0.967v1.494H187.765z M189.585,29.143v1.207
			c0,0.418,0.105,0.645,0.308,0.68c0.124,0.046,0.344,0.067,0.664,0.067v-1.954H189.585z"/>
		<path fill="#90492D" d="M204.441,26.476h1.719v-2.788h1.884v2.788h1.362v1.852h-1.362v0.9c0.757,0.681,1.418,1.354,1.967,2.024
			l-1.222,1.766c-0.233-0.43-0.488-0.839-0.745-1.223v7.614h-1.884v-6.135c-0.274,0.759-0.57,1.461-0.888,2.107l-1.152-1.429
			c0.398-0.701,0.815-1.688,1.256-2.956c0.293-0.828,0.555-1.711,0.785-2.651v-0.017h-1.719v-1.852H204.441z M210.217,24.248h3.535
			v-0.56h1.853v0.56h3.673v1.973h0.745v1.36h-0.745v1.955h-3.673v0.424h3.807v3.314h-4.827c-0.089,0.215-0.191,0.42-0.286,0.611
			h5.724v1.563h-2.124c-0.235,0.477-0.504,0.894-0.798,1.257c0.87,0.307,1.748,0.641,2.635,1.003l-0.936,1.7
			c-1.088-0.541-2.141-1.019-3.159-1.427c-1.236,0.713-3.128,1.189-5.678,1.427l-0.494-1.632c1.564-0.068,2.861-0.271,3.887-0.611
			c-0.31-0.091-0.619-0.18-0.914-0.272c-0.099,0.146-0.199,0.282-0.305,0.408l-1.7-0.885c0.254-0.317,0.488-0.639,0.711-0.968
			h-1.867v-1.563h2.856c0.114-0.192,0.225-0.397,0.34-0.611h-2.262V29.96h3.535v-0.424h-3.535V27.58h-0.592v-1.36h0.592v-1.972
			H210.217z M212.072,31.931h1.68V31.32h-1.68V31.931z M212.138,26.221h1.613v-0.544h-1.613V26.221z M212.138,28.106h1.613V27.58
			h-1.613V28.106z M215.28,36.145c0.25-0.202,0.47-0.435,0.648-0.697h-2.483c-0.044,0.08-0.089,0.148-0.116,0.203
			C213.973,35.79,214.627,35.952,215.28,36.145z M215.605,25.677v0.544h1.75v-0.544H215.605z M215.605,27.58v0.526h1.75V27.58
			H215.605z M215.605,31.32v0.611h1.954V31.32H215.605z"/>
	</g>
</g>
<g>
	<path fill="#90492D" d="M250.923,33.846c0.185-0.12,0.344-0.196,0.489-0.224c0.14-0.032,0.237-0.016,0.29,0.046
		c0.041,0.059,0.041,0.144,0,0.257c-0.052,0.11-0.181,0.237-0.382,0.379c-0.183,0.139-0.556,0.438-1.124,0.895
		c-0.563,0.453-1.255,0.983-2.072,1.588c-0.826,0.606-1.717,1.246-2.685,1.911c-0.968,0.666-1.956,1.284-2.958,1.847
		c-1.002,0.569-1.97,1.034-2.913,1.397c-0.936,0.366-1.782,0.547-2.524,0.547c-1.074,0-1.889-0.338-2.429-1.017
		c-0.547-0.679-0.85-1.577-0.909-2.699c-0.059-1.12,0.084-2.395,0.443-3.818c0.351-1.426,0.887-2.881,1.606-4.367
		c0.712-1.486,1.588-2.939,2.619-4.366c1.031-1.424,2.183-2.698,3.458-3.82c1.273-1.12,2.651-2.021,4.119-2.699
		c1.475-0.676,3.028-1.014,4.641-1.014c1.131,0,1.95,0.308,2.454,0.923c0.509,0.618,0.742,1.376,0.717,2.274
		c-0.032,0.901-0.301,1.861-0.807,2.884c-0.509,1.018-1.19,1.949-2.045,2.787c-0.862,0.84-1.875,1.497-3.047,1.972
		c-1.176,0.474-2.436,0.612-3.793,0.409c-0.543-0.082-0.794-0.266-0.753-0.562c0.036-0.292,0.231-0.598,0.574-0.91
		c0.346-0.313,0.767-0.583,1.273-0.817c0.507-0.234,0.95-0.342,1.332-0.322c1.19,0.083,2.171-0.02,2.929-0.299
		c0.755-0.286,1.328-0.662,1.71-1.125c0.384-0.465,0.595-0.986,0.633-1.562c0.045-0.575-0.057-1.114-0.299-1.62
		c-0.244-0.507-0.62-0.925-1.124-1.26c-0.507-0.332-1.097-0.498-1.785-0.498c-1.339,0-2.597,0.271-3.779,0.817
		c-1.183,0.547-2.262,1.27-3.241,2.168c-0.979,0.899-1.848,1.925-2.603,3.079c-0.76,1.148-1.384,2.323-1.852,3.514
		c-0.475,1.192-0.798,2.368-0.97,3.516c-0.174,1.152-0.161,2.179,0.027,3.078c0.197,0.9,0.581,1.624,1.174,2.166
		c0.584,0.548,1.389,0.819,2.42,0.819c0.527,0,1.144-0.136,1.848-0.406c0.71-0.275,1.445-0.621,2.214-1.034
		c0.767-0.412,1.531-0.87,2.293-1.363c0.755-0.495,1.459-0.974,2.108-1.441c0.64-0.464,1.21-0.884,1.69-1.256
		C250.378,34.247,250.728,33.99,250.923,33.846z"/>
	<path fill="#90492D" d="M260.626,20.751c0.785,0,1.178,0.352,1.169,1.06c-0.014,0.708-0.355,1.627-1.031,2.759
		c-0.676,1.133-1.656,2.405-2.924,3.819c-1.28,1.418-2.782,2.831-4.523,4.244c-0.26,0.468-0.504,0.896-0.726,1.292
		c-0.222,0.394-0.403,0.741-0.543,1.045c-0.147,0.301-0.242,0.539-0.29,0.713c-0.05,0.171-0.036,0.258,0.047,0.258
		c0.195,0,0.556-0.18,1.063-0.53c0.502-0.355,1.086-0.74,1.739-1.155c0.658-0.416,1.359-0.798,2.108-1.151
		c0.746-0.354,1.457-0.528,2.122-0.528c0.283,0,0.464,0.093,0.529,0.285c0.075,0.192,0.111,0.441,0.111,0.744
		c0,0.302-0.014,0.621-0.036,0.956c-0.016,0.335,0.009,0.649,0.093,0.952c0.079,0.305,0.251,0.552,0.504,0.746
		c0.247,0.191,0.638,0.288,1.163,0.288c0.647,0,1.289-0.092,1.925-0.273c0.638-0.183,1.239-0.409,1.807-0.683
		s1.079-0.556,1.543-0.849c0.466-0.293,0.866-0.56,1.183-0.802c0.484-0.386,0.785-0.519,0.896-0.395
		c0.113,0.123-0.005,0.353-0.344,0.697c-0.269,0.264-0.712,0.61-1.341,1.047c-0.62,0.433-1.357,0.867-2.194,1.286
		c-0.844,0.427-1.724,0.79-2.653,1.092c-0.932,0.305-1.834,0.456-2.703,0.456c-1.007,0-1.744-0.186-2.212-0.564
		c-0.461-0.372-0.778-0.788-0.939-1.258c-0.201-0.523-0.242-1.14-0.115-1.847c-0.371,0.08-0.862,0.327-1.472,0.745
		c-0.622,0.412-1.273,0.852-1.961,1.319c-0.683,0.462-1.352,0.882-1.997,1.256c-0.645,0.373-1.169,0.562-1.574,0.562
		c-0.244,0-0.319-0.249-0.217-0.744s0.299-1.132,0.608-1.909c0.303-0.778,0.692-1.632,1.165-2.563c0.475-0.928,0.979-1.83,1.5-2.701
		c0.69-1.169,1.416-2.332,2.169-3.485c0.76-1.152,1.515-2.187,2.264-3.108c0.744-0.918,1.466-1.664,2.165-2.227
		C259.398,21.033,260.038,20.751,260.626,20.751z M260.775,22.143c-0.099-0.038-0.31,0.103-0.635,0.426
		c-0.321,0.322-0.699,0.759-1.12,1.302c-0.428,0.549-0.88,1.165-1.366,1.852c-0.484,0.687-0.948,1.376-1.391,2.061
		c-0.448,0.686-0.857,1.328-1.23,1.924c-0.375,0.596-0.663,1.077-0.866,1.441c0.626-0.567,1.248-1.166,1.868-1.804
		c0.618-0.637,1.194-1.28,1.737-1.924c0.554-0.647,1.043-1.271,1.491-1.865c0.445-0.596,0.807-1.133,1.092-1.608
		c0.278-0.478,0.459-0.874,0.541-1.199C260.979,22.424,260.936,22.227,260.775,22.143z"/>
	<path fill="#90492D" d="M274.907,31.514c0.326,0.405,0.301,0.837-0.063,1.304c-0.36,0.465-0.893,0.925-1.588,1.378
		c-0.699,0.456-1.493,0.872-2.368,1.245c-0.878,0.375-1.66,0.671-2.35,0.893c0.181,0.446,0.5,0.803,0.957,1.074
		c0.452,0.275,1.027,0.372,1.712,0.29c0.631-0.061,1.294-0.236,2.018-0.531c0.712-0.29,1.423-0.626,2.122-1
		c0.694-0.372,1.35-0.763,1.968-1.168c0.618-0.402,1.151-0.758,1.595-1.06c0.484-0.344,0.796-0.474,0.934-0.379
		c0.147,0.089,0.014,0.319-0.391,0.681c-1.273,1.133-2.59,2.082-3.956,2.851c-1.364,0.769-2.662,1.312-3.895,1.636
		c-1.233,0.325-2.332,0.42-3.305,0.29c-0.968-0.131-1.71-0.534-2.216-1.199c-0.387-0.505-0.484-1.078-0.319-1.713
		c0.174-0.634,0.52-1.276,1.049-1.911c0.532-0.635,1.169-1.223,1.925-1.757c0.76-0.537,1.529-0.95,2.321-1.244
		c0.789-0.292,1.527-0.434,2.21-0.424C273.955,30.783,274.502,31.028,274.907,31.514z M270.451,32.578
		c-0.769,0.444-1.312,0.943-1.629,1.498c-0.312,0.555-0.45,1.094-0.405,1.621c0.665-0.24,1.558-0.624,2.669-1.152
		c0.443-0.2,0.801-0.5,1.072-0.894c0.274-0.392,0.403-0.74,0.382-1.033c-0.018-0.29-0.195-0.47-0.518-0.543
		C271.7,32.004,271.177,32.173,270.451,32.578z"/>
	<path fill="#90492D" d="M285.3,33.94c0.267-0.204,0.48-0.334,0.642-0.395c0.161-0.062,0.269-0.062,0.317,0
		c0.052,0.061,0.023,0.17-0.095,0.335c-0.104,0.161-0.303,0.362-0.588,0.604c-1.031,0.891-2.06,1.602-3.092,2.139
		c-1.031,0.538-2.235,0.943-3.608,1.226c-0.346,0.731-0.688,1.459-1.029,2.198c-0.344,0.738-0.669,1.436-0.973,2.095
		c-0.303,0.654-0.57,1.251-0.819,1.785c-0.242,0.537-0.432,0.99-0.577,1.352c-0.138,0.322-0.36,0.635-0.651,0.941
		c-0.289,0.302-0.622,0.572-0.986,0.817c-0.362,0.242-0.726,0.448-1.095,0.624c-0.357,0.17-0.683,0.285-0.984,0.346
		c-0.287,0.059-0.509,0.055-0.663-0.014c-0.149-0.069-0.19-0.219-0.106-0.441c0.038-0.144,0.251-0.586,0.633-1.332
		c0.389-0.749,0.866-1.662,1.443-2.729c0.574-1.072,1.21-2.251,1.911-3.532c0.697-1.287,1.382-2.533,2.06-3.746
		c0.676-1.212,1.307-2.333,1.879-3.364c0.577-1.033,1.034-1.841,1.377-2.429c0.712-1.169,1.448-2.332,2.198-3.485
		c0.758-1.152,1.513-2.187,2.26-3.108c0.749-0.918,1.472-1.664,2.162-2.227c0.703-0.567,1.343-0.849,1.934-0.849
		c0.805,0,1.201,0.363,1.178,1.09c-0.018,0.728-0.387,1.667-1.086,2.818c-0.715,1.152-1.724,2.455-3.035,3.897
		c-1.312,1.446-2.859,2.875-4.641,4.292c-0.276,0.547-0.59,1.166-0.923,1.865c-0.33,0.698-0.669,1.419-1.013,2.169
		c0.642-0.144,1.497-0.427,2.56-0.852C282.952,35.608,284.092,34.908,285.3,33.94z M282.117,31.211l-0.181,0.303
		c0.651-0.567,1.298-1.184,1.961-1.85c0.649-0.669,1.273-1.338,1.866-2.015c0.579-0.681,1.12-1.338,1.601-1.989
		c0.486-0.645,0.882-1.22,1.181-1.727c0.308-0.503,0.502-0.918,0.597-1.243c0.084-0.321,0.045-0.504-0.143-0.547
		c-0.26-0.038-0.579,0.103-0.952,0.426c-0.371,0.322-0.783,0.767-1.226,1.335c-0.448,0.565-0.909,1.197-1.382,1.895
		s-0.925,1.389-1.348,2.075c-0.423,0.689-0.81,1.331-1.154,1.925C282.595,30.397,282.323,30.865,282.117,31.211z"/>
	<path fill="#90492D" d="M292.908,20.841c-0.237,0-0.337-0.135-0.301-0.408c0.038-0.274,0.174-0.576,0.393-0.91
		c0.224-0.334,0.498-0.636,0.823-0.91c0.326-0.271,0.642-0.411,0.963-0.411c0.332,0,1.002,0,2.022,0s2.221,0.009,3.61,0.016
		c1.382,0.012,2.852,0.021,4.408,0.033c1.556,0.009,3.04,0.019,4.442,0.029c1.404,0.011,2.637,0.018,3.714,0.018
		c1.07,0,1.798,0,2.183,0c0.423,0,0.744,0.089,0.95,0.269c0.219,0.182,0.312,0.38,0.287,0.594c-0.011,0.211-0.147,0.408-0.407,0.59
		c-0.246,0.185-0.606,0.272-1.074,0.272c-0.161,0-0.459,0.003-0.896,0.014c-0.432,0.012-0.966,0.033-1.604,0.061
		c-0.633,0.033-1.357,0.061-2.153,0.092c-0.798,0.031-1.631,0.066-2.499,0.106c0.161,0.121,0.179,0.315,0.059,0.577
		c-0.077,0.181-0.335,0.619-0.76,1.306c-0.423,0.685-0.945,1.522-1.556,2.516c-0.622,0.988-1.316,2.091-2.097,3.303
		c-0.778,1.213-1.57,2.447-2.379,3.696c-0.807,1.255-1.601,2.489-2.382,3.699c-0.778,1.215-1.486,2.311-2.117,3.29
		c-0.638,0.983-1.167,1.807-1.576,2.472c-0.421,0.669-0.676,1.083-0.776,1.244c-0.181,0.32-0.371,0.518-0.561,0.59
		c-0.195,0.069-0.364,0.058-0.513-0.044c-0.156-0.103-0.269-0.267-0.33-0.501c-0.07-0.235-0.079-0.48-0.02-0.742
		c0.045-0.142,0.204-0.502,0.5-1.076c0.294-0.578,0.672-1.294,1.138-2.152c0.464-0.861,0.993-1.82,1.576-2.882
		c0.584-1.061,1.192-2.154,1.818-3.274c0.624-1.122,1.255-2.241,1.882-3.351c0.624-1.112,1.201-2.133,1.728-3.062
		c0.523-0.929,0.973-1.738,1.341-2.425c0.382-0.688,0.647-1.182,0.807-1.485c0.183-0.366,0.495-0.689,0.927-0.969
		c0.434-0.286,0.882-0.508,1.35-0.667c-1.393,0.058-2.795,0.119-4.198,0.181c-1.407,0.061-2.705,0.111-3.899,0.148
		c-1.19,0.045-2.219,0.08-3.076,0.109C293.802,20.827,293.214,20.841,292.908,20.841z"/>
	<path fill="#90492D" d="M310.527,31.968c0.242,0.144,0.337,0.35,0.29,0.621c-0.052,0.274-0.179,0.537-0.396,0.791
		c-0.213,0.254-0.464,0.448-0.76,0.59c-0.292,0.142-0.559,0.133-0.801-0.029c-0.142-0.081-0.285-0.167-0.425-0.258
		c-0.14-0.093-0.287-0.153-0.436-0.182c-0.154-0.035-0.319-0.017-0.489,0.045c-0.176,0.061-0.36,0.192-0.561,0.395
		c-0.158,0.162-0.314,0.433-0.452,0.817c-0.145,0.384-0.208,0.772-0.201,1.168c0.011,0.393,0.156,0.748,0.427,1.057
		c0.271,0.316,0.762,0.473,1.463,0.473c0.308,0,0.595-0.066,0.868-0.199c0.274-0.131,0.525-0.297,0.742-0.497
		c0.226-0.203,0.421-0.426,0.595-0.668c0.17-0.242,0.287-0.474,0.348-0.699c-0.1-0.563-0.093-0.983,0.029-1.255
		c0.122-0.275,0.292-0.447,0.516-0.516c0.224-0.073,0.477-0.061,0.769,0.028c0.294,0.093,0.563,0.209,0.807,0.349
		c0.525,0.305,0.977,0.509,1.362,0.624c0.387,0.11,0.735,0.151,1.047,0.12c0.317-0.029,0.606-0.12,0.896-0.274
		c0.283-0.149,0.575-0.335,0.88-0.56c0.522-0.384,0.844-0.486,0.957-0.302c0.113,0.179-0.075,0.453-0.534,0.816
		c-0.966,0.748-1.918,1.189-2.85,1.322c-0.927,0.131-1.984,0.084-3.153-0.136c-0.124,0.342-0.364,0.745-0.726,1.212
		c-0.366,0.463-0.812,0.894-1.35,1.287c-0.536,0.391-1.135,0.708-1.787,0.941c-0.656,0.231-1.323,0.268-1.99,0.105
		c-0.703-0.142-1.156-0.43-1.359-0.864c-0.201-0.433-0.253-0.909-0.151-1.424c0.097-0.516,0.299-1.037,0.604-1.561
		c0.305-0.526,0.606-0.959,0.907-1.305c0.285-0.361,0.645-0.699,1.081-1.015c0.434-0.313,0.878-0.576,1.348-0.788
		c0.466-0.213,0.916-0.348,1.364-0.408C309.854,31.727,310.224,31.788,310.527,31.968z"/>
	<path fill="#90492D" d="M316.404,33.94c0.242-0.182,0.577-0.428,0.986-0.745c0.418-0.313,0.855-0.617,1.31-0.924
		c0.452-0.303,0.898-0.561,1.33-0.772c0.439-0.213,0.796-0.32,1.079-0.32c0.26,0,0.371,0.116,0.33,0.35
		c-0.034,0.235-0.161,0.525-0.362,0.879c-0.199,0.354-0.45,0.737-0.742,1.153c-0.296,0.412-0.561,0.799-0.805,1.152
		c-0.242,0.355-0.425,0.647-0.559,0.878c-0.131,0.231-0.127,0.35,0.016,0.35c0.201,0,0.556-0.18,1.058-0.53
		c0.509-0.355,1.092-0.74,1.742-1.155c0.661-0.416,1.364-0.798,2.113-1.151c0.742-0.354,1.454-0.528,2.119-0.528
		c0.285,0,0.459,0.093,0.532,0.285c0.072,0.192,0.106,0.441,0.106,0.744c0,0.302-0.011,0.621-0.032,0.956
		c-0.02,0.335,0.014,0.649,0.09,0.952c0.084,0.305,0.247,0.552,0.504,0.746c0.249,0.191,0.638,0.288,1.163,0.288
		c0.647,0,1.303-0.102,1.959-0.302c0.656-0.202,1.271-0.441,1.852-0.715c0.572-0.27,1.097-0.559,1.572-0.863
		c0.473-0.303,0.864-0.554,1.169-0.758s0.529-0.318,0.685-0.347c0.147-0.032,0.235-0.012,0.269,0.061
		c0.027,0.069,0.005,0.18-0.077,0.33c-0.079,0.155-0.224,0.3-0.428,0.442c-0.201,0.161-0.613,0.444-1.237,0.846
		c-0.626,0.405-1.364,0.819-2.203,1.243c-0.835,0.426-1.733,0.804-2.696,1.138c-0.959,0.335-1.875,0.502-2.741,0.502
		c-0.509,0-0.939-0.049-1.289-0.151c-0.36-0.103-0.656-0.238-0.896-0.413c-0.247-0.17-0.443-0.365-0.59-0.588
		c-0.154-0.223-0.269-0.443-0.351-0.67c-0.201-0.523-0.251-1.14-0.152-1.847c-0.364,0.08-0.855,0.327-1.468,0.745
		c-0.617,0.412-1.271,0.852-1.959,1.319c-0.685,0.462-1.353,0.882-1.999,1.256c-0.649,0.373-1.174,0.562-1.576,0.562
		c-0.26,0-0.387-0.111-0.378-0.336c0.011-0.22,0.095-0.504,0.26-0.85c0.158-0.343,0.369-0.711,0.631-1.104
		c0.267-0.393,0.513-0.762,0.746-1.107c0.231-0.342,0.412-0.627,0.547-0.848c0.131-0.223,0.165-0.334,0.102-0.334
		c-0.222,0-0.434,0.054-0.62,0.167c-0.192,0.11-0.459,0.297-0.801,0.559c-0.244,0.181-0.455,0.297-0.629,0.347
		c-0.17,0.051-0.28,0.051-0.332,0c-0.048-0.05-0.023-0.152,0.079-0.301C315.933,34.377,316.125,34.182,316.404,33.94z"/>
	<path fill="#90492D" d="M327.957,55.374c0.527-0.748,1.135-1.694,1.823-2.835c0.685-1.141,1.409-2.373,2.164-3.697
		c0.758-1.326,1.518-2.697,2.273-4.109c0.762-1.416,1.475-2.758,2.153-4.031c0.681-1.274,1.291-2.431,1.837-3.474
		c0.543-1.04,0.968-1.865,1.271-2.47c-0.4,0.384-0.878,0.826-1.423,1.319c-0.55,0.494-1.108,0.959-1.685,1.393
		c-0.572,0.437-1.129,0.805-1.665,1.111c-0.536,0.299-0.988,0.452-1.35,0.452c-0.423,0-0.649-0.263-0.663-0.787
		c-0.025-0.525,0.1-1.16,0.373-1.895c0.276-0.738,0.658-1.498,1.151-2.274c0.5-0.776,1.047-1.421,1.653-1.926
		c0.305-0.261,0.647-0.44,1.029-0.546c0.385-0.101,0.731-0.151,1.036-0.151c0.305,0,0.531,0.037,0.699,0.107
		c0.156,0.07,0.176,0.15,0.061,0.229c-0.183,0.1-0.421,0.306-0.701,0.62c-0.283,0.312-0.579,0.671-0.896,1.075
		c-0.312,0.406-0.615,0.825-0.907,1.259c-0.296,0.434-0.543,0.834-0.746,1.199c-0.199,0.36-0.335,0.66-0.391,0.893
		c-0.063,0.23-0.009,0.349,0.147,0.349c0.208,0,0.484-0.126,0.835-0.379c0.357-0.254,0.751-0.572,1.185-0.956
		c0.436-0.384,0.889-0.799,1.364-1.242c0.473-0.445,0.932-0.864,1.364-1.259s0.83-0.723,1.183-0.984
		c0.355-0.263,0.631-0.407,0.835-0.425c0.023,0,0.027-0.007,0.027-0.014c0-0.012,0.014-0.016,0.034-0.016
		c0.163,0,0.222,0.099,0.179,0.302c0,0.038-0.138,0.374-0.423,1.001c-0.28,0.625-0.645,1.44-1.092,2.44
		c-0.446,1-0.95,2.137-1.531,3.41c-0.575,1.275-1.165,2.584-1.773,3.925c-0.604,1.343-1.206,2.673-1.805,3.987
		c-0.597,1.315-1.135,2.502-1.619,3.562c-0.484,1.062-0.9,1.957-1.242,2.688c-0.344,0.722-0.559,1.177-0.638,1.359
		c-0.183,0.344-0.534,0.634-1.061,0.867c-0.523,0.23-1.054,0.392-1.574,0.481c-0.532,0.09-0.959,0.09-1.289,0
		C327.828,55.843,327.758,55.654,327.957,55.374z"/>
</g>
<g>
	<g>
		<g>
			<rect id="SVGID_1_" x="2.717" y="2.172" fill="#90492D" width="63.509" height="54.956"/>
		</g>
		<g>
			<defs>
				<rect id="SVGID_2_" x="2.717" y="2.172" width="63.509" height="54.956"/>
			</defs>
			<clipPath id="SVGID_3_">
				<use xlink:href="#SVGID_2_"  overflow="visible"/>
			</clipPath>
			<polygon clip-path="url(#SVGID_3_)" fill="#90492D" points="66.226,2.172 40.753,2.172 40.753,57.128 66.226,57.128 			"/>
		</g>
		<g>
			<defs>
				<rect id="SVGID_4_" x="2.717" y="2.172" width="63.509" height="54.956"/>
			</defs>
			<clipPath id="SVGID_5_">
				<use xlink:href="#SVGID_4_"  overflow="visible"/>
			</clipPath>
			<g clip-path="url(#SVGID_5_)">
				<path fill="#EFEEEE" d="M62.223,12.212l0.086-0.254l0.086-0.218l0.085-0.222l0.084-0.22l0.046-0.256l-0.046-0.256l-0.126-0.219
					l-0.088-0.256l-0.082-0.219l-0.089-0.257l-0.042-0.218V9.361l0.042-0.256v-0.22l-0.042-0.181L62.01,8.519L61.838,8.41
					l-0.173,0.036l-0.173,0.037l-0.127,0.073l-0.129,0.148l-0.044,0.145v0.184l-0.041,0.183l-0.045,0.145v0.366l0.045,0.182
					l0.041,0.149l-0.086,0.254l-0.127,0.256l-0.216,0.219l-0.299,0.111l-0.215,0.036l-0.214-0.036l-0.214-0.073l-0.215-0.11
					l-0.171-0.182l-0.215-0.149L59.007,10.2l-0.216-0.143l-0.17-0.183L58.493,9.69l-0.085-0.22l-0.046-0.255l0.046-0.183l0.04-0.219
					l0.085-0.184l0.044-0.183l0.086-0.182l0.127-0.145l0.174-0.111l0.256-0.073h0.515l0.256-0.036h0.771l0.26-0.038l0.257-0.035
					l0.127-0.037l0.129-0.038h0.17l0.131-0.035l0.126-0.074l0.129-0.071l0.086-0.112V7.313l-0.17-0.294L61.666,6.91l-0.385-0.035
					l-0.345-0.111l-0.342,0.184l-0.386,0.11L59.823,7.13h-0.386l-0.429-0.038H58.15l-0.386,0.073l-0.559,0.037l-0.6,0.037
					l-0.6,0.037l-0.6,0.071l-0.559,0.148l-0.474,0.22l-0.426,0.292l-0.344,0.438l-0.044,0.294l-0.043,0.254l-0.042,0.221L53.43,9.47
					l-0.042,0.22l-0.044,0.257L53.3,10.2v0.259l-0.041,0.255v0.293l-0.044,0.256l-0.044,0.255l-0.042,0.255v0.256l0.042,0.257
					l0.088,0.257l-0.088,0.256l0.173,0.073l0.214,0.035l0.173,0.111v0.109l-0.044,0.074l-0.085,0.073l-0.129,0.037l-0.085-0.037
					l-0.044-0.037L53.3,13.164l-0.041-0.037l-0.088,0.074l-0.042,0.11v0.108l-0.041,0.111v0.22l0.041,0.218v0.257l0.042,0.256v0.731
					l-0.042,0.257l-0.084,0.146l-0.044,0.184v0.145l0.044,0.185l0.043,0.147l0.041,0.182v0.182l0.042,0.183l0.088,0.328l0.085,0.368
					l0.044,0.326l0.085,0.366l0.085,0.366l0.129,0.33l0.173,0.33l0.215,0.292l0.085,0.183l0.129,0.147l0.171,0.109l0.171,0.108
					l0.173,0.111l0.215,0.109l0.215,0.072l0.171,0.109l0.127,0.111l0.13,0.146l0.044,0.183l0.043,0.147v0.183l-0.043,0.181v0.366
					l-0.174,0.294l-0.084,0.328l-0.13,0.328l-0.085,0.294l-0.085,0.327l-0.088,0.331l-0.086,0.33l-0.129,0.292l-0.257,0.328
					l-0.216,0.365l-0.169,0.366l-0.171,0.367l-0.216,0.402l-0.214,0.328l-0.257,0.33l-1.608,1.563l-0.129,0.182l-0.17,0.146
					l-0.215,0.148l-0.214,0.144l-0.174,0.147l-0.127,0.182L50.623,29.5v0.257l0.04,0.036l0.086,0.035h0.171l0.473-0.182l0.388-0.257
					l0.34-0.292l0.345-0.292l0.3-0.366l1.566-1.598l0.299-0.331l0.3-0.327l0.088-0.185l0.085-0.218l0.088-0.22l0.084-0.22
					l0.086-0.182l0.171-0.149l0.174-0.145l0.211-0.109l0.216-0.111l0.129-0.145v-0.33l-0.044-0.145l-0.042-0.183l-0.043-0.182
					l0.043-0.183l0.214-0.293l0.13-0.328l0.129-0.294l0.127-0.33l0.127-0.328l0.089-0.33l0.127-0.328l0.171-0.296l0.3-0.107
					l0.344-0.037l0.3,0.037l0.299,0.107l0.215,0.223l0.043,0.291v0.256l-0.043,0.294l0.129,0.292l0.259,0.182l0.3,0.184l0.3,0.146
					l0.256,0.146l0.257,0.147l0.301,0.145l0.3,0.147l0.256,0.147l0.215,0.181l0.086,0.22l0.041,0.294l-0.426,0.401l-0.473,0.294
					l-0.515,0.292l-0.558,0.255l-0.471,0.294l-0.43,0.292l-0.343,0.402l-0.214,0.514v0.585l0.041,0.22l0.044,0.183l0.086,0.145
					l0.127,0.183l0.214,0.11l0.301,0.328l0.301,0.294l0.385,0.256l0.386,0.22l0.386,0.182l0.43,0.184l0.384,0.181l0.43,0.147
					l0.129-0.035l0.129,0.035l0.129,0.037l0.129,0.074l0.127-0.074l0.171-0.109l0.088-0.147v-0.145l-0.259-0.366l-0.341-0.293
					l-0.389-0.256l-0.426-0.221l-0.43-0.182l-0.429-0.256l-0.343-0.256l-0.301-0.365L59.433,27.5l-0.043-0.146v-0.146l0.043-0.148
					l0.043-0.145l0.042-0.146v-0.145l0.044-0.148l0.127-0.182l0.13-0.146l0.129-0.147l0.214-0.109l0.173-0.073l0.214-0.073
					l0.212-0.074l0.216-0.036l0.214-0.073l0.429-0.145l0.216-0.111l0.171-0.072l0.17-0.147l0.171-0.145l0.088-0.183v-0.221
					l0.042-0.218l0.041-0.22v-0.474l-0.084-0.185l-0.088-0.182l-0.171-0.183l-0.256-0.182l-0.257-0.183l-0.257-0.147l-0.256-0.147
					l-0.257-0.146l-0.301-0.145l-0.256-0.185l-0.259-0.182l-0.171-0.147l-0.085-0.146l0.044-0.183l0.085-0.146l0.085-0.147
					l0.085-0.182v-0.183l-0.043-0.183l0.171-0.219l0.215-0.148l0.259-0.145l0.256-0.11l0.257-0.184l0.171-0.254l0.173-0.293
					l0.257-0.22v-0.256l0.041-0.292l0.085-0.256l0.088-0.221l-0.043-0.218l-0.045-0.258v-0.436l0.045-0.22l0.043-0.219l0.041-0.218
					l0.044-0.221l-0.044-0.11L62.05,15.8v-0.841l0.041-0.148l0.044-0.146v-0.402l-0.044-0.147v-0.147l-0.041-0.145l0.041-0.22
					v-0.475l0.086-0.22l-0.042-0.256l0.042-0.216L62.223,12.212z M54.288,9.397l0.127-0.293l0.173-0.256l0.171-0.294l0.215-0.22
					l0.259-0.18l0.299-0.075l0.385-0.036l0.301,0.036l0.215,0.111l0.215,0.144l0.3,0.074l0.085,0.145l0.042,0.184l0.044,0.183
					l0.044,0.146v0.365l-0.088,0.148l-0.084,0.144l-0.259,0.22l-0.257,0.218l-0.258,0.218l-0.256,0.184l-0.3,0.182l-0.257,0.184
					l-0.301,0.182l-0.257,0.182h-0.173l-0.127-0.035l-0.13-0.035l-0.084-0.038l-0.086-0.182l-0.043-0.221V9.835l-0.044-0.181
					L54.288,9.397z M54.074,12.614l0.085-0.146l0.129-0.109l0.084-0.109l0.259-0.073l0.259-0.074l0.259-0.145l0.212-0.109
					l0.257-0.147l0.215-0.145l0.256-0.109l0.258-0.109l0.215-0.184l0.255-0.183l0.259-0.145l0.3-0.183l0.259,0.037l0.257,0.072
					l0.214,0.111l0.214,0.146l0.174,0.145l0.214,0.184l0.17,0.145l0.215,0.11l0.174,0.072l0.17,0.108l0.171,0.076l0.171,0.072
					l0.173,0.073l0.17,0.074l0.173,0.035l0.171,0.037l0.173,0.111l0.126,0.147v0.366l-0.17,0.073l-0.171,0.071l-0.215,0.039h-0.385
					l-0.215,0.036l-0.171,0.036l-0.17,0.037l-0.259,0.036h-0.3l-0.259-0.036l-0.256-0.037l-0.257-0.036l-0.258-0.036l-0.301,0.036
					l-0.256,0.073l-0.303,0.036l-0.341,0.073l-0.3,0.037h-0.342l-0.301,0.037H55.19l-0.345-0.037l-0.342-0.037l-0.131-0.037
					l-0.126-0.109l-0.086-0.072l-0.085-0.146L54.074,12.614L54.074,12.614z M60.679,17.551l-0.042,0.146l-0.129,0.111l-0.044,0.111
					v0.108l0.129,0.111l-0.085,0.732l-0.171,0.11l-0.13,0.109l-0.171,0.146l-0.17,0.071l-0.174,0.11l-0.171,0.074l-0.215,0.073
					h-0.214l-0.257-0.037l-0.257-0.072l-0.258-0.038l-0.214-0.035l-0.257-0.075l-0.257-0.035l-0.256-0.036l-0.259-0.037h-0.514
					l-0.215-0.037h-0.729l-0.3-0.109l-0.257-0.146l-0.215-0.182L54.63,18.54l-0.171-0.22l-0.127-0.256l-0.086-0.221l-0.043-0.255
					v-0.221l0.129-0.145l0.214-0.073l0.171-0.071l0.301-0.037l0.343-0.039l0.301,0.039l0.3,0.037l0.3,0.036l0.3-0.036l0.301-0.037
					l0.256-0.11l0.3,0.11l0.3,0.037l0.342,0.036h0.645l0.343-0.036h0.301l0.341-0.037h0.215l0.214-0.039l0.216,0.039l0.171,0.073
					l0.129,0.144l0.042,0.147v0.146H60.679z M60.894,15.285l-0.044,0.184l-0.088,0.184l-0.084,0.146l-0.171,0.109l-0.129,0.036
					l-0.173,0.037l-0.215-0.037l-0.214,0.037h-1.33l-0.256,0.037l-0.257,0.035l-0.515-0.11l-0.17,0.11l-0.216,0.037l-0.17,0.038
					h-0.815l-0.215,0.036l-0.215,0.035l-0.214-0.035l-0.171-0.036l-0.173-0.075l-0.215-0.073l-0.173-0.073l-0.214-0.073
					l-0.214-0.036l-0.13-0.146l-0.041-0.149v-0.364l0.041-0.182v-0.221l0.044-0.182V14.37l0.086-0.109l0.086-0.109l0.127-0.111
					l0.086-0.073l0.558,0.038h0.515l0.558-0.038l0.515-0.036h1.073l0.512,0.036l0.515,0.11l0.43-0.182l0.215,0.145l0.214,0.037
					h0.257l0.258-0.037l0.215-0.035l0.214,0.035l0.17,0.111l0.131,0.218v0.915H60.894z M52.143,25.561l0.26-0.183l0.212-0.218
					l0.085-0.257l-0.129-0.221l-0.214-0.109L52.142,24.5l-0.256-0.035L51.585,24.5h-0.858l-0.3-0.073l-0.215-0.147l-0.171-0.183
					l-0.127-0.22l-0.13-0.254l-0.086-0.26l-0.085-0.252l-0.042-0.256l-0.044-0.184v-0.219l0.044-0.185l0.042-0.182l0.085-0.183
					l0.043-0.183l0.044-0.219v-0.22l0.086-0.254l0.085-0.22l0.086-0.256l0.044-0.257l0.086-0.221l0.085-0.255l0.129-0.22
					l0.171-0.218l0.042-0.221l0.129-0.22l0.171-0.182l0.173-0.184l0.173-0.183l0.171-0.183l0.17-0.183l0.13-0.183l0.042-0.326
					l0.085-0.368l0.086-0.365l0.085-0.328l0.044-0.367l0.044-0.329l-0.044-0.328l-0.129-0.331l-0.214-0.218l-0.216-0.221
					l-0.215-0.22l-0.212-0.255l-0.173-0.257l-0.127-0.256l-0.13-0.257l-0.085-0.292l-0.214-0.292l-0.13-0.292l-0.041-0.332
					l-0.046-0.328v-0.367l-0.04-0.328v-0.328l-0.044-0.329l0.044-0.221l0.04-0.219V9.323l0.046-0.254l0.085-0.22l0.171-0.22
					l0.171-0.147l0.214-0.108l0.259-0.039h1.03L52.358,8.3l0.085-0.145l0.086-0.185l0.043-0.145l-0.085-0.184h-0.301L51.929,7.57
					l-0.256-0.075h-0.731l-0.257,0.036L50.47,7.606l-0.257,0.035h-0.214l-0.215,0.035h-0.945L48.67,7.642h-0.388l-0.429,0.035
					l-0.429-0.035h-1.2l-0.386,0.035l-0.386,0.039l-0.345,0.145l-0.17,0.038l-0.17,0.036l-0.174,0.036l-0.171,0.073l-0.129,0.075
					L44.12,8.192L43.995,8.41l-0.131,0.256l-0.126,0.257l-0.129,0.218l-0.174,0.256l-0.127,0.257l-0.129,0.254l-0.127,0.22
					l0.085,0.254l0.042,0.294l0.043,0.256v0.256l-0.043,0.293v0.804l-0.042,0.148v0.401l0.042,0.146v0.438l-0.042,0.257l-0.043,0.22
					l-0.042,0.219v0.22l0.042,0.185v1.057l0.043,0.147l-0.043,0.294v0.327l-0.042,0.331l-0.044,0.292v1.242l-0.086,0.221v0.475
					l0.043,0.22l0.044,0.256l0.044,0.254v0.222l-0.044,0.254v0.55l0.044,0.29l0.042,0.259v0.292l0.043,0.256l0.042,0.293v0.292
					l0.043,0.147l0.086,0.184l0.042,0.146l0.085,0.146l0.044,0.183v0.145l0.043,0.146v0.147l0.173,0.33l0.215,0.292l0.299,0.257
					l0.301,0.217l0.343,0.184l0.386,0.182l0.342,0.146l0.388,0.109h0.257l0.3,0.037l0.256,0.074l0.301,0.035l0.255,0.073
					l0.301,0.073l0.259,0.037h0.3l0.301,0.073l0.299,0.037l0.3-0.037l0.3-0.037h0.258l0.3-0.036l0.301-0.037l0.3,0.037H50.9
					l0.173,0.036h0.173l0.171,0.037l0.17,0.037h0.344L52.143,25.561z M46.525,10.383l-0.045,0.478l-0.085,0.437l-0.043,0.403
					l-0.086,0.438v0.733l0.044,0.145v0.44l-0.044,0.145l-0.041,0.111l0.041,0.182l0.044,0.219l-0.044,0.22v0.185l-0.041,0.217v0.44
					l0.041,0.183v1.024l-0.041,0.256v0.805l0.085,0.22v0.181l-0.044,0.221l-0.085,0.366l-0.044,0.22l-0.041,0.182l0.041,0.219
					l0.044,0.292v0.879l-0.044,0.33v0.292l0.044,0.292l0.044,0.292l-0.044,0.294v0.913l-0.044,0.293l-0.041,0.33l-0.044,0.294
					l-0.129,0.256l-0.129,0.11l-0.17,0.035h-0.173l-0.173-0.035l-0.212-0.147l-0.174-0.183l-0.086-0.182l-0.04-0.22v-0.22
					l-0.045-0.221l-0.042-0.219l-0.086-0.218v-0.183l-0.042-0.073l-0.043-0.036l0.043-0.147l-0.043-0.146l-0.042-0.146l-0.085-0.147
					l-0.044-0.145l-0.044-0.146v-0.147l0.088-0.145l-0.044-0.183l-0.044-0.22l-0.041-0.182l-0.045-0.185l-0.043-0.218v-0.183
					l0.043-0.183l0.045-0.184l-0.045-0.474v-0.475l-0.043-0.438l-0.044-0.476l-0.042-0.476v-0.95l0.042-0.476l0.044-0.402v-0.368
					l0.043-0.402v-0.73l0.045-0.402v-0.366l0.041-0.404l0.088-0.182l0.041-0.183v-0.84l0.044-0.184l0.042-0.181v-0.257l-0.042-0.257
					l-0.044-0.291V9.323l0.129-0.254l0.171-0.22l0.215-0.073l0.214-0.073l0.258-0.037l0.257-0.037l0.216,0.037l0.214,0.073
					l0.214,0.145l0.127,0.185l0.088,0.438L46.525,10.383L46.525,10.383z M49.226,20.11l-0.215,0.624l-0.173,0.659l-0.084,0.658
					l-0.085,0.659l-0.045,0.218v0.257l0.086,0.22l0.044,0.256l0.043,0.256l-0.043,0.219l-0.13,0.183l-0.299,0.147l-0.215,0.035
					h-0.428l-0.215-0.035l-0.173-0.147l-0.085-0.183l-0.044-0.219v-0.221l0.086-0.218v-0.476l-0.043-0.22v-0.22l-0.044-0.22
					l0.044-0.218l0.085-0.22l0.041-0.402l0.044-0.403v-1.573l0.044-0.366l0.044-0.401l-0.088-0.368l-0.044-0.366V16.93l0.044-0.33
					v-0.366l0.044-0.366l0.044-0.109v-0.074l-0.044-0.11l-0.088-0.073l0.044-0.438l0.044-0.439V14.15l-0.044-0.438v-1.316
					l0.044-0.404l-0.088-0.401v-0.403l0.044-0.403l0.044-0.403l0.086-0.4l0.085-0.4l0.088-0.406l0.044-0.363l0.084-0.147
					l0.129-0.073l0.171-0.075l0.215-0.073h0.214l0.171,0.073l0.215,0.037l0.215,0.074l0.085,0.184l0.129,0.18v0.183L49.309,9.36
					v0.256l-0.04,0.218v0.257l-0.045,0.219v0.731l0.045,0.256l-0.088,0.294l-0.042,0.256v0.586l0.042,0.292v0.291l0.043,0.294
					l0.045,0.329l0.126,0.401l0.258,0.367l0.3,0.328l0.344,0.294l0.343,0.329l0.257,0.365l0.129,0.366v0.475l0.086,0.073
					l-0.558,1.098l-0.431,0.549l-0.385,0.585l-0.299,0.621L49.226,20.11z"/>
				<path fill="#EFEEEE" d="M53.394,57.128l-0.236-0.125l-0.017-0.02l-0.028,0.02L53.394,57.128z M53.175,33.533l0.013,0.007
					l0.03-0.007H53.175z M63.365,51.995h-0.178l0.178-0.092l-0.061-0.152v-0.124l-0.058-0.153v-0.275l-0.059-0.155v-0.122
					l-0.059-0.153v-0.186l-0.058-0.184l-0.118-0.185l-0.059-0.153l-0.116-0.184l-0.118-0.152l-0.118-0.154l-0.058-0.185
					l-0.176-0.247l-0.178-0.214l-0.061-0.245l0.238-0.187l-0.295-0.183l-0.237-0.245l-0.236-0.184l-0.412-0.153V47.48l-0.178-0.182
					l-0.237-0.216l-0.234-0.185v-0.155l-0.233-0.09l-0.296-0.033l-0.178-0.091l-0.115-0.214l-0.236-0.216l-0.591-0.306l-0.23-0.14
					l-0.252,0.055L58.09,45.54l-0.487-0.125l-0.296-0.093l-0.54-0.147l-0.295-0.063l-0.355-0.059l-0.234-0.093l-0.295-0.032h-0.294
					l-0.296-0.03h-0.295l-0.233-0.031l-0.164-0.113l-0.015,0.023v-0.033l0.015,0.01l0.103-0.162l0.176-0.184l0.176-0.155
					l0.355-0.122l0.47-0.03l0.413-0.031l0.471-0.061l0.412-0.062l0.473-0.03l0.411-0.061l0.944-0.062l0.295-0.124l0.353-0.093
					l0.353-0.061l0.179-0.154l0.115-0.092l0.178-0.092l0.178-0.062h0.234l0.178-0.091l0.175-0.122l0.118-0.124l0.118-0.124
					l0.117-0.122l0.061-0.122l0.117-0.155l0.058-0.122l-0.058-0.093L61.42,41.95v-0.124l-0.058-0.091l0.175-0.277l0.059-0.307
					l0.059-0.277V39.4l-0.294-0.216l-0.415-0.122l-0.353-0.152l-0.178-0.248l-0.291-0.307l-0.415-0.183l-0.53-0.124l-0.529-0.061
					l-0.591-0.032h-1.767l-0.178-0.061l-0.175-0.062l-0.471-0.06l-0.294-0.032h-0.237l-0.294,0.032l-0.237,0.029l-0.234,0.031
					h-0.294l-0.179-0.031l-0.236-0.061l-0.058-0.155v-0.274l0.058-0.124l-0.12-0.306l0.062-0.154l0.294-0.061h0.353l0.412,0.029
					h0.473l0.413-0.029l0.294-0.091l0.295-0.126l0.353-0.061h0.707l0.355,0.031h0.352l0.353-0.061l0.295-0.092l0.473-0.122
					l0.411-0.124l0.354-0.122l0.473-0.091l0.178-0.154l0.174-0.123l0.178-0.156l0.178-0.153l-0.277-0.126l0.179-0.153l0.175-0.154
					l0.117-0.152l0.176-0.247l0.176-0.247l0.118-0.243l0.176-0.247l0.118-0.247l0.117-0.246l0.179-0.245l0.175-0.247l-0.061-0.153
					l-0.115-0.124l-0.06-0.153l-0.175-0.122l-0.474-0.062l-0.411,0.062l-0.413,0.154l0.16,0.125l0.117,0.059l0.058,0.094v0.091
					l-0.12,0.062l-0.116,0.153l-0.058,0.186l-0.12,0.153l-0.116,0.184v0.154l-0.058,0.122l-0.117,0.124L59.944,33.9l-0.178,0.122
					l-0.176,0.09l-0.117,0.125l-0.117,0.122l-0.353,0.123l-0.178,0.124l-0.117,0.154l-0.059,0.154l-0.12,0.153l-0.116,0.183
					l-0.176,0.122l-0.354,0.124l-0.471,0.032l-0.53,0.03l-0.471,0.032l-0.471,0.029l-0.53,0.032l-0.471,0.03h-0.53l-0.471,0.03
					l-0.294-0.121l-0.118-0.218v-0.798l0.057-0.368l0.062-0.37l0.117-0.339l0.059-0.368v-0.706l-0.118-0.369l0.059-0.092v-0.184
					l-0.059-0.123l-0.12-0.185l-0.174-0.245l-0.222-0.145l-0.205,0.055l-0.237,0.091l-0.178,0.123l-0.175,0.154l0.059,0.183
					l-0.059,0.184l-0.061,0.154l-0.058,0.153l-0.12,0.155l-0.117,0.153l-0.058,0.185l-0.059,0.154l-0.058,0.244v0.247l0.058,0.216
					v0.184l0.117,0.216l0.117,0.215l0.061,0.214l0.059,0.247v0.859l-0.12,0.187l-0.234,0.091l-0.234,0.063l-0.295,0.03h-1
					l-0.297,0.061l-0.47-0.032l-0.471-0.059l-0.471-0.094l-0.412-0.121l-0.412-0.155l-0.354-0.185l-0.354-0.183l-0.236-0.245
					l-0.294-0.185l-0.178-0.184l-0.176-0.184l-0.118-0.215L46.03,33.84l-0.059-0.245l-0.061-0.216l-0.057-0.214l-0.118-0.153
					l-0.117-0.156l-0.178-0.153l-0.118-0.153l-0.117-0.185l-0.058-0.155v-0.184l0.058-0.183l-0.368-0.1l-0.214,0.113l-0.354,0.092
					l-0.058,0.183v0.493l0.058,0.184l0.059,0.153l0.059,0.185l0.059,0.153l0.176,0.153l0.117,0.184l0.117,0.185l0.059,0.185
					l0.118,0.368l0.059,0.216l0.059,0.185l0.064,0.195l0.018,0.098l0.028,0.091l0.118,0.124l0.058,0.124v0.122l0.059,0.123
					l0.118,0.122l0.058,0.123l0.118,0.091l0.176,0.124l0.117,0.092l0.413,0.214l0.529,0.155l0.473,0.06l0.59,0.06h2.355l0.471,0.032
					l0.412-0.032h0.473l0.352,0.122v0.125l0.061,0.093v0.152l0.059,0.124v0.124l-0.059,0.121l-0.061,0.092l-0.175,0.093h-0.354
					l-0.353,0.032L50.856,37.8l-0.351,0.031l-0.355,0.062l-0.412,0.029l-0.353,0.032h-0.353l-0.295,0.062l-0.295,0.03l-0.353,0.033
					h-0.297l-0.35,0.029l-0.296,0.062l-0.236,0.092l-0.236,0.153l-0.412,0.093l-0.295,0.153l-0.295,0.154L45.5,39.032l-0.178,0.183
					l-0.175,0.216l-0.176,0.216l-0.178,0.184l-0.059,0.276l-0.058,0.306l-0.059,0.277v0.307l0.059,0.277v0.306l0.117,0.277
					l0.116,0.277l0.238,0.182l0.117,0.216l0.058,0.214v0.217L45.5,43.21l0.354,0.153l0.412,0.122l0.354,0.185l0.236,0.03
					l0.234,0.062l0.237,0.093l0.233,0.091l0.236,0.093l0.237,0.062h0.237l0.295-0.062l0.412,0.031l0.412,0.031h1.943l0.413,0.03
					l0.236,0.062l0.236,0.093l0.178,0.122v0.155l-0.061,0.092l-0.058,0.122l-0.12,0.093l-0.175,0.061l-0.354,0.062l-0.353,0.062
					l-0.294,0.061l-0.355,0.062l-0.294,0.091l-0.354,0.062l-0.296,0.059l-0.352,0.095l-0.411,0.062l-0.354,0.122l-0.354,0.123
					l-0.236,0.185l-0.295,0.184l-0.471,0.368l-0.295,0.156l-0.294,0.181l-0.237,0.218L46.265,47.3l-0.059,0.245l-0.118,0.062
					l-0.058,0.032l-0.059,0.059v0.062l-0.061,0.276l-0.116,0.247l-0.176,0.276L45.5,48.801l-0.178,0.247l-0.117,0.274v0.032
					l-0.118,0.276l-0.116,0.217l-0.12,0.214l-0.117,0.185v0.216l-0.058,0.184v0.675l-0.118,0.124l-0.059,0.153v0.124l-0.117,0.368
					l0.059,0.153l0.058,0.123v0.276l-0.117,0.216l0.176,0.122l0.352,0.123l0.238,0.184l0.117-0.123l0.118-0.153l0.058-0.124
					l0.117-0.155l0.118-0.152l0.118-0.155l0.059-0.154l0.057-0.152v-0.153l0.061-0.156l0.059-0.155l0.058-0.122l0.178-0.369
					l0.236-0.397l0.176-0.37L46.796,50l0.179-0.371l0.234-0.398l0.237-0.369l0.234-0.37v-0.244l0.116-0.216l0.179-0.183l0.236-0.185
					l0.236-0.185l0.236-0.182l0.237-0.186l0.117-0.215l0.353-0.155l0.353-0.182l0.353-0.155l0.53-0.031l0.355-0.122l0.352-0.123
					l0.413-0.093l0.471-0.03l0.353,0.062l0.117,0.154l-0.057,0.183v0.984l-0.061,0.275l0.061,0.4l0.057,0.428l0.061,0.431
					l-0.061,0.43l-0.117,0.46v0.246l0.061,0.216l0.117,0.492v0.458l-0.061,0.218l-0.175,0.212l-0.058,0.216v1.169l-0.059,0.214
					l-0.061,0.246l0.12,0.122l0.176,0.154l0.117,0.123v0.183l0.237,0.155l0.058,0.153l0.1,0.135l0.149-0.102l0.176-0.123
					l0.236-0.092v-0.523l0.059-0.277V52.61l0.059-0.276l0.061-0.245l-0.061-0.186l-0.059-0.215v-0.552l0.059-0.186l0.061-0.182
					l0.057-0.186l-0.057-0.275l-0.061-0.277l-0.059-0.246v-0.277l-0.059-0.247v-0.798l0.059-0.154v-0.706l-0.059-0.185l-0.058-0.154
					V46.74l-0.062-0.151l-0.057-0.185v-0.308l0.057-0.183l0.12-0.155l0.236-0.061l0.296-0.062h0.233l0.295,0.123l0.415,0.062
					l0.411,0.061l0.354,0.094l0.415,0.122l0.35,0.125l0.354,0.12l0.296,0.122l0.352,0.154l0.413,0.245l0.354,0.278l0.295,0.277
					l0.294,0.275l0.295,0.308l0.296,0.306l0.292,0.307l0.296,0.278l0.174,0.213l0.178,0.247l0.061,0.246l0.117,0.247l0.058,0.245
					l0.117,0.245l0.118,0.216l0.236,0.216l0.118,0.153l0.117,0.153l0.118,0.31v0.151l0.061,0.153v0.155l0.057,0.153l0.237,0.247
					l0.471,0.153l0.411,0.185l0.354,0.213l0.058-0.121l-0.058-0.124l-0.059-0.124l0.178-0.122V52.21l0.058-0.122L63.365,51.995z
					 M46.736,40.169l-0.176-0.185l-0.176-0.51l0.353-0.215l0.936-0.093l0.375-0.153l0.279,0.049l0.296-0.03l0.296-0.064l0.294-0.089
					l0.295-0.062l0.294-0.062l0.294-0.029l0.297,0.029l0.292,0.125l0.473-0.031l0.53-0.032l0.411,0.062l0.296,0.183v0.153
					l0.059,0.185l0.058,0.153l0.058,0.156l0.061,0.183v0.155l-0.061,0.185l-0.058,0.153l-0.355,0.092l-0.352,0.062l-0.354,0.03
					h-1.473l-0.412,0.029l-0.236-0.029h-0.294l-0.236-0.03h-0.885l-0.295-0.031h-0.294l-0.296-0.155L46.736,40.169z M52.747,41.826
					l-0.061,0.124v0.153l-0.057,0.124l0.057,0.122l-0.057,0.124l-0.061,0.152L52.51,42.78l-0.117,0.154l-0.118,0.123l-0.178,0.122
					l-0.234,0.092l-0.297,0.06l-0.352,0.032H50.86l-0.351-0.032l-0.355-0.029l-0.295-0.031l-0.352-0.031l-0.295,0.031l-0.294,0.092
					l-0.178-0.061l-0.237-0.031L48.27,43.24l-0.295-0.061l-0.179-0.093l-0.116-0.122l-0.176-0.123l-0.176-0.123l-0.178-0.124
					l-0.118-0.122l-0.117-0.124l-0.058-0.153l0.294-0.615l0.296-0.122l0.35-0.063l0.355-0.03h0.353l0.354,0.03h0.707l0.294-0.03
					h0.295l0.355,0.03h1.885l0.175,0.093l0.117,0.124l0.061,0.092L52.747,41.826L52.747,41.826z M53.527,39.891v-0.552l0.057-0.183
					l0.062-0.187l0.237-0.089l0.294-0.031l0.292-0.032h0.295l0.295,0.032h0.296l0.234,0.031l0.295-0.031h1.71l0.352,0.031
					l0.412,0.089l0.296,0.125l0.294,0.186l0.061,0.152l0.175,0.122l0.178,0.156l0.234,0.122l0.118,0.154l0.058,0.153l-0.058,0.123
					l-0.292,0.153l-3.183,0.337l-0.295-0.03l-0.236-0.061l-0.295-0.092l-0.234-0.061h-0.355l-0.412,0.031l-0.411,0.03l-0.354-0.093
					l-0.062-0.184v-0.184L53.527,39.891z M53.882,43.179l-0.237-0.215v-0.369l-0.062-0.183v-0.707l0.062-0.184l0.237-0.062
					l0.294-0.031h0.292l0.295-0.062h1.827l0.412-0.029h0.943l0.473,0.029l1.474,0.37l0.057,0.152l-0.057,0.125l-0.179,0.122
					l-0.176,0.061L59.3,42.257l-0.117,0.092l-0.117,0.063l-0.118,0.091l-0.294,0.063l-0.236,0.122l-0.295,0.092l-0.471,0.246
					l-0.294,0.091l-0.355,0.031l-0.353-0.031l-0.354,0.031h-0.412L55.53,43.24l-0.353,0.123h-0.474l-0.412-0.061L53.882,43.179z"/>
			</g>
		</g>
		<g>
			<defs>
				<rect id="SVGID_6_" x="2.717" y="2.172" width="63.509" height="54.956"/>
			</defs>
			<clipPath id="SVGID_7_">
				<use xlink:href="#SVGID_6_"  overflow="visible"/>
			</clipPath>
			<g clip-path="url(#SVGID_7_)">
				<polygon fill="#D0BF7D" points="2.717,2.172 40.753,2.172 40.753,57.128 2.717,57.128 				"/>
				<path fill="#FFFFFF" d="M20.378-2.529V22.04l-0.013,0.113c0,0.004-0.44,1.989,1.321,3.95l4.916,5.47l-0.828,0.775l-4.918-5.47
					c-1.965-2.186-1.673-4.486-1.606-4.888V-2.529H20.378L20.378-2.529z M19.261,21.932l0.001-0.003L19.261,21.932L19.261,21.932z
					 M22.381-2.529V21.02l-0.012,0.116c-0.004,0.005-0.438,1.983,1.32,3.95l4.644,5.193l-0.832,0.77l-4.642-5.193
					c-1.936-2.162-1.678-4.434-1.604-4.875v-23.51L22.381-2.529L22.381-2.529z M21.268,20.91c0-0.003,0-0.006,0-0.006V20.91
					L21.268,20.91z M24.476-2.529v22.902l-0.014,0.109c0,0.006-0.465,2.016,1.317,3.948l4.186,4.543l-0.818,0.785l-4.188-4.544
					c-2.002-2.175-1.682-4.503-1.612-4.894V-2.529H24.476L24.476-2.529z M23.359,20.265c0-0.004,0-0.005,0-0.005V20.265
					L23.359,20.265z M22.837,61.527v-24.57l0.01-0.113c0.001-0.005,0.44-1.991-1.321-3.952l-4.917-5.468l0.833-0.774l4.917,5.47
					c1.979,2.204,1.667,4.529,1.602,4.897v24.511L22.837,61.527L22.837,61.527z M20.832,61.527V37.974l0.014-0.115
					c0-0.003,0.436-1.981-1.324-3.948l-4.64-5.192l0.829-0.769l4.643,5.193c1.947,2.175,1.676,4.463,1.606,4.882v23.503
					L20.832,61.527L20.832,61.527z M18.74,61.527V38.624l0.012-0.111c0-0.003,0.465-2.013-1.317-3.948l-4.187-4.541l0.818-0.784
					l4.188,4.543c2.019,2.191,1.68,4.54,1.611,4.905v22.839H18.74L18.74,61.527z M11.527-2.542c0.368,2.142,1.402,4.063,2.882,5.543
					c0.901,0.898,1.973,1.635,3.154,2.157v1.235c-1.488-0.581-2.826-1.467-3.941-2.58c-1.689-1.685-2.856-3.892-3.236-6.355
					L11.527-2.542L11.527-2.542z M33.06-2.542c-0.382,2.463-1.549,4.67-3.238,6.355c-1.146,1.145-2.534,2.052-4.075,2.632v-1.23
					C26.984,4.69,28.099,3.933,29.035,3c1.478-1.48,2.511-3.4,2.882-5.543h1.143V-2.542z M9.153-2.542
					c0.387,2.792,1.69,5.294,3.597,7.198c1.342,1.34,2.983,2.382,4.813,3.018v1.205c-2.136-0.675-4.051-1.864-5.601-3.408
					C9.848,3.357,8.41,0.567,8.014-2.542H9.153L9.153-2.542z M35.429-2.542c-0.397,3.109-1.831,5.899-3.946,8.013
					c-1.585,1.58-3.547,2.781-5.736,3.45v-1.2c1.882-0.632,3.572-1.693,4.947-3.065c1.906-1.904,3.209-4.406,3.599-7.198
					L35.429-2.542L35.429-2.542z M6.982-2.542C7.384,0.841,8.933,3.88,11.23,6.173c1.74,1.738,3.909,3.051,6.333,3.759v1.188
					c-2.731-0.738-5.175-2.188-7.119-4.134c-2.508-2.5-4.188-5.827-4.593-9.529h1.131V-2.542z M37.595-2.542
					c-0.407,3.702-2.087,7.028-4.594,9.529c-1.976,1.978-4.472,3.443-7.254,4.17V9.971c2.476-0.7,4.696-2.027,6.467-3.798
					c2.296-2.294,3.846-5.332,4.248-8.715L37.595-2.542L37.595-2.542z M17.563,40.144c-1.503-0.58-2.851-1.474-3.972-2.596
					c-2.073-2.079-3.358-4.948-3.358-8.106c0-3.158,1.285-6.026,3.358-8.105c1.12-1.123,2.47-2.012,3.972-2.594v1.234
					c-1.196,0.525-2.275,1.266-3.185,2.177c-1.863,1.868-3.017,4.447-3.017,7.288c0,2.84,1.154,5.421,3.017,7.29
					c0.91,0.912,1.989,1.653,3.185,2.178V40.144L17.563,40.144z M25.747,18.738c1.506,0.585,2.862,1.475,3.985,2.6
					c2.073,2.079,3.358,4.946,3.358,8.105c0,3.158-1.285,6.027-3.358,8.106c-1.123,1.125-2.479,2.02-3.985,2.602v-1.233
					c1.201-0.521,2.285-1.269,3.197-2.184c1.864-1.869,3.019-4.45,3.019-7.29c0-2.841-1.155-5.42-3.019-7.288
					c-0.912-0.915-1.996-1.66-3.197-2.183V18.738L25.747,18.738z M17.563,42.627c-2.148-0.674-4.07-1.863-5.624-3.423
					c-2.495-2.501-4.044-5.958-4.044-9.762s1.549-7.258,4.044-9.76c1.554-1.559,3.476-2.748,5.624-3.422v1.204
					c-1.84,0.634-3.489,1.681-4.836,3.034c-2.288,2.292-3.707,5.457-3.707,8.944s1.419,6.653,3.707,8.948
					c1.347,1.347,2.996,2.399,4.836,3.035V42.627L17.563,42.627z M25.747,16.256c2.152,0.674,4.079,1.867,5.637,3.427
					c2.495,2.502,4.043,5.956,4.043,9.76s-1.548,7.261-4.043,9.762c-1.558,1.563-3.485,2.753-5.637,3.427v-1.204
					c1.842-0.633,3.501-1.686,4.849-3.037c2.288-2.294,3.708-5.461,3.708-8.948s-1.42-6.652-3.708-8.944
					c-1.348-1.356-3.006-2.404-4.849-3.038L25.747,16.256L25.747,16.256z M17.563,44.864c-2.737-0.735-5.19-2.188-7.137-4.141
					c-2.887-2.893-4.675-6.885-4.675-11.28c0-4.397,1.788-8.386,4.675-11.278c1.947-1.956,4.4-3.408,7.137-4.142v1.188
					c-2.43,0.704-4.608,2.018-6.353,3.768c-2.676,2.681-4.334,6.386-4.334,10.463c0,4.079,1.658,7.782,4.334,10.465
					c1.745,1.747,3.923,3.064,6.353,3.769V44.864L17.563,44.864z M25.747,14.021c2.741,0.732,5.198,2.184,7.152,4.144
					c2.883,2.892,4.671,6.881,4.671,11.278c0,4.396-1.788,8.387-4.671,11.28c-1.954,1.958-4.411,3.412-7.152,4.146v-1.188
					c2.437-0.704,4.616-2.022,6.363-3.773c2.677-2.683,4.338-6.386,4.338-10.465c0-4.078-1.661-7.783-4.338-10.463
					c-1.747-1.752-3.926-3.069-6.363-3.772L25.747,14.021L25.747,14.021z M9.932,61.533c0.642-4.347,3.646-7.922,7.631-9.324v1.221
					c-3.362,1.326-5.883,4.394-6.491,8.103H9.932L9.932,61.533z M25.747,52.493c3.622,1.559,6.305,4.96,6.906,9.04h-1.139
					c-0.565-3.439-2.773-6.323-5.767-7.785V52.493L25.747,52.493z M7.557,61.533C8.249,55.86,12.274,51.215,17.563,49.7v1.197
					c-4.665,1.463-8.2,5.596-8.87,10.636L7.557,61.533L7.557,61.533z M25.747,49.93c4.929,1.713,8.621,6.191,9.282,11.603h-1.136
					c-0.637-4.776-3.843-8.739-8.146-10.385L25.747,49.93L25.747,49.93z M5.388,61.533c0.725-6.887,5.692-12.512,12.175-14.1v1.181
					C11.703,50.165,7.228,55.28,6.52,61.533H5.388L5.388,61.533z M25.747,47.63c6.126,1.815,10.754,7.274,11.452,13.903h-1.133
					c-0.68-5.994-4.819-10.942-10.318-12.708L25.747,47.63L25.747,47.63z"/>
			</g>
		</g>
	</g>
</g>
<g>
	<path fill="#90492D" d="M348.999,30.15h4.335c-0.008,0.04-0.016,0.074-0.023,0.102c-0.009,0.028-0.017,0.054-0.024,0.078
		c0,0.008-0.002,0.018-0.006,0.029c-0.004,0.013-0.006,0.022-0.006,0.03c-0.008,0.017-0.013,0.028-0.013,0.036s0,0.02,0,0.036
		c0,0.008,0,0.014,0,0.018s0,0.01,0,0.018c0,0.009,0,0.017,0,0.024s0,0.017,0,0.024c0,0.031,0,0.062,0,0.09
		c0,0.027,0.005,0.058,0.013,0.089c0,0.017,0.002,0.032,0.006,0.049c0.004,0.016,0.01,0.031,0.018,0.048
		c0.008,0.023,0.014,0.044,0.019,0.06c0.004,0.016,0.01,0.032,0.018,0.048c-0.12-0.024-0.239-0.044-0.359-0.06
		c-0.119-0.017-0.247-0.028-0.383-0.036c-0.128-0.008-0.258-0.014-0.39-0.019c-0.132-0.004-0.266-0.006-0.401-0.006
		c-0.04,0-0.079,0-0.119,0s-0.08,0-0.12,0s-0.082,0-0.126,0s-0.086,0-0.125,0c-0.032,0.009-0.063,0.013-0.09,0.013
		c-0.028,0-0.059,0-0.09,0c-0.032,0-0.064,0-0.096,0c-0.032,0-0.061,0-0.084,0c-0.032,0-0.066,0-0.102,0c-0.036,0-0.074,0-0.114,0
		c-0.032,0.008-0.065,0.012-0.102,0.012s-0.07,0-0.102,0c-0.072,0-0.143,0-0.21,0c-0.068,0-0.134,0-0.197,0v2.897h1.796l1.126-0.096
		c-0.008,0.04-0.019,0.074-0.03,0.103c-0.012,0.027-0.022,0.054-0.03,0.077c-0.008,0.032-0.012,0.063-0.012,0.09
		c0,0.028,0,0.059,0,0.09c0,0.017,0,0.032,0,0.048c0,0.017,0,0.032,0,0.048c0,0.024,0.002,0.044,0.006,0.061
		c0.004,0.016,0.006,0.031,0.006,0.048c0.008,0.032,0.019,0.065,0.03,0.102s0.022,0.074,0.03,0.113l-1.413-0.119h-1.509v3.401
		c0.056,0.016,0.115,0.027,0.18,0.035c0.063,0.009,0.131,0.013,0.203,0.013c0.072,0.008,0.147,0.012,0.228,0.012s0.159,0,0.239,0
		c0.064,0,0.128,0,0.191,0c0.064,0,0.132,0,0.204,0c0.04,0,0.076,0,0.107,0c0.032,0,0.068-0.004,0.108-0.012
		c0.031,0,0.065,0,0.102,0s0.069,0,0.102,0c0.16-0.008,0.315-0.017,0.467-0.024c0.152-0.008,0.304-0.016,0.455-0.023
		c0.145-0.017,0.275-0.03,0.396-0.042c0.12-0.013,0.228-0.022,0.323-0.03c-0.008,0.032-0.018,0.065-0.029,0.102
		c-0.013,0.036-0.022,0.074-0.03,0.114c-0.008,0.031-0.012,0.063-0.012,0.096s0,0.063,0,0.096s0,0.063,0,0.096
		s0.004,0.064,0.012,0.096c0.008,0.032,0.018,0.06,0.03,0.084c0.012,0.023,0.021,0.04,0.029,0.048h-4.431V30.15z"/>
	<path fill="#90492D" d="M354.538,34.438c0.115-0.399,0.285-0.742,0.509-1.03c0.231-0.287,0.511-0.505,0.839-0.652
		c0.327-0.147,0.702-0.222,1.125-0.222c0.008,0,0.017,0,0.024,0s0.02,0,0.036,0c0.008,0.008,0.018,0.012,0.029,0.012
		c0.013,0,0.022,0,0.03,0c0.016,0,0.034,0,0.054,0s0.042,0,0.066,0c0.159,0.024,0.316,0.061,0.473,0.108
		c0.155,0.048,0.306,0.111,0.449,0.191s0.264,0.164,0.359,0.252s0.167,0.175,0.215,0.263c0.017,0.017,0.026,0.034,0.03,0.055
		c0.004,0.02,0.01,0.037,0.018,0.054c0,0.008,0,0.016,0,0.023s0.004,0.017,0.013,0.024c0,0.008,0,0.016,0,0.023
		c0,0.009,0,0.017,0,0.024V29.3c0.04,0.024,0.081,0.042,0.125,0.054c0.044,0.013,0.086,0.022,0.126,0.03s0.082,0.012,0.126,0.012
		s0.086,0,0.126,0s0.081,0,0.126,0c0.043,0,0.085-0.004,0.125-0.012s0.084-0.018,0.132-0.03c0.048-0.012,0.096-0.021,0.144-0.029
		v9.029c-0.031,0-0.065-0.002-0.102-0.006s-0.074-0.01-0.113-0.019c-0.04-0.008-0.082-0.014-0.126-0.018s-0.086-0.006-0.126-0.006
		c-0.023,0-0.048,0-0.072,0c-0.023,0-0.044,0.004-0.06,0.012c-0.023,0-0.048,0.002-0.071,0.006
		c-0.024,0.005-0.048,0.006-0.072,0.006c-0.048,0.009-0.096,0.015-0.144,0.019s-0.096,0.006-0.144,0.006v-1.042
		c-0.128,0.184-0.258,0.34-0.39,0.467c-0.132,0.128-0.266,0.236-0.401,0.323c-0.144,0.089-0.285,0.158-0.425,0.21
		s-0.277,0.09-0.413,0.114c-0.017,0-0.032,0-0.048,0c-0.017,0-0.032,0.004-0.048,0.012c-0.017,0-0.03,0-0.042,0s-0.026,0-0.042,0
		s-0.032,0-0.048,0c-0.017,0-0.028,0.004-0.036,0.012c-0.016,0-0.029,0-0.042,0c-0.012,0-0.025,0-0.042,0
		c-0.319,0-0.622-0.058-0.91-0.174c-0.287-0.115-0.559-0.297-0.814-0.545c-0.247-0.255-0.433-0.532-0.557-0.832
		s-0.186-0.621-0.186-0.964c0-0.008,0-0.016,0-0.024c0-0.008,0-0.016,0-0.023s0-0.014,0-0.019c0-0.004,0-0.01,0-0.018
		s0-0.016,0-0.023v-0.024C354.364,35.292,354.422,34.837,354.538,34.438z M355.568,36.449c0.043,0.231,0.109,0.428,0.197,0.587
		c0.088,0.16,0.184,0.298,0.287,0.413c0.104,0.116,0.208,0.206,0.312,0.27c0.032,0.017,0.062,0.032,0.09,0.048
		c0.028,0.017,0.058,0.032,0.09,0.048c0.024,0.017,0.05,0.028,0.078,0.036c0.027,0.008,0.058,0.016,0.09,0.023
		c0.063,0.009,0.119,0.017,0.167,0.024s0.092,0.012,0.132,0.012c0.008,0,0.014,0,0.019,0c0.004,0,0.01,0,0.018,0
		c0.016,0,0.028,0,0.036,0c0,0.009,0.002,0.013,0.006,0.013s0.01,0,0.018,0s0.015,0,0.019,0s0.01,0,0.018,0
		c0.224,0,0.432-0.053,0.623-0.156s0.371-0.255,0.539-0.455c0.167-0.207,0.293-0.457,0.377-0.748
		c0.084-0.292,0.126-0.629,0.126-1.013c0-0.063-0.002-0.135-0.006-0.215c-0.005-0.08-0.011-0.16-0.019-0.24
		c-0.008-0.087-0.018-0.175-0.029-0.263c-0.013-0.088-0.026-0.18-0.042-0.275c-0.04-0.184-0.099-0.359-0.174-0.527
		c-0.076-0.168-0.17-0.327-0.281-0.479c-0.104-0.152-0.242-0.266-0.413-0.342c-0.172-0.076-0.374-0.113-0.605-0.113
		c-0.008,0-0.014,0-0.018,0s-0.01,0-0.019,0c-0.008,0-0.016,0-0.023,0s-0.021,0-0.036,0c-0.008,0-0.014,0-0.018,0s-0.011,0-0.019,0
		c-0.247,0.016-0.463,0.065-0.646,0.149s-0.331,0.205-0.443,0.365c-0.104,0.151-0.191,0.313-0.263,0.485
		c-0.072,0.171-0.128,0.349-0.168,0.532c-0.024,0.096-0.042,0.188-0.054,0.275s-0.019,0.176-0.019,0.264
		c-0.008,0.088-0.012,0.172-0.012,0.252c0,0.079,0,0.155,0,0.228v-0.024C355.502,35.942,355.524,36.218,355.568,36.449z"/>
	<path fill="#90492D" d="M361.442,32.51c0.016,0.016,0.029,0.027,0.041,0.035c0.013,0.009,0.022,0.013,0.03,0.013
		c0.016,0.008,0.03,0.012,0.042,0.012s0.021,0,0.03,0c0.023,0.008,0.048,0.016,0.071,0.024c0.024,0.008,0.048,0.012,0.072,0.012
		c0.023,0,0.048,0,0.071,0c0.024,0,0.049,0,0.072,0c0.04,0,0.08,0,0.12,0c0.039,0,0.079-0.004,0.119-0.012
		c0.04-0.009,0.084-0.019,0.132-0.03s0.096-0.022,0.144-0.03v0.922c0.008-0.008,0.019-0.018,0.03-0.029s0.021-0.026,0.03-0.042
		c0.016-0.016,0.029-0.032,0.042-0.048c0.012-0.016,0.021-0.032,0.029-0.048c0.08-0.104,0.174-0.204,0.281-0.3
		c0.108-0.096,0.229-0.188,0.365-0.275s0.28-0.155,0.432-0.203s0.312-0.072,0.479-0.072c0.208,0,0.392,0.012,0.552,0.036
		c0.159,0.023,0.299,0.056,0.419,0.096c0.119,0.04,0.235,0.105,0.347,0.197c0.112,0.092,0.22,0.206,0.323,0.342
		c0.024,0.032,0.05,0.069,0.078,0.113s0.058,0.09,0.09,0.138c0.024,0.048,0.052,0.096,0.084,0.145
		c0.032,0.048,0.063,0.1,0.096,0.155c0.088-0.208,0.197-0.39,0.329-0.545s0.286-0.281,0.461-0.377
		c0.176-0.096,0.354-0.17,0.533-0.222s0.365-0.078,0.557-0.078c0.304,0,0.573,0.044,0.809,0.132s0.441,0.224,0.617,0.407
		c0.175,0.176,0.311,0.361,0.407,0.557c0.096,0.196,0.151,0.401,0.167,0.617c0,0.008,0,0.016,0,0.023s0,0.017,0,0.024
		s0,0.016,0,0.023c0,0.009,0,0.017,0,0.024s0,0.016,0,0.023c0,0.009,0,0.017,0,0.024s0,0.014,0,0.018s0,0.011,0,0.019
		c-0.008,0.008-0.012,0.016-0.012,0.023s0,0.017,0,0.024s0,0.014,0,0.018s0,0.01,0,0.018v3.94c-0.016,0-0.034,0-0.054,0
		c-0.021,0-0.038-0.004-0.054-0.012c-0.024,0-0.046-0.002-0.066-0.006c-0.02-0.004-0.038-0.007-0.054-0.007
		c-0.04-0.008-0.082-0.014-0.126-0.018s-0.086-0.006-0.126-0.006c-0.023,0-0.048,0-0.071,0c-0.024,0-0.044,0.004-0.06,0.012
		c-0.024,0-0.048,0.002-0.072,0.006c-0.024,0.005-0.048,0.006-0.072,0.006c-0.048,0.009-0.096,0.015-0.144,0.019
		s-0.096,0.006-0.144,0.006v-3.868c0-0.199-0.036-0.383-0.107-0.551c-0.072-0.168-0.176-0.315-0.312-0.443
		c-0.136-0.119-0.281-0.211-0.438-0.275c-0.155-0.063-0.317-0.096-0.484-0.096c-0.009,0-0.017,0-0.024,0h-0.012
		c-0.16,0.008-0.313,0.044-0.461,0.107c-0.148,0.064-0.29,0.16-0.426,0.288s-0.243,0.289-0.323,0.484
		c-0.079,0.196-0.128,0.43-0.144,0.701v3.652c-0.016,0-0.034,0-0.054,0c-0.021,0-0.038-0.004-0.054-0.012
		c-0.024,0-0.046-0.002-0.066-0.006c-0.02-0.004-0.038-0.007-0.054-0.007c-0.032-0.008-0.069-0.014-0.113-0.018
		s-0.086-0.006-0.126-0.006s-0.082,0.002-0.126,0.006s-0.086,0.01-0.126,0.018c-0.04,0.009-0.077,0.015-0.113,0.019
		s-0.074,0.006-0.114,0.006v-3.868c0-0.191-0.035-0.367-0.107-0.527c-0.072-0.159-0.18-0.299-0.323-0.419
		c-0.144-0.119-0.294-0.211-0.449-0.275c-0.155-0.063-0.317-0.1-0.485-0.107c-0.008,0-0.016,0-0.023,0h-0.012
		c-0.16,0-0.315,0.03-0.468,0.09c-0.151,0.06-0.295,0.149-0.431,0.27c-0.136,0.119-0.239,0.277-0.312,0.473
		c-0.072,0.196-0.112,0.434-0.12,0.713v3.652c-0.016,0-0.033,0-0.054,0c-0.02,0-0.038-0.004-0.054-0.012
		c-0.023,0-0.046-0.002-0.065-0.006c-0.021-0.004-0.038-0.007-0.055-0.007c-0.04-0.008-0.081-0.014-0.125-0.018
		s-0.086-0.006-0.126-0.006c-0.024,0-0.048,0-0.072,0c-0.023,0-0.044,0.004-0.06,0.012c-0.023,0-0.048,0.002-0.072,0.006
		c-0.023,0.005-0.048,0.006-0.071,0.006c-0.048,0.009-0.096,0.015-0.144,0.019s-0.096,0.006-0.144,0.006V32.51z"/>
	<path fill="#90492D" d="M371.184,34.449c0.14-0.383,0.349-0.723,0.629-1.018c0.279-0.304,0.608-0.529,0.987-0.677
		c0.38-0.147,0.805-0.222,1.275-0.222c0.352,0,0.665,0.044,0.94,0.132s0.513,0.216,0.713,0.384c0.191,0.167,0.359,0.343,0.503,0.526
		s0.264,0.379,0.359,0.587c0.063,0.136,0.115,0.27,0.155,0.401s0.072,0.262,0.096,0.389c0.024,0.128,0.042,0.242,0.054,0.342
		c0.013,0.1,0.019,0.186,0.019,0.257c0,0.072-0.002,0.146-0.006,0.222c-0.005,0.076-0.015,0.154-0.03,0.233
		c-0.008,0.08-0.022,0.158-0.042,0.234c-0.02,0.075-0.042,0.153-0.065,0.233c-0.08,0.247-0.196,0.486-0.348,0.718
		c-0.151,0.232-0.34,0.451-0.563,0.659c-0.224,0.199-0.493,0.35-0.809,0.449s-0.673,0.149-1.072,0.149c-0.016,0-0.031,0-0.048,0
		c-0.016,0-0.032,0-0.048,0c-0.008,0-0.02,0-0.036,0c-0.008,0-0.016,0-0.023,0s-0.017,0-0.024,0c-0.447,0-0.844-0.063-1.191-0.191
		c-0.347-0.128-0.645-0.323-0.892-0.587c-0.248-0.264-0.434-0.557-0.558-0.88c-0.123-0.323-0.186-0.673-0.186-1.048v-0.024
		C370.974,35.256,371.044,34.833,371.184,34.449z M372.111,36.019c0.008,0.08,0.017,0.167,0.024,0.264
		c0.016,0.096,0.036,0.193,0.06,0.293c0.024,0.1,0.06,0.206,0.108,0.317c0.056,0.144,0.127,0.283,0.215,0.419
		s0.195,0.264,0.323,0.384c0.12,0.119,0.27,0.211,0.449,0.275c0.18,0.063,0.382,0.104,0.604,0.119c0.256,0,0.491-0.052,0.707-0.155
		s0.411-0.264,0.587-0.479c0.168-0.207,0.301-0.471,0.401-0.79c0.1-0.319,0.161-0.69,0.186-1.114c0-0.375-0.036-0.716-0.108-1.023
		c-0.071-0.308-0.18-0.581-0.323-0.82c-0.144-0.231-0.329-0.407-0.557-0.527c-0.228-0.119-0.493-0.18-0.796-0.18
		c-0.296,0-0.56,0.063-0.791,0.187c-0.231,0.123-0.427,0.313-0.587,0.568c-0.159,0.248-0.283,0.509-0.371,0.784
		s-0.14,0.565-0.155,0.868c0,0.017,0,0.032,0,0.048c0,0.017,0,0.032,0,0.048c0,0.009,0,0.019,0,0.03s0,0.026,0,0.042
		c0,0.008,0,0.018,0,0.03c0,0.012,0,0.021,0,0.029c0,0.017,0,0.028,0,0.036s0,0.021,0,0.036c0,0.023,0,0.046,0,0.065
		c0,0.021,0.004,0.038,0.012,0.055v-0.024C372.1,35.867,372.104,35.938,372.111,36.019z"/>
	<path fill="#90492D" d="M378.327,32.51c0.023,0.016,0.054,0.029,0.09,0.042c0.036,0.012,0.069,0.021,0.102,0.029
		c0.04,0.008,0.078,0.015,0.113,0.019c0.036,0.004,0.07,0.006,0.103,0.006c0.008,0,0.016,0,0.023,0s0.017,0,0.024,0s0.016,0,0.023,0
		s0.017,0,0.024,0c0.023,0,0.048,0,0.071,0c0.024,0,0.048,0,0.072,0c0.016,0,0.036-0.002,0.06-0.006
		c0.024-0.004,0.048-0.006,0.072-0.006c0.048-0.009,0.094-0.019,0.138-0.03s0.082-0.022,0.113-0.03v1.006
		c0.024-0.016,0.048-0.042,0.072-0.077c0.023-0.036,0.052-0.074,0.084-0.114c0.031-0.04,0.065-0.08,0.102-0.12
		c0.036-0.039,0.074-0.083,0.114-0.131c0.079-0.08,0.171-0.156,0.275-0.228c0.104-0.072,0.219-0.145,0.347-0.216
		c0.128-0.072,0.275-0.126,0.443-0.162s0.352-0.054,0.551-0.054h0.012c0.008,0,0.017,0,0.024,0c0.231,0.008,0.453,0.06,0.664,0.156
		c0.212,0.096,0.413,0.235,0.605,0.419c0.191,0.184,0.335,0.431,0.431,0.742s0.144,0.69,0.144,1.138v3.461c-0.016,0-0.031,0-0.048,0
		c-0.016,0-0.031-0.004-0.048-0.012c-0.023,0-0.044-0.002-0.06-0.006c-0.017-0.004-0.032-0.007-0.048-0.007
		c-0.017,0-0.034-0.001-0.054-0.006c-0.021-0.004-0.038-0.006-0.055-0.006c-0.023-0.008-0.046-0.012-0.065-0.012s-0.038,0-0.054,0
		c-0.04,0-0.084,0.002-0.132,0.006s-0.096,0.01-0.144,0.018c-0.048,0.009-0.098,0.015-0.149,0.019
		c-0.053,0.004-0.11,0.006-0.174,0.006v-3.485c0-0.271-0.036-0.513-0.108-0.724c-0.071-0.212-0.176-0.39-0.311-0.533
		c-0.145-0.144-0.294-0.252-0.449-0.323c-0.156-0.072-0.317-0.108-0.485-0.108c-0.008,0-0.014,0-0.018,0c-0.005,0-0.011,0-0.019,0
		s-0.014,0-0.018,0s-0.011,0-0.019,0c-0.176,0.009-0.345,0.057-0.509,0.145c-0.163,0.088-0.317,0.211-0.461,0.371
		c-0.151,0.151-0.264,0.343-0.335,0.574c-0.072,0.232-0.108,0.499-0.108,0.803v3.281c-0.048,0-0.094-0.002-0.138-0.006
		s-0.086-0.01-0.125-0.019c-0.04-0.008-0.08-0.014-0.12-0.018s-0.08-0.006-0.12-0.006s-0.082,0.002-0.125,0.006
		c-0.044,0.004-0.086,0.01-0.126,0.018c-0.024,0-0.048,0.003-0.072,0.007c-0.023,0.004-0.044,0.006-0.06,0.006
		c-0.024,0.008-0.048,0.012-0.072,0.012c-0.023,0-0.048,0-0.071,0V32.51z"/>
	<path fill="#90492D" d="M384.83,33.072h-0.755c0.016,0,0.025-0.006,0.03-0.018c0.004-0.013,0.01-0.026,0.018-0.042
		c0.008-0.017,0.014-0.034,0.018-0.054c0.004-0.021,0.007-0.038,0.007-0.055c0-0.016-0.003-0.035-0.007-0.06
		c-0.004-0.023-0.01-0.048-0.018-0.072c-0.008-0.023-0.014-0.048-0.018-0.071c-0.005-0.024-0.015-0.048-0.03-0.072l0.755-0.023
		v-1.138l0.945-0.371v1.509h1.317c-0.008,0.032-0.018,0.06-0.029,0.084c-0.013,0.023-0.022,0.044-0.03,0.06
		s-0.012,0.034-0.012,0.054c0,0.021,0,0.038,0,0.054c0,0.017,0,0.034,0,0.054c0,0.021,0.004,0.038,0.012,0.055
		c0,0.008,0.002,0.018,0.006,0.029c0.004,0.013,0.01,0.022,0.018,0.03c0.009,0.016,0.015,0.028,0.019,0.036s0.01,0.02,0.018,0.036
		l-1.317-0.024v3.113c0,0.064,0,0.122,0,0.174s0,0.11,0,0.174c0,0.056,0.002,0.112,0.006,0.168s0.011,0.111,0.019,0.167
		c0.016,0.152,0.04,0.298,0.071,0.438c0.032,0.14,0.076,0.27,0.132,0.39c0.056,0.127,0.138,0.224,0.246,0.287
		c0.107,0.063,0.237,0.096,0.389,0.096c0.04,0,0.084-0.004,0.132-0.012s0.1-0.017,0.156-0.024c0.056-0.016,0.113-0.034,0.173-0.054
		c0.061-0.02,0.122-0.046,0.186-0.078v0.348c-0.104,0.056-0.207,0.096-0.311,0.12c-0.104,0.023-0.204,0.048-0.3,0.071
		c-0.096,0.024-0.186,0.042-0.27,0.054c-0.084,0.013-0.166,0.019-0.245,0.019c-0.224,0-0.418-0.034-0.581-0.103
		c-0.164-0.067-0.302-0.169-0.413-0.305c-0.112-0.136-0.195-0.3-0.252-0.491c-0.056-0.191-0.083-0.411-0.083-0.659V36.94V33.072z"/>
	<path fill="#90492D" d="M387.877,34.449c0.14-0.383,0.349-0.723,0.629-1.018c0.279-0.304,0.608-0.529,0.987-0.677
		c0.38-0.147,0.805-0.222,1.275-0.222c0.352,0,0.665,0.044,0.94,0.132s0.513,0.216,0.713,0.384c0.191,0.167,0.359,0.343,0.503,0.526
		s0.264,0.379,0.359,0.587c0.063,0.136,0.115,0.27,0.155,0.401s0.072,0.262,0.096,0.389c0.024,0.128,0.042,0.242,0.054,0.342
		c0.013,0.1,0.019,0.186,0.019,0.257c0,0.072-0.002,0.146-0.006,0.222c-0.005,0.076-0.015,0.154-0.03,0.233
		c-0.008,0.08-0.022,0.158-0.042,0.234c-0.02,0.075-0.042,0.153-0.065,0.233c-0.08,0.247-0.196,0.486-0.348,0.718
		c-0.151,0.232-0.34,0.451-0.563,0.659c-0.224,0.199-0.493,0.35-0.809,0.449s-0.673,0.149-1.072,0.149c-0.016,0-0.031,0-0.048,0
		c-0.016,0-0.032,0-0.048,0c-0.008,0-0.02,0-0.036,0c-0.008,0-0.016,0-0.023,0s-0.017,0-0.024,0c-0.447,0-0.844-0.063-1.191-0.191
		c-0.347-0.128-0.645-0.323-0.892-0.587c-0.248-0.264-0.434-0.557-0.558-0.88c-0.123-0.323-0.186-0.673-0.186-1.048v-0.024
		C387.667,35.256,387.737,34.833,387.877,34.449z M388.805,36.019c0.008,0.08,0.017,0.167,0.024,0.264
		c0.016,0.096,0.036,0.193,0.06,0.293c0.024,0.1,0.06,0.206,0.108,0.317c0.056,0.144,0.127,0.283,0.215,0.419
		s0.195,0.264,0.323,0.384c0.12,0.119,0.27,0.211,0.449,0.275c0.18,0.063,0.382,0.104,0.604,0.119c0.256,0,0.491-0.052,0.707-0.155
		s0.411-0.264,0.587-0.479c0.168-0.207,0.301-0.471,0.401-0.79c0.1-0.319,0.161-0.69,0.186-1.114c0-0.375-0.036-0.716-0.108-1.023
		c-0.071-0.308-0.18-0.581-0.323-0.82c-0.144-0.231-0.329-0.407-0.557-0.527c-0.228-0.119-0.493-0.18-0.796-0.18
		c-0.296,0-0.56,0.063-0.791,0.187c-0.231,0.123-0.427,0.313-0.587,0.568c-0.159,0.248-0.283,0.509-0.371,0.784
		s-0.14,0.565-0.155,0.868c0,0.017,0,0.032,0,0.048c0,0.017,0,0.032,0,0.048c0,0.009,0,0.019,0,0.03s0,0.026,0,0.042
		c0,0.008,0,0.018,0,0.03c0,0.012,0,0.021,0,0.029c0,0.017,0,0.028,0,0.036s0,0.021,0,0.036c0,0.023,0,0.046,0,0.065
		c0,0.021,0.004,0.038,0.012,0.055v-0.024C388.793,35.867,388.797,35.938,388.805,36.019z"/>
	<path fill="#90492D" d="M395.021,32.51c0.023,0.016,0.054,0.029,0.09,0.042c0.036,0.012,0.069,0.021,0.102,0.029
		c0.04,0.008,0.078,0.015,0.113,0.019c0.036,0.004,0.07,0.006,0.103,0.006c0.008,0,0.016,0,0.023,0s0.017,0,0.024,0s0.016,0,0.023,0
		s0.017,0,0.024,0c0.023,0,0.048,0,0.071,0c0.024,0,0.048,0,0.072,0c0.016,0,0.036-0.002,0.06-0.006
		c0.024-0.004,0.048-0.006,0.072-0.006c0.048-0.009,0.094-0.019,0.138-0.03s0.082-0.022,0.113-0.03v1.006
		c0.024-0.016,0.048-0.042,0.072-0.077c0.023-0.036,0.052-0.074,0.084-0.114c0.031-0.04,0.065-0.08,0.102-0.12
		c0.036-0.039,0.074-0.083,0.114-0.131c0.079-0.08,0.171-0.156,0.275-0.228c0.104-0.072,0.219-0.145,0.347-0.216
		c0.128-0.072,0.275-0.126,0.443-0.162s0.352-0.054,0.551-0.054h0.012c0.008,0,0.017,0,0.024,0c0.231,0.008,0.453,0.06,0.664,0.156
		c0.212,0.096,0.413,0.235,0.605,0.419c0.191,0.184,0.335,0.431,0.431,0.742s0.144,0.69,0.144,1.138v3.461c-0.016,0-0.031,0-0.048,0
		c-0.016,0-0.031-0.004-0.048-0.012c-0.023,0-0.044-0.002-0.06-0.006c-0.017-0.004-0.032-0.007-0.048-0.007
		c-0.017,0-0.034-0.001-0.054-0.006c-0.021-0.004-0.038-0.006-0.055-0.006c-0.023-0.008-0.046-0.012-0.065-0.012s-0.038,0-0.054,0
		c-0.04,0-0.084,0.002-0.132,0.006s-0.096,0.01-0.144,0.018c-0.048,0.009-0.098,0.015-0.149,0.019
		c-0.053,0.004-0.11,0.006-0.174,0.006v-3.485c0-0.271-0.036-0.513-0.108-0.724c-0.071-0.212-0.176-0.39-0.311-0.533
		c-0.145-0.144-0.294-0.252-0.449-0.323c-0.156-0.072-0.317-0.108-0.485-0.108c-0.008,0-0.014,0-0.018,0c-0.005,0-0.011,0-0.019,0
		s-0.014,0-0.018,0s-0.011,0-0.019,0c-0.176,0.009-0.345,0.057-0.509,0.145c-0.163,0.088-0.317,0.211-0.461,0.371
		c-0.151,0.151-0.264,0.343-0.335,0.574c-0.072,0.232-0.108,0.499-0.108,0.803v3.281c-0.048,0-0.094-0.002-0.138-0.006
		s-0.086-0.01-0.125-0.019c-0.04-0.008-0.08-0.014-0.12-0.018s-0.08-0.006-0.12-0.006s-0.082,0.002-0.125,0.006
		c-0.044,0.004-0.086,0.01-0.126,0.018c-0.024,0-0.048,0.003-0.072,0.007c-0.023,0.004-0.044,0.006-0.06,0.006
		c-0.024,0.008-0.048,0.012-0.072,0.012c-0.023,0-0.048,0-0.071,0V32.51z"/>
</g>
</svg>
