<?xml version="1.0" encoding="utf-8"?>
<!-- Generator: Adobe Illustrator 17.0.0, SVG Export Plug-In . SVG Version: 6.00 Build 0)  -->
<!DOCTYPE svg PUBLIC "-//W3C//DTD SVG 1.1//EN" "http://www.w3.org/Graphics/SVG/1.1/DTD/svg11.dtd">
<svg version="1.1" id="Layer_1" xmlns="http://www.w3.org/2000/svg" xmlns:xlink="http://www.w3.org/1999/xlink" x="0px" y="0px"
	 width="212.598px" height="85.039px" viewBox="0 0 212.598 85.039" enable-background="new 0 0 212.598 85.039"
	 xml:space="preserve">
<rect x="0" y="0" fill="none" stroke="#BE1E2D" stroke-miterlimit="10" width="85.039" height="85.039"/>
<g>
	<path fill="#BE1E2D" d="M127.66,32.134c0.375,0,1.5,0.698,3.375,2.094c0.146,0.104,0.219,0.24,0.219,0.406
		c0,0.167-0.094,0.313-0.281,0.438c-0.625,0.604-0.938,0.948-0.938,1.031v3.531c0,0.396,0.041,2.563,0.125,6.5c0,0.667-1,1-3,1
		c-0.917,0-1.375-0.208-1.375-0.625v-1.844h-6.719v5.906c0,0.396,0.041,2.072,0.125,5.031c0,0.604-1.104,0.906-3.313,0.906
		c-0.792,0-1.188-0.198-1.188-0.594v-0.031c0.083-3.584,0.125-5.552,0.125-5.906v-5.313h-6.438v1.531
		c0,0.646-0.938,0.969-2.813,0.969c-1.021,0-1.531-0.197-1.531-0.594V46.54c0.104-3.958,0.156-6.208,0.156-6.75v-2.062
		c0-2-0.084-3.666-0.25-5c1.604,0.375,3.166,0.781,4.688,1.219h6.188v-1.688c0-2.208-0.073-3.906-0.219-5.094
		c3.729,0.396,5.594,0.781,5.594,1.156c0,0.188-0.084,0.334-0.25,0.438c-0.584,0.354-0.875,0.563-0.875,0.625v4.562h6.375l0.25-0.25
		C126.732,32.656,127.389,32.134,127.66,32.134z M114.816,43.884v-9.093h-6.438v9.093H114.816z M119.066,34.791v9.093h6.719v-9.093
		H119.066z"/>
	<path fill="#BE1E2D" d="M163.716,33.728c1.479-1.916,2.375-2.875,2.688-2.875c0.271,0,0.979,0.479,2.125,1.437
		c1.125,0.959,1.688,1.553,1.688,1.781c0,0.313-0.136,0.469-0.406,0.469h-5.313c-1.479,5.604-3.521,9.958-6.125,13.062
		c1.354,1.084,3.188,1.99,5.5,2.719c2.333,0.75,4.489,1.166,6.469,1.25l-0.094,0.656c-0.854,0.438-1.438,1.438-1.75,3
		c-0.167,0.791-0.406,1.188-0.719,1.188c-1.125,0-3-0.667-5.625-2c-2.625-1.313-4.719-2.75-6.281-4.313
		c-3.688,3.333-8.573,5.469-14.656,6.406l-0.25-0.531c5.271-2.021,9.479-4.854,12.625-8.5c-2.292-3.166-3.927-7.479-4.906-12.937
		h-2.156c-1.854,0-3.323,0.094-4.406,0.281l-0.625-1.438c1.521,0.209,3.646,0.313,6.375,0.313L163.716,33.728z M159.934,34.572
		h-10.469c1.542,4.542,3.583,8,6.125,10.375C157.736,41.988,159.184,38.531,159.934,34.572z M151.434,27.541l0.219-0.438
		c1.792,0.042,3.344,0.406,4.656,1.094c1.292,0.688,1.938,1.573,1.938,2.656c0,1.584-0.771,2.375-2.313,2.375
		c-0.854,0-1.427-0.563-1.719-1.687C153.633,29.375,152.705,28.041,151.434,27.541z"/>
</g>
<g>
	
		<line fill="none" stroke="#BE1E2D" stroke-width="4" stroke-linecap="round" stroke-linejoin="round" stroke-miterlimit="10" x1="59.647" y1="42.313" x2="24.906" y2="42.313"/>
	
		<line fill="none" stroke="#BE1E2D" stroke-width="4" stroke-linecap="round" stroke-linejoin="round" stroke-miterlimit="10" x1="47.647" y1="54.313" x2="59.647" y2="42.313"/>
	
		<line fill="none" stroke="#BE1E2D" stroke-width="4" stroke-linecap="round" stroke-linejoin="round" stroke-miterlimit="10" x1="47.647" y1="30.313" x2="59.647" y2="42.313"/>
</g>
</svg>
