<?xml version="1.0" encoding="utf-8"?>
<!-- Generator: Adobe Illustrator 17.0.0, SVG Export Plug-In . SVG Version: 6.00 Build 0)  -->
<!DOCTYPE svg PUBLIC "-//W3C//DTD SVG 1.1//EN" "http://www.w3.org/Graphics/SVG/1.1/DTD/svg11.dtd">
<svg version="1.1" id="Layer_1" xmlns="http://www.w3.org/2000/svg" xmlns:xlink="http://www.w3.org/1999/xlink" x="0px" y="0px"
	 width="212.598px" height="85.039px" viewBox="0 0 212.598 85.039" enable-background="new 0 0 212.598 85.039"
	 xml:space="preserve">
<rect x="0" y="0" fill="none" stroke="#776155" stroke-miterlimit="10" width="85.039" height="85.039"/>
<g>
	<path fill="#776155" d="M104.832,32.483h1.2h10.86c-0.021,0.101-0.04,0.185-0.061,0.255c-0.02,0.07-0.04,0.135-0.06,0.195
		c0,0.02-0.005,0.045-0.015,0.074c-0.011,0.03-0.016,0.056-0.016,0.075c-0.02,0.04-0.029,0.07-0.029,0.09c0,0.021,0,0.051,0,0.091
		v0.06v0.12c0,0.101,0,0.185,0,0.255s0.01,0.146,0.029,0.225c0,0.041,0.005,0.08,0.016,0.12c0.01,0.041,0.024,0.08,0.045,0.12
		c0.02,0.061,0.034,0.11,0.045,0.15c0.01,0.04,0.024,0.08,0.045,0.12l-1.2-0.03c-0.3-0.04-0.6-0.08-0.9-0.12
		c-0.3-0.04-0.62-0.07-0.96-0.09c-0.319-0.02-0.645-0.035-0.975-0.045s-0.665-0.016-1.005-0.016h-0.03
		c-0.08,0.021-0.155,0.03-0.225,0.03c-0.07,0-0.146,0-0.226,0s-0.16,0-0.239,0c-0.08,0-0.15,0-0.21,0c-0.081,0-0.165,0-0.256,0
		c-0.09,0-0.185,0-0.284,0c-0.08,0.021-0.165,0.03-0.256,0.03c-0.09,0-0.175,0-0.255,0c-0.18,0-0.354,0-0.524,0s-0.335,0-0.495,0
		v7.26h3.3l2.82-0.24h1.2c-0.021,0.101-0.046,0.186-0.075,0.255c-0.03,0.07-0.056,0.136-0.075,0.195
		c-0.021,0.08-0.03,0.155-0.03,0.226s0,0.145,0,0.225c0,0.04,0,0.08,0,0.12s0,0.08,0,0.12c0,0.06,0.005,0.109,0.016,0.149
		c0.01,0.041,0.015,0.08,0.015,0.12c0.02,0.08,0.045,0.165,0.075,0.255c0.029,0.09,0.055,0.186,0.075,0.285l-1.2-0.03l-3.54-0.27
		h-2.58v8.52c0.14,0.041,0.29,0.07,0.45,0.091c0.159,0.02,0.33,0.029,0.51,0.029c0.16,0.021,0.319,0.03,0.479,0.03s0.33,0,0.511,0
		c0.1,0,0.189,0,0.27,0s0.16-0.01,0.24-0.03c0.08,0,0.165,0,0.255,0s0.175,0,0.255,0c0.4-0.02,0.79-0.04,1.17-0.06
		s0.76-0.04,1.141-0.061c0.359-0.039,0.689-0.074,0.989-0.104c0.301-0.03,0.57-0.055,0.811-0.075l1.2-0.03
		c-0.021,0.101-0.045,0.195-0.075,0.285s-0.056,0.186-0.075,0.285c-0.021,0.08-0.03,0.16-0.03,0.24s0,0.16,0,0.24s0,0.16,0,0.239
		c0,0.08,0.01,0.16,0.03,0.24c0.02,0.08,0.045,0.15,0.075,0.21c0.03,0.061,0.055,0.101,0.075,0.12h-1.2h-11.101V32.483z"/>
	<path fill="#776155" d="M120.912,38.393h1.2c0.06,0.04,0.135,0.074,0.225,0.104s0.175,0.056,0.255,0.075c0.021,0,0.04,0,0.061,0
		c0.02,0,0.04,0,0.06,0c0,0.021,0.01,0.03,0.03,0.03c0.02,0,0.04,0,0.06,0h0.03h0.03c0.12-0.02,0.234-0.045,0.345-0.075
		s0.205-0.055,0.285-0.075l1.2-0.03v1.17c0.18-0.14,0.375-0.279,0.585-0.42c0.21-0.14,0.444-0.279,0.705-0.42
		c0.319-0.18,0.689-0.314,1.109-0.404c0.421-0.091,0.88-0.136,1.381-0.136l1.199-0.029h0.03h0.061c0.579,0.04,1.135,0.18,1.664,0.42
		c0.53,0.239,1.035,0.59,1.516,1.05c0.479,0.46,0.84,1.08,1.08,1.86c0.24,0.779,0.359,1.729,0.359,2.85v8.67h-1.199
		c-0.041,0-0.08,0-0.12,0c-0.041,0-0.08-0.01-0.12-0.03c-0.061,0-0.11-0.005-0.15-0.015s-0.08-0.015-0.12-0.015h-0.029h-0.03
		c-0.12,0.02-0.245,0.035-0.375,0.045c-0.131,0.01-0.275,0.015-0.436,0.015h-1.199v-8.73c0-0.68-0.09-1.284-0.271-1.814
		c-0.18-0.529-0.44-0.975-0.78-1.335c-0.26-0.28-0.539-0.505-0.84-0.675c-0.3-0.17-0.61-0.285-0.93-0.346
		c-0.36,0.08-0.705,0.221-1.035,0.42c-0.33,0.2-0.645,0.471-0.945,0.811c-0.38,0.38-0.659,0.86-0.84,1.439
		c-0.18,0.581-0.27,1.251-0.27,2.011v8.22h-1.2c-0.12,0-0.235-0.005-0.345-0.015c-0.11-0.01-0.216-0.025-0.315-0.045h-0.03
		c0.021,0,0.021,0,0,0c-0.06,0-0.119,0.005-0.18,0.015c-0.06,0.01-0.11,0.015-0.149,0.015c-0.061,0.021-0.12,0.03-0.181,0.03
		c-0.06,0-0.12,0-0.18,0h-1.2V38.393z"/>
	<path fill="#776155" d="M138.508,40.943c0.289-0.48,0.654-0.87,1.095-1.17c0.46-0.3,0.935-0.535,1.425-0.705
		s0.995-0.285,1.515-0.345c0.04,0,0.075,0,0.105,0s0.064,0,0.105,0c0.02,0,0.049,0,0.09,0c0.039,0,0.069,0,0.09,0
		c0.04,0,0.075,0,0.104,0c0.03,0,0.065-0.011,0.105-0.03c0.02,0,0.05,0,0.09,0s0.08,0,0.12,0l1.2-0.03
		c0.46,0.021,0.845,0.035,1.154,0.045c0.311,0.011,0.556,0.025,0.735,0.045c0.18,0.021,0.34,0.035,0.48,0.045
		c0.14,0.011,0.249,0.025,0.33,0.045h0.06h0.06c0.08,0.041,0.165,0.065,0.256,0.075c0.09,0.011,0.194,0.025,0.314,0.045
		c0.12,0.021,0.274,0.03,0.465,0.03s0.415,0,0.675,0c0.221,0,0.46-0.005,0.721-0.015c0.26-0.01,0.55-0.025,0.87-0.045l1.199-0.03
		v1.14h-1.199l-2.221-0.149c0.28,0.22,0.53,0.465,0.75,0.734c0.22,0.271,0.43,0.575,0.63,0.915c0.221,0.381,0.38,0.766,0.48,1.155
		c0.1,0.39,0.15,0.785,0.15,1.185c-0.081,0.801-0.251,1.476-0.511,2.025c-0.26,0.551-0.6,0.965-1.02,1.245
		c-0.42,0.3-0.855,0.54-1.305,0.72c-0.45,0.18-0.915,0.3-1.396,0.36c-0.18,0.02-0.36,0.04-0.54,0.06
		c-0.18,0.021-0.36,0.03-0.54,0.03c-0.08,0-0.165,0-0.255,0s-0.186,0-0.285,0c-0.08,0.021-0.16,0.03-0.24,0.03s-0.16,0-0.239,0
		c-0.261,0-0.511,0.005-0.75,0.015c-0.24,0.011-0.461,0.035-0.66,0.075c-0.2,0.02-0.365,0.065-0.495,0.135
		c-0.131,0.07-0.215,0.155-0.255,0.255c-0.04,0.08-0.075,0.155-0.105,0.226c-0.029,0.07-0.055,0.135-0.075,0.194
		c-0.02,0.08-0.029,0.15-0.029,0.21c0,0.061,0,0.11,0,0.15c-0.021,0.3,0.06,0.55,0.24,0.75c0.18,0.2,0.449,0.35,0.81,0.45
		c0.36,0.1,0.735,0.18,1.125,0.239c0.39,0.061,0.795,0.101,1.215,0.12c0.061,0,0.125,0,0.195,0c0.069,0,0.145,0,0.225,0
		s0.16,0,0.24,0s0.16-0.01,0.24-0.029c0.079,0,0.154,0,0.225,0s0.135,0,0.195,0l1.2-0.03c0.14,0.021,0.265,0.035,0.375,0.045
		c0.109,0.011,0.204,0.025,0.284,0.045c0.58,0.12,1.096,0.28,1.546,0.48c0.449,0.2,0.824,0.439,1.125,0.72
		c0.3,0.28,0.544,0.645,0.734,1.095s0.315,1.005,0.375,1.665v0.061v0.09v0.06v0.09c0,0.101-0.005,0.195-0.015,0.285
		c-0.011,0.09-0.025,0.175-0.045,0.255c0,0.04-0.006,0.085-0.016,0.136c-0.01,0.049-0.015,0.104-0.015,0.164
		c-0.021,0.04-0.035,0.085-0.045,0.136c-0.011,0.05-0.015,0.095-0.015,0.135c-0.181,0.56-0.471,1.095-0.87,1.604
		c-0.4,0.511-0.921,1.006-1.561,1.485c-0.62,0.46-1.35,0.811-2.189,1.05c-0.84,0.24-1.771,0.36-2.79,0.36h-1.2
		c-0.881,0-1.68-0.105-2.4-0.315c-0.72-0.21-1.35-0.524-1.89-0.944s-0.945-0.881-1.215-1.38c-0.271-0.501-0.405-1.041-0.405-1.62
		c0-0.601,0.061-1.125,0.18-1.575c0.12-0.45,0.311-0.835,0.57-1.155c0.24-0.32,0.555-0.58,0.945-0.78
		c0.39-0.199,0.854-0.35,1.395-0.449c-0.3-0.12-0.569-0.255-0.81-0.405s-0.44-0.315-0.601-0.495s-0.28-0.395-0.359-0.645
		c-0.08-0.25-0.12-0.525-0.12-0.825c0-0.24,0.02-0.46,0.06-0.66s0.101-0.37,0.181-0.51c0.079-0.16,0.18-0.305,0.3-0.436
		c0.12-0.13,0.26-0.265,0.42-0.404c0.08-0.061,0.165-0.12,0.255-0.181c0.09-0.06,0.175-0.12,0.255-0.18
		c0.1-0.061,0.205-0.13,0.315-0.21c0.109-0.08,0.225-0.16,0.345-0.24c-0.66-0.199-1.185-0.439-1.575-0.72
		c-0.39-0.28-0.665-0.61-0.825-0.99c-0.14-0.38-0.25-0.765-0.33-1.155c-0.08-0.39-0.119-0.784-0.119-1.185c0-0.04,0-0.085,0-0.135
		s0-0.095,0-0.136c0-0.039,0-0.079,0-0.119s0-0.08,0-0.12v-0.21c0-0.04,0-0.07,0-0.091c0-0.039,0-0.069,0-0.09v-0.06
		C138.022,41.992,138.218,41.422,138.508,40.943z M140.548,56.617c0.01,0.09,0.024,0.185,0.045,0.285
		c0.02,0.1,0.045,0.199,0.074,0.3c0.03,0.1,0.065,0.2,0.105,0.3c0.12,0.28,0.3,0.556,0.54,0.825c0.24,0.271,0.52,0.535,0.84,0.795
		c0.28,0.2,0.601,0.36,0.96,0.48c0.36,0.12,0.76,0.199,1.2,0.239c0.02,0,0.04,0,0.06,0c0.021,0,0.05,0,0.091,0
		c0.02-0.02,0.039-0.029,0.06-0.029c0.02,0,0.04,0,0.06,0c0.12-0.021,0.25-0.035,0.391-0.045c0.14-0.011,0.279-0.035,0.42-0.075
		c0.399-0.101,0.784-0.24,1.155-0.42c0.369-0.181,0.715-0.391,1.034-0.63c0.34-0.261,0.59-0.561,0.75-0.9s0.24-0.73,0.24-1.17
		c0-0.06,0-0.115,0-0.165s0-0.095,0-0.135c0-0.041,0-0.086,0-0.135c0-0.051,0-0.096,0-0.136c-0.02-0.38-0.104-0.74-0.255-1.08
		s-0.345-0.659-0.585-0.96c-0.221-0.26-0.565-0.47-1.035-0.63s-1.064-0.26-1.785-0.3c-0.52,0.04-1.015,0.105-1.484,0.195
		c-0.471,0.09-0.905,0.225-1.306,0.404c-0.479,0.2-0.85,0.525-1.109,0.976c-0.261,0.45-0.42,1.024-0.48,1.725
		C140.532,56.432,140.537,56.527,140.548,56.617z M141.492,43.822c0,0.561,0.075,1.055,0.226,1.485
		c0.149,0.43,0.375,0.814,0.675,1.154c0.26,0.28,0.545,0.495,0.854,0.646c0.311,0.149,0.635,0.245,0.976,0.285
		c0.3-0.061,0.595-0.17,0.885-0.33s0.564-0.38,0.825-0.66c0.319-0.34,0.56-0.735,0.72-1.186c0.16-0.449,0.24-0.975,0.24-1.574
		c0-0.641-0.08-1.21-0.24-1.71s-0.4-0.92-0.72-1.261c-0.24-0.26-0.495-0.47-0.766-0.63c-0.27-0.159-0.564-0.279-0.885-0.359
		c-0.34,0.08-0.645,0.185-0.915,0.314c-0.27,0.131-0.495,0.306-0.675,0.525c-0.24,0.26-0.435,0.53-0.585,0.81
		c-0.15,0.28-0.275,0.57-0.375,0.87c-0.06,0.141-0.104,0.285-0.135,0.436c-0.03,0.149-0.056,0.305-0.075,0.465
		c-0.021,0.12-0.03,0.225-0.03,0.314s0,0.176,0,0.255c0,0.041,0,0.07,0,0.091c0,0.02,0,0.05,0,0.09V43.822z"/>
	<path fill="#776155" d="M155.652,29.872h1.2c0.12,0.061,0.234,0.105,0.345,0.135c0.109,0.03,0.215,0.056,0.315,0.075h0.029h0.03
		c0.1-0.02,0.21-0.045,0.33-0.075c0.12-0.029,0.24-0.055,0.36-0.074l1.199-0.03v23.13h-1.199c-0.041,0-0.086,0-0.136,0
		s-0.095-0.01-0.135-0.03c-0.06,0-0.115-0.005-0.165-0.015s-0.095-0.015-0.135-0.015h-0.03h-0.03c-0.02,0-0.04,0-0.06,0
		c-0.12,0.02-0.24,0.035-0.36,0.045s-0.239,0.015-0.359,0.015h-1.2V29.872z"/>
	<path fill="#776155" d="M164.802,32.513c0.079-0.2,0.199-0.37,0.359-0.511c0.16-0.14,0.33-0.244,0.51-0.314
		c0.181-0.07,0.37-0.105,0.57-0.105l1.2-0.03c0.22,0.021,0.43,0.065,0.63,0.136c0.199,0.07,0.39,0.175,0.57,0.314
		c0.18,0.141,0.314,0.315,0.404,0.525c0.091,0.21,0.136,0.455,0.136,0.735c-0.021,0.28-0.086,0.524-0.195,0.734
		c-0.11,0.21-0.245,0.386-0.405,0.525s-0.33,0.245-0.51,0.314c-0.18,0.07-0.37,0.105-0.57,0.105l-1.199-0.03
		c-0.2,0.021-0.396-0.005-0.586-0.075c-0.189-0.069-0.364-0.175-0.524-0.314c-0.18-0.16-0.311-0.346-0.39-0.556
		c-0.081-0.21-0.12-0.444-0.12-0.704v-0.061C164.682,32.943,164.721,32.712,164.802,32.513z M164.922,38.393h1.2
		c0.02,0.04,0.04,0.064,0.061,0.074c0.02,0.011,0.039,0.016,0.06,0.016c0,0.02,0.01,0.03,0.03,0.03c0.02,0,0.04,0,0.06,0
		c0.04,0.02,0.08,0.029,0.12,0.029s0.08,0,0.12,0c0.02,0,0.04,0.006,0.06,0.016c0.021,0.01,0.04,0.015,0.061,0.015
		c0.02,0.021,0.04,0.03,0.06,0.03s0.04,0,0.061,0c0.02,0,0.034,0,0.045,0c0.01,0,0.024,0,0.045,0c0.1-0.02,0.205-0.045,0.314-0.075
		c0.11-0.03,0.205-0.055,0.285-0.075l1.2-0.03v14.61h-1.2c-0.08,0-0.165-0.005-0.255-0.015s-0.185-0.025-0.285-0.045h-0.029h-0.03
		c-0.021,0-0.04,0-0.061,0c-0.119,0.02-0.239,0.035-0.359,0.045s-0.24,0.015-0.36,0.015h-1.2V38.393z"/>
	<path fill="#776155" d="M173.592,40.853c0.26-0.58,0.66-1.051,1.2-1.41c0.54-0.36,1.105-0.63,1.695-0.811
		c0.59-0.18,1.205-0.279,1.845-0.3l1.2-0.03c0.16,0.021,0.311,0.035,0.45,0.046c0.14,0.01,0.29,0.024,0.45,0.045
		c0.14,0.02,0.285,0.04,0.435,0.06c0.15,0.021,0.295,0.05,0.436,0.09c0.279,0.08,0.555,0.17,0.825,0.271
		c0.27,0.1,0.534,0.21,0.795,0.33l-0.721,2.31h-1.199h-0.48c-0.08-0.279-0.205-0.535-0.375-0.765s-0.375-0.425-0.615-0.585
		c-0.18-0.101-0.359-0.19-0.54-0.271c-0.18-0.079-0.359-0.14-0.54-0.18c-0.18,0.021-0.35,0.07-0.51,0.149
		c-0.16,0.081-0.32,0.171-0.479,0.271c-0.261,0.16-0.466,0.36-0.615,0.6c-0.15,0.24-0.256,0.521-0.315,0.841l-0.03,0.09v0.12
		l-0.029,0.149v0.12c0,0.38,0.074,0.71,0.225,0.99s0.375,0.51,0.675,0.689c0.301,0.181,0.62,0.351,0.96,0.511s0.7,0.3,1.08,0.42
		c0.04,0.02,0.075,0.035,0.105,0.045s0.064,0.015,0.104,0.015c0.021,0.021,0.05,0.035,0.091,0.045
		c0.039,0.011,0.079,0.025,0.119,0.045c0.08,0.021,0.155,0.041,0.226,0.061c0.069,0.02,0.145,0.04,0.225,0.06
		c0.04,0.021,0.08,0.04,0.12,0.061c0.04,0.02,0.08,0.04,0.12,0.06c0.04,0.021,0.085,0.035,0.135,0.045
		c0.05,0.011,0.095,0.015,0.136,0.015c0.539,0.2,0.999,0.431,1.38,0.69c0.379,0.26,0.689,0.561,0.93,0.9
		c0.24,0.319,0.42,0.649,0.54,0.989c0.12,0.341,0.189,0.681,0.21,1.021v0.06v0.09c-0.021,0.581-0.17,1.131-0.45,1.65
		c-0.28,0.521-0.68,1.01-1.2,1.47c-0.5,0.461-1.064,0.801-1.694,1.021s-1.325,0.33-2.085,0.33h-1.2
		c-0.421,0-0.825-0.021-1.216-0.061c-0.39-0.04-0.785-0.1-1.185-0.18c-0.38-0.04-0.726-0.135-1.035-0.285
		c-0.311-0.149-0.585-0.345-0.825-0.585l0.721-2.189h1.199h0.48c0.16,0.3,0.325,0.56,0.495,0.779c0.17,0.221,0.345,0.41,0.524,0.57
		c0.181,0.16,0.365,0.3,0.556,0.42c0.189,0.12,0.385,0.21,0.585,0.271c0.04,0.02,0.075,0.035,0.105,0.045
		c0.029,0.01,0.064,0.015,0.104,0.015c0.02,0.021,0.05,0.035,0.09,0.045c0.04,0.011,0.07,0.025,0.09,0.045
		c0.26-0.06,0.505-0.145,0.735-0.255c0.229-0.109,0.445-0.255,0.646-0.435c0.279-0.26,0.504-0.53,0.675-0.811
		c0.169-0.279,0.274-0.57,0.314-0.87v-0.149v-0.12c-0.04-0.439-0.149-0.814-0.33-1.125c-0.18-0.311-0.43-0.545-0.75-0.705
		c-0.319-0.16-0.649-0.305-0.989-0.436c-0.341-0.13-0.701-0.255-1.081-0.375l-0.119-0.06l-0.15-0.03
		c-0.04,0-0.085-0.005-0.135-0.015c-0.051-0.01-0.096-0.025-0.136-0.045c-0.04,0-0.085-0.005-0.135-0.016
		c-0.05-0.01-0.095-0.024-0.135-0.045c-0.04-0.02-0.08-0.034-0.12-0.045c-0.04-0.01-0.08-0.024-0.12-0.045
		c-0.06-0.02-0.11-0.034-0.149-0.045c-0.041-0.01-0.08-0.024-0.12-0.045c-0.36-0.12-0.69-0.28-0.99-0.479
		c-0.3-0.2-0.58-0.431-0.84-0.69c-0.261-0.28-0.455-0.615-0.585-1.005c-0.131-0.391-0.195-0.855-0.195-1.396v-0.06
		C173.202,42.103,173.332,41.433,173.592,40.853z"/>
	<path fill="#776155" d="M186.702,30.112h1.2c0.02,0.04,0.04,0.065,0.06,0.075c0.021,0.01,0.04,0.015,0.061,0.015
		c0,0.021,0.01,0.03,0.03,0.03c0.02,0,0.039,0,0.06,0c0.04,0.02,0.08,0.03,0.12,0.03s0.079,0,0.12,0c0.02,0,0.04,0.005,0.06,0.015
		s0.04,0.015,0.061,0.015c0.02,0.021,0.039,0.03,0.06,0.03c0.02,0,0.04,0,0.06,0c0.021,0,0.035,0,0.046,0c0.01,0,0.024,0,0.045,0
		c0.1-0.02,0.204-0.045,0.314-0.075s0.205-0.055,0.285-0.075l1.2-0.029v9.449c0.16-0.119,0.324-0.244,0.495-0.375
		c0.169-0.13,0.354-0.255,0.555-0.375c0.34-0.22,0.774-0.379,1.305-0.479c0.53-0.1,1.165-0.15,1.905-0.15l1.2-0.029
		c0.64,0.02,1.229,0.16,1.77,0.42s1.021,0.649,1.44,1.17s0.735,1.105,0.945,1.755c0.21,0.65,0.314,1.355,0.314,2.115v9.39h-1.2
		c-0.12,0-0.235-0.005-0.345-0.015c-0.11-0.01-0.215-0.025-0.314-0.045h-0.03c0.02,0,0.02,0,0,0c-0.061,0-0.12,0.005-0.181,0.015
		c-0.06,0.01-0.109,0.015-0.149,0.015c-0.061,0.021-0.12,0.03-0.18,0.03c-0.061,0-0.12,0-0.181,0h-1.2v-9.21
		c0-0.62-0.09-1.175-0.27-1.665s-0.45-0.895-0.81-1.215c-0.281-0.26-0.565-0.47-0.855-0.63s-0.605-0.271-0.945-0.33
		c-0.38,0.08-0.75,0.229-1.109,0.45c-0.36,0.22-0.711,0.5-1.051,0.84c-0.38,0.38-0.659,0.87-0.84,1.47
		c-0.18,0.6-0.27,1.29-0.27,2.07v8.22h-1.2c-0.08,0-0.165-0.005-0.255-0.015s-0.186-0.025-0.285-0.045h-0.03h-0.029
		c-0.021,0-0.041,0-0.061,0c-0.12,0.02-0.24,0.035-0.359,0.045c-0.12,0.01-0.24,0.015-0.36,0.015h-1.2V30.112z"/>
</g>
<g>
	
		<line fill="none" stroke="#776155" stroke-width="4" stroke-linecap="round" stroke-linejoin="round" stroke-miterlimit="10" x1="59.647" y1="42.313" x2="24.906" y2="42.313"/>
	
		<line fill="none" stroke="#776155" stroke-width="4" stroke-linecap="round" stroke-linejoin="round" stroke-miterlimit="10" x1="47.647" y1="54.313" x2="59.647" y2="42.313"/>
	
		<line fill="none" stroke="#776155" stroke-width="4" stroke-linecap="round" stroke-linejoin="round" stroke-miterlimit="10" x1="47.647" y1="30.313" x2="59.647" y2="42.313"/>
</g>
</svg>
