<?xml version="1.0" encoding="utf-8"?>
<!-- Generator: Adobe Illustrator 17.0.0, SVG Export Plug-In . SVG Version: 6.00 Build 0)  -->
<!DOCTYPE svg PUBLIC "-//W3C//DTD SVG 1.1//EN" "http://www.w3.org/Graphics/SVG/1.1/DTD/svg11.dtd">
<svg version="1.1" id="Layer_1" xmlns="http://www.w3.org/2000/svg" xmlns:xlink="http://www.w3.org/1999/xlink" x="0px" y="0px"
	 width="184.252px" height="85.039px" viewBox="0 0 184.252 85.039" enable-background="new 0 0 184.252 85.039"
	 xml:space="preserve">
<g>
	<path fill="#BE1E2D" d="M105.598,31.385c-0.209,0.021-0.323,0.042-0.344,0.063c-1.375,1.438-2.979,2.656-4.813,3.656
		c0.396,0.417,0.604,0.906,0.625,1.469c0,0.021,0,0.042,0,0.063c0,1.438-0.761,2.156-2.281,2.156c-0.646,0-1.063-0.479-1.25-1.438
		c-0.375-1.708-1.178-2.885-2.406-3.531l0.25-0.438c2.021,0.104,3.51,0.521,4.469,1.25c0.583-1.333,1.021-2.771,1.313-4.313H98.88
		c-1.938,0-3.521,0.063-4.75,0.188l-0.625-1.375c1.208,0.229,3.166,0.344,5.875,0.344h1.5c1.375-1.354,2.177-2.031,2.406-2.031
		c0.313,0,1.302,0.761,2.969,2.281h10.031c1.479-1.729,2.291-2.594,2.438-2.594c0.208,0,0.791,0.448,1.75,1.344
		c0.958,0.896,1.438,1.438,1.438,1.625c0,0.271-0.136,0.406-0.406,0.406h-5.75c-1.084,1.604-2.313,2.803-3.688,3.594h4.125
		c1.208-1.166,1.906-1.75,2.094-1.75c0.25,0,0.854,0.365,1.813,1.094c0.958,0.729,1.438,1.209,1.438,1.438
		c0,0.188-0.073,0.323-0.219,0.406c-0.667,0.438-1,0.719-1,0.844v8.344c0,0.646,0.031,2.365,0.094,5.156
		c0,0.625-0.906,0.938-2.719,0.938c-0.792,0-1.188-0.197-1.188-0.594v-0.844h-6.156v0.406c0,0.604-0.99,0.906-2.969,0.906
		c-0.667,0-1-0.208-1-0.625v-0.031c0.083-2.688,0.125-4.771,0.125-6.25v-3c-0.542,0.042-0.834,0.094-0.875,0.156
		c-1.104,1.688-2.313,3.156-3.625,4.406l-0.438-0.188c0.333-1.833,0.5-3.563,0.5-5.188h-1.188v12.813c0,1.416-0.531,2.416-1.594,3
		c-1.063,0.604-1.969,0.906-2.719,0.906c-0.313,0-0.49-0.167-0.531-0.5c-0.188-1.334-0.417-2.167-0.688-2.5
		c-0.271-0.354-0.896-0.719-1.875-1.094l0.094-0.625c1.146,0.083,2.072,0.125,2.781,0.125c0.416,0,0.625-0.229,0.625-0.688V39.728
		h-1.906c-0.625,0-1.303,0.042-2.031,0.125l-0.563-1.281c1.25,0.229,2.729,0.344,4.438,0.344h4.813c1.208-1.5,1.916-2.25,2.125-2.25
		c0.313,0,1.197,0.906,2.656,2.719v-1.156c0-2.188-0.094-3.979-0.281-5.375c1.208,0.271,2.625,0.688,4.25,1.25h0.594
		c0.208-0.979,0.313-2.072,0.313-3.281c0-0.125,0-0.229,0-0.313h-4.531c0.021,0.063,0.031,0.136,0.031,0.219
		C106.88,31.041,106.452,31.26,105.598,31.385z M109.692,50.197c2.75,1.563,4.125,2.479,4.125,2.75c0,0.25-0.146,0.375-0.438,0.375
		c-0.042,0-0.156-0.011-0.344-0.031c-0.417-0.042-0.656-0.063-0.719-0.063c-2.709,2.021-6.094,3.125-10.156,3.313l-0.188-0.438
		C105.661,54.603,108.233,52.635,109.692,50.197z M116.536,34.947h-6.156v3.563h6.156V34.947z M116.536,39.26h-6.156v4.094h6.156
		V39.26z M116.536,44.135h-6.156v4.25h6.156V44.135z M113.317,51.072l0.188-0.406c5.583,0.188,8.375,1.416,8.375,3.688
		c0,1.416-0.604,2.125-1.813,2.125c-0.667,0-1.323-0.553-1.969-1.656C117.161,53.176,115.567,51.926,113.317,51.072z"/>
	<path fill="#BE1E2D" d="M136.06,34.072c-0.521,0-0.958,0.011-1.313,0.031c-0.292,0-0.563,0-0.813,0
		c-1.042,0.021-1.844,0.073-2.406,0.156l-0.594-1.281c1.208,0.229,2.989,0.344,5.344,0.344h3.594
		c1.375-1.708,2.146-2.563,2.313-2.563c0.229,0,0.833,0.438,1.813,1.313s1.469,1.428,1.469,1.656c0,0.229-0.094,0.344-0.281,0.344
		H136.06z M143.342,51.603c0,0.25,0.042,1.406,0.125,3.469c0,0.688-0.948,1.031-2.844,1.031c-0.729,0-1.094-0.198-1.094-0.594
		l0.031-1.688h-3.219l0.031,1.469c0,0.688-0.927,1.031-2.781,1.031c-0.771,0-1.156-0.219-1.156-0.656
		c0.104-2.063,0.156-3.511,0.156-4.344v-1.719c0-1.896-0.094-3.385-0.281-4.469c1.229,0.313,2.667,0.719,4.313,1.219h2.688
		c1.063-1.021,1.698-1.531,1.906-1.531c0.229,0,0.802,0.292,1.719,0.875c0.917,0.584,1.375,1.021,1.375,1.313
		c0,0.167-0.052,0.281-0.156,0.344c-0.563,0.375-0.844,0.656-0.844,0.844L143.342,51.603z M137.592,38.166
		c-0.521,0-0.958,0.011-1.313,0.031c-0.292,0-0.563,0-0.813,0c-1.042,0.021-1.833,0.073-2.375,0.156l-0.625-1.219
		c1.229,0.229,3.011,0.344,5.344,0.344h1.063c1.208-1.541,1.896-2.313,2.063-2.313c0.25,0,0.813,0.406,1.688,1.219
		s1.313,1.292,1.313,1.438c0,0.229-0.083,0.344-0.25,0.344H137.592z M137.592,42.51c-0.521,0-0.958,0-1.313,0
		c-0.292,0.021-0.563,0.031-0.813,0.031c-1.042,0.021-1.833,0.073-2.375,0.156l-0.625-1.219c1.229,0.209,3.011,0.313,5.344,0.313
		h1.063c1.208-1.541,1.896-2.313,2.063-2.313c0.25,0,0.813,0.406,1.688,1.219s1.313,1.292,1.313,1.438
		c0,0.25-0.083,0.375-0.25,0.375H137.592z M134.123,27.697l0.25-0.438c1.458,0.021,2.729,0.313,3.813,0.875
		c1.104,0.542,1.656,1.313,1.656,2.313c0,1.563-0.802,2.344-2.406,2.344c-0.958,0-1.5-0.572-1.625-1.719
		C135.602,29.427,135.04,28.302,134.123,27.697z M139.56,47.135h-3.219v5.938h3.219V47.135z M148.654,30.947
		c-0.5,0-0.938,0.011-1.313,0.031c-0.292,0-0.552,0-0.781,0c-1.042,0.021-1.844,0.073-2.406,0.156l-0.625-1.344
		c1.229,0.209,3.011,0.313,5.344,0.313h5.219c1.583-1.875,2.448-2.813,2.594-2.813c0.25,0,0.917,0.49,2,1.469
		c1.083,0.979,1.625,1.584,1.625,1.813c0,0.25-0.104,0.375-0.313,0.375h-4.844v21.531c0,2-1.5,3.313-4.5,3.938h-0.031
		c-0.25,0.063-0.427,0.094-0.531,0.094c-0.333,0-0.521-0.167-0.563-0.5c-0.208-1.396-0.583-2.323-1.125-2.781
		c-0.542-0.479-1.417-0.823-2.625-1.031l0.094-0.625c1.271,0.083,2.542,0.125,3.813,0.125c0.188,0,0.375,0,0.563,0
		c0.479,0,0.719-0.219,0.719-0.656V30.978L148.654,30.947z"/>
</g>
<g>
	<circle fill="none" stroke="#BE1E2D" stroke-width="4" stroke-miterlimit="10" cx="44.25" cy="42.691" r="24.618"/>
	
		<polyline fill="none" stroke="#BE1E2D" stroke-width="4" stroke-linecap="round" stroke-linejoin="round" stroke-miterlimit="10" points="
		56.018,55.602 44.248,45.837 44.274,31.478 	"/>
</g>
</svg>
