<?xml version="1.0" encoding="utf-8"?>
<!-- Generator: Adobe Illustrator 17.0.0, SVG Export Plug-In . SVG Version: 6.00 Build 0)  -->
<!DOCTYPE svg PUBLIC "-//W3C//DTD SVG 1.1//EN" "http://www.w3.org/Graphics/SVG/1.1/DTD/svg11.dtd">
<svg version="1.1" id="Layer_1" xmlns="http://www.w3.org/2000/svg" xmlns:xlink="http://www.w3.org/1999/xlink" x="0px" y="0px"
	 width="328.819px" height="85.039px" viewBox="0 0 328.819 85.039" enable-background="new 0 0 328.819 85.039"
	 xml:space="preserve">
<g>
	<path fill="#BE1E2D" d="M102.893,32.002h1.2h0.69l9.239,21.03h-1.199c-0.061,0-0.126,0-0.195,0c-0.07,0-0.146,0-0.225,0
		c-0.081,0-0.155,0-0.226,0s-0.155,0-0.255,0c-0.04,0-0.085,0-0.135,0c-0.051,0-0.096-0.01-0.135-0.03c-0.041,0-0.086,0-0.136,0
		s-0.095,0-0.135,0c-0.04,0.021-0.085,0.03-0.135,0.03c-0.051,0-0.096,0-0.135,0c-0.041,0-0.08,0-0.12,0c-0.041,0-0.07,0-0.09,0
		c-0.041,0-0.075,0-0.105,0s-0.065,0-0.104,0h-1.2l-3.3-8.28h-6.12l-3.061,8.28h-1.2c-0.04,0-0.085,0-0.135,0s-0.095,0-0.135,0
		l-0.15-0.03c-0.02,0.021-0.05,0.03-0.09,0.03s-0.07,0-0.09,0c-0.04,0-0.075,0-0.105,0c-0.029,0-0.064,0-0.104,0h-1.2
		c-0.06,0-0.12,0-0.18,0c-0.061,0-0.12,0-0.18,0L102.893,32.002z M105.714,43.342l-2.46-5.88l-2.46,5.88H105.714z"/>
	<path fill="#BE1E2D" d="M115.839,43.223c0.29-1,0.715-1.86,1.275-2.58c0.579-0.721,1.279-1.265,2.1-1.636
		c0.82-0.369,1.76-0.555,2.82-0.555l1.199-0.03c0.021,0.021,0.04,0.03,0.061,0.03c0.02,0,0.05,0,0.09,0
		c0.02,0.021,0.045,0.03,0.075,0.03s0.055,0,0.075,0c0.039,0,0.085,0,0.135,0s0.104,0,0.165,0c0.399,0.06,0.795,0.149,1.185,0.27
		c0.391,0.12,0.766,0.28,1.125,0.48c0.04,0.02,0.075,0.04,0.105,0.06c0.03,0.021,0.064,0.041,0.104,0.061
		c0.021,0.02,0.05,0.04,0.091,0.06c0.039,0.021,0.069,0.04,0.09,0.061v-9.12h1.199c0.101,0.06,0.205,0.104,0.315,0.135
		c0.109,0.03,0.215,0.056,0.315,0.075h0.029h0.03c0.1-0.02,0.21-0.045,0.33-0.075s0.24-0.055,0.36-0.075l1.199-0.03v22.65h-1.199
		c-0.08,0-0.165-0.005-0.256-0.015c-0.09-0.01-0.185-0.025-0.284-0.045h-0.03h-0.03c-0.02,0-0.04,0-0.06,0
		c-0.12,0.02-0.24,0.035-0.36,0.045s-0.24,0.015-0.36,0.015h-1.199v-1.26c-0.12,0.14-0.245,0.26-0.375,0.359
		c-0.131,0.101-0.266,0.19-0.405,0.271c-0.36,0.22-0.716,0.396-1.065,0.524c-0.35,0.13-0.694,0.226-1.034,0.285
		c-0.041,0-0.081,0-0.12,0c-0.041,0-0.08,0.01-0.12,0.03c-0.04,0-0.075,0-0.105,0c-0.029,0-0.064,0-0.104,0c-0.041,0-0.08,0-0.12,0
		s-0.07,0.01-0.09,0.03c-0.041,0-0.075,0-0.105,0s-0.065,0-0.104,0h-1.2c-0.8,0-1.561-0.146-2.28-0.436
		c-0.72-0.289-1.4-0.744-2.04-1.364c-0.62-0.641-1.085-1.335-1.395-2.085c-0.311-0.75-0.465-1.556-0.465-2.415v-0.15v-0.15v-0.029
		C115.404,45.363,115.549,44.223,115.839,43.223z M119.454,46.193c0,0.8,0.055,1.49,0.165,2.07c0.109,0.58,0.274,1.069,0.495,1.47
		c0.22,0.4,0.459,0.745,0.72,1.035c0.26,0.29,0.52,0.515,0.78,0.675c0.079,0.04,0.154,0.08,0.225,0.12s0.145,0.08,0.225,0.12
		c0.061,0.04,0.125,0.07,0.195,0.09s0.145,0.04,0.225,0.06c0.101,0.021,0.186,0.035,0.256,0.045
		c0.069,0.011,0.135,0.016,0.194,0.016c0.44-0.08,0.855-0.24,1.245-0.48c0.391-0.24,0.755-0.57,1.095-0.99
		c0.421-0.52,0.735-1.145,0.945-1.875c0.21-0.729,0.315-1.574,0.315-2.534c0-0.16-0.006-0.34-0.016-0.54s-0.025-0.4-0.045-0.601
		c-0.02-0.22-0.045-0.439-0.075-0.66c-0.029-0.22-0.064-0.449-0.104-0.689c-0.101-0.46-0.245-0.9-0.436-1.32
		c-0.189-0.42-0.425-0.819-0.704-1.2c-0.221-0.319-0.501-0.569-0.841-0.75c-0.34-0.18-0.729-0.3-1.17-0.359
		c-0.54,0.08-1.015,0.22-1.425,0.42s-0.735,0.479-0.975,0.84c-0.261,0.38-0.48,0.785-0.66,1.215c-0.18,0.431-0.32,0.875-0.42,1.335
		c-0.061,0.24-0.105,0.471-0.135,0.69c-0.03,0.22-0.046,0.439-0.046,0.659c-0.02,0.221-0.029,0.426-0.029,0.615
		c0,0.19,0,0.375,0,0.556V46.193z"/>
	<path fill="#BE1E2D" d="M136.944,38.632c0.1,0.381,0.215,0.771,0.345,1.17c0.13,0.4,0.265,0.82,0.405,1.261
		c0.079,0.22,0.159,0.439,0.24,0.66c0.079,0.22,0.159,0.439,0.239,0.659c0.08,0.24,0.165,0.471,0.255,0.69
		c0.091,0.221,0.175,0.44,0.256,0.66c0.079,0.2,0.154,0.4,0.225,0.6c0.069,0.2,0.145,0.4,0.225,0.601s0.16,0.4,0.24,0.6
		c0.08,0.2,0.16,0.39,0.24,0.57c0.16,0.38,0.319,0.75,0.479,1.109c0.16,0.36,0.32,0.711,0.48,1.051
		c0.04,0.1,0.085,0.194,0.135,0.284c0.05,0.091,0.095,0.186,0.135,0.285c0.021-0.04,0.04-0.079,0.061-0.12
		c0.02-0.039,0.04-0.079,0.06-0.12c0.02-0.06,0.04-0.109,0.061-0.149c0.02-0.04,0.039-0.09,0.06-0.15
		c0.16-0.34,0.319-0.699,0.48-1.08c0.159-0.379,0.33-0.77,0.51-1.17c0.02-0.06,0.04-0.12,0.06-0.18c0.02-0.061,0.04-0.12,0.061-0.18
		c0.02-0.04,0.045-0.091,0.075-0.15c0.029-0.06,0.055-0.12,0.074-0.18c0.04-0.12,0.085-0.24,0.136-0.36
		c0.049-0.12,0.095-0.24,0.135-0.36c0.24-0.619,0.47-1.22,0.689-1.8c0.221-0.58,0.431-1.149,0.631-1.71
		c0.199-0.56,0.364-1.039,0.494-1.439s0.226-0.73,0.285-0.99l2.13-0.061h1.2c-0.26,0.561-0.505,1.101-0.734,1.62
		c-0.23,0.521-0.456,1.03-0.676,1.53s-0.435,1-0.645,1.5s-0.426,0.99-0.646,1.47c-0.1,0.221-0.194,0.44-0.284,0.66
		c-0.091,0.221-0.186,0.44-0.285,0.66c-0.041,0.101-0.086,0.205-0.136,0.315c-0.05,0.109-0.095,0.215-0.135,0.314
		c-0.04,0.12-0.085,0.235-0.135,0.345c-0.05,0.11-0.095,0.216-0.135,0.315c-0.181,0.46-0.365,0.925-0.556,1.395
		c-0.189,0.471-0.385,0.945-0.585,1.426c-0.2,0.479-0.395,0.96-0.585,1.439c-0.19,0.48-0.385,0.95-0.585,1.41h-1.2
		c-0.06,0-0.119,0-0.18,0c-0.06,0-0.12-0.01-0.18-0.03h-0.03c-0.06,0-0.115,0.006-0.165,0.016s-0.095,0.015-0.135,0.015h-1.2
		l-6.149-14.4h1.199H136.944z"/>
	<path fill="#BE1E2D" d="M150.384,48.473c0.14-0.4,0.35-0.771,0.63-1.11s0.665-0.646,1.155-0.915
		c0.49-0.271,1.085-0.495,1.785-0.675l3.78-0.78c0.22-0.02,0.414-0.075,0.585-0.165c0.169-0.09,0.305-0.205,0.404-0.345
		c0.101-0.16,0.175-0.33,0.226-0.51c0.05-0.181,0.074-0.37,0.074-0.57c0-0.04,0-0.075,0-0.105c0-0.029,0-0.064,0-0.104
		c-0.02-0.04-0.029-0.08-0.029-0.12s0-0.08,0-0.12c-0.021-0.08-0.035-0.16-0.045-0.24c-0.011-0.079-0.035-0.159-0.075-0.239
		c-0.101-0.32-0.25-0.631-0.45-0.931s-0.44-0.58-0.72-0.84c-0.221-0.22-0.465-0.399-0.735-0.54c-0.27-0.14-0.565-0.229-0.885-0.27
		c-0.141,0.02-0.271,0.05-0.39,0.09c-0.12,0.04-0.24,0.08-0.36,0.12c-0.18,0.08-0.36,0.17-0.54,0.27
		c-0.18,0.101-0.36,0.221-0.54,0.36c-0.101,0.08-0.2,0.17-0.3,0.27c-0.101,0.101-0.2,0.2-0.3,0.3
		c-0.101,0.101-0.206,0.211-0.315,0.33c-0.11,0.12-0.215,0.24-0.315,0.36l-1.199-0.03l-0.45-0.029v-1.65
		c0.04,0,0.09-0.015,0.149-0.045c0.061-0.03,0.12-0.055,0.181-0.075c0.06-0.04,0.12-0.079,0.18-0.12
		c0.061-0.04,0.12-0.079,0.18-0.12c0.28-0.159,0.575-0.305,0.886-0.435c0.31-0.13,0.645-0.265,1.005-0.405
		c0.359-0.12,0.734-0.215,1.125-0.285c0.39-0.069,0.805-0.104,1.245-0.104l1.199-0.03c0.88,0.021,1.65,0.125,2.311,0.315
		s1.2,0.475,1.62,0.854s0.734,0.891,0.944,1.53c0.211,0.641,0.315,1.4,0.315,2.28v7.5c0,0.2,0.015,0.354,0.045,0.465
		s0.085,0.194,0.165,0.255c0.02,0,0.035,0.005,0.045,0.015c0.01,0.011,0.025,0.016,0.045,0.016c0,0.02,0.005,0.035,0.016,0.045
		c0.01,0.01,0.024,0.015,0.045,0.015c0.02,0,0.039-0.01,0.06-0.03h0.03l1.2-0.029v0.659c-0.101,0.12-0.206,0.216-0.315,0.285
		c-0.11,0.07-0.225,0.125-0.345,0.165c-0.061,0.021-0.12,0.03-0.181,0.03c-0.06,0-0.119,0.01-0.18,0.03
		c-0.08,0.02-0.149,0.034-0.21,0.045c-0.06,0.01-0.12,0.015-0.18,0.015l-0.15,0.03h-1.2h-0.149c-0.3,0-0.591-0.035-0.87-0.105
		c-0.28-0.069-0.54-0.175-0.78-0.314c-0.12-0.08-0.229-0.165-0.33-0.255c-0.1-0.09-0.19-0.185-0.27-0.285
		c-0.3,0.22-0.596,0.41-0.885,0.57c-0.291,0.16-0.575,0.279-0.855,0.359c-0.34,0.12-0.675,0.21-1.005,0.271
		c-0.33,0.06-0.646,0.09-0.945,0.09h-1.2c-0.6,0-1.145-0.086-1.635-0.255c-0.49-0.171-0.935-0.425-1.335-0.766
		c-0.38-0.359-0.67-0.765-0.87-1.215s-0.3-0.935-0.3-1.455v-0.06C150.174,49.294,150.244,48.873,150.384,48.473z M158.933,46.103
		c-0.8,0.14-1.495,0.29-2.085,0.449c-0.59,0.161-1.085,0.351-1.484,0.57c-0.48,0.261-0.846,0.58-1.096,0.96s-0.375,0.83-0.375,1.351
		c0,0.08,0,0.154,0,0.225s0.01,0.135,0.03,0.195c0,0.06,0.005,0.125,0.015,0.194c0.011,0.07,0.025,0.146,0.046,0.226l0.029,0.149
		l0.09,0.15c0.101,0.2,0.226,0.38,0.375,0.54c0.15,0.16,0.346,0.32,0.585,0.479c0.16,0.101,0.325,0.181,0.495,0.24
		c0.17,0.061,0.355,0.11,0.556,0.15c0.039,0,0.069,0,0.09,0c0.02,0,0.05-0.01,0.09-0.03c0.02,0,0.045-0.005,0.075-0.015
		c0.029-0.01,0.055-0.016,0.075-0.016c0.159-0.039,0.319-0.095,0.479-0.165c0.16-0.069,0.319-0.154,0.48-0.255
		c0.119-0.079,0.244-0.169,0.375-0.27c0.13-0.1,0.265-0.21,0.404-0.33c0.061-0.061,0.12-0.12,0.181-0.18
		c0.06-0.061,0.13-0.13,0.21-0.21c0.06-0.08,0.12-0.16,0.18-0.24s0.12-0.16,0.18-0.24v-0.06V46.103z"/>
	<path fill="#BE1E2D" d="M167.454,38.393h1.2c0.06,0.04,0.135,0.074,0.225,0.104s0.175,0.056,0.255,0.075c0.02,0,0.04,0,0.061,0
		c0.02,0,0.039,0,0.06,0c0,0.021,0.01,0.03,0.03,0.03c0.02,0,0.04,0,0.06,0h0.03h0.03c0.12-0.02,0.234-0.045,0.345-0.075
		c0.109-0.03,0.205-0.055,0.285-0.075l1.2-0.03v1.17c0.18-0.14,0.375-0.279,0.585-0.42c0.21-0.14,0.444-0.279,0.705-0.42
		c0.319-0.18,0.689-0.314,1.109-0.404c0.42-0.091,0.88-0.136,1.38-0.136l1.2-0.029h0.03h0.06c0.58,0.04,1.135,0.18,1.665,0.42
		c0.53,0.239,1.035,0.59,1.516,1.05c0.479,0.46,0.84,1.08,1.08,1.86c0.239,0.779,0.359,1.729,0.359,2.85v8.67h-1.2
		c-0.04,0-0.08,0-0.12,0s-0.08-0.01-0.119-0.03c-0.061,0-0.11-0.005-0.15-0.015s-0.08-0.015-0.12-0.015h-0.03h-0.029
		c-0.12,0.02-0.245,0.035-0.375,0.045c-0.131,0.01-0.275,0.015-0.436,0.015h-1.2v-8.73c0-0.68-0.09-1.284-0.27-1.814
		c-0.18-0.529-0.44-0.975-0.78-1.335c-0.26-0.28-0.54-0.505-0.84-0.675s-0.61-0.285-0.93-0.346c-0.36,0.08-0.705,0.221-1.035,0.42
		c-0.33,0.2-0.646,0.471-0.945,0.811c-0.38,0.38-0.66,0.86-0.84,1.439c-0.18,0.581-0.27,1.251-0.27,2.011v8.22h-1.2
		c-0.12,0-0.235-0.005-0.345-0.015c-0.11-0.01-0.216-0.025-0.315-0.045h-0.03c0.02,0,0.02,0,0,0c-0.06,0-0.12,0.005-0.18,0.015
		c-0.061,0.01-0.11,0.015-0.15,0.015c-0.06,0.021-0.12,0.03-0.18,0.03s-0.12,0-0.18,0h-1.2V38.393z"/>
	<path fill="#BE1E2D" d="M184.718,43.177c0.33-0.909,0.825-1.704,1.485-2.385c0.659-0.699,1.494-1.225,2.505-1.575
		c1.01-0.35,2.194-0.524,3.555-0.524l1.2-0.03c0.359,0.021,0.694,0.045,1.005,0.075c0.31,0.03,0.595,0.075,0.854,0.135
		c0.24,0.061,0.48,0.12,0.721,0.18c0.24,0.061,0.479,0.141,0.72,0.24c0.04,0.021,0.085,0.041,0.135,0.061s0.105,0.04,0.165,0.06
		c0.04,0.04,0.085,0.07,0.135,0.09c0.05,0.021,0.095,0.041,0.136,0.061c0.1,0.06,0.199,0.115,0.3,0.165
		c0.1,0.05,0.21,0.095,0.33,0.135l-0.48,2.07h-1.199h-0.48c-0.24-0.32-0.495-0.61-0.765-0.87c-0.271-0.26-0.565-0.48-0.886-0.66
		c-0.26-0.14-0.529-0.255-0.81-0.345c-0.28-0.091-0.59-0.146-0.93-0.165c-0.62,0.08-1.176,0.274-1.665,0.585
		c-0.49,0.31-0.915,0.745-1.275,1.305c-0.4,0.62-0.7,1.285-0.9,1.995c-0.199,0.71-0.3,1.445-0.3,2.205
		c0,0.78,0.105,1.525,0.315,2.234c0.21,0.711,0.524,1.386,0.945,2.025c0.379,0.561,0.844,1,1.395,1.32
		c0.55,0.32,1.195,0.51,1.935,0.569c0.32-0.039,0.62-0.09,0.9-0.149c0.28-0.061,0.54-0.15,0.78-0.271
		c0.319-0.159,0.63-0.35,0.93-0.569s0.6-0.46,0.9-0.721l0.06-0.12l0.09-0.06h1.2l0.24,0.18l-0.24,1.44
		c-0.32,0.28-0.67,0.521-1.05,0.72c-0.38,0.2-0.771,0.351-1.17,0.45c-0.42,0.1-0.84,0.185-1.26,0.255
		c-0.421,0.07-0.841,0.105-1.261,0.105h-1.199h-0.091h-0.09c-0.92-0.021-1.805-0.176-2.655-0.466
		c-0.85-0.289-1.654-0.725-2.414-1.305c-0.78-0.58-1.36-1.295-1.74-2.145c-0.381-0.851-0.57-1.825-0.57-2.926v-0.09v-0.09v-0.06
		v-0.09v-0.03C184.223,45.093,184.388,44.088,184.718,43.177z"/>
	<path fill="#BE1E2D" d="M200.798,43.058c0.33-0.971,0.835-1.775,1.516-2.415c0.68-0.641,1.425-1.125,2.234-1.455
		c0.811-0.33,1.685-0.495,2.625-0.495l1.2-0.03c0.84,0.021,1.59,0.135,2.25,0.345s1.21,0.516,1.65,0.915
		c0.459,0.42,0.85,0.855,1.17,1.306c0.319,0.449,0.569,0.925,0.75,1.425c0.06,0.2,0.12,0.405,0.18,0.615s0.1,0.425,0.12,0.645
		c0.04,0.2,0.069,0.396,0.09,0.585c0.02,0.19,0.03,0.365,0.03,0.525c0,0.06,0,0.11,0,0.149c0,0.041,0,0.091,0,0.15
		c-0.021,0.04-0.03,0.08-0.03,0.12s0,0.08,0,0.12c0,0.08-0.005,0.16-0.015,0.239c-0.011,0.081-0.025,0.15-0.045,0.211l-1.2-0.03
		l-8.97-0.03c0,0.92,0.09,1.74,0.27,2.46s0.45,1.351,0.81,1.89c0.32,0.48,0.771,0.855,1.351,1.125c0.58,0.271,1.27,0.426,2.07,0.466
		c0.319-0.021,0.634-0.07,0.944-0.15c0.31-0.08,0.615-0.189,0.915-0.33c0.4-0.16,0.755-0.354,1.065-0.585
		c0.31-0.229,0.585-0.495,0.825-0.795l1.199-0.03l0.24,1.62l-0.06,0.09l-0.061,0.03l-0.18,0.12l-0.18,0.12
		c-0.32,0.22-0.646,0.42-0.976,0.6c-0.33,0.181-0.675,0.33-1.035,0.45c-0.359,0.16-0.785,0.28-1.274,0.36
		c-0.49,0.079-1.046,0.12-1.665,0.12h-1.2c-1.24-0.061-2.306-0.275-3.195-0.646s-1.604-0.904-2.145-1.604s-0.955-1.45-1.245-2.25
		s-0.465-1.641-0.525-2.521v-0.06C200.302,45.153,200.467,44.028,200.798,43.058z M210.953,44.648c0-0.05,0-0.105,0-0.165
		c0-0.04,0-0.07,0-0.09c0-0.021,0-0.05,0-0.091c-0.021-0.02-0.03-0.045-0.03-0.074c0-0.03,0-0.055,0-0.075
		c-0.02-0.54-0.104-1.055-0.255-1.545s-0.365-0.955-0.645-1.396c-0.221-0.379-0.516-0.68-0.886-0.899s-0.814-0.36-1.335-0.42
		c-0.38,0.06-0.734,0.18-1.064,0.359c-0.33,0.181-0.626,0.42-0.885,0.721c-0.32,0.38-0.591,0.77-0.811,1.17
		c-0.221,0.4-0.39,0.83-0.51,1.29c-0.021,0.119-0.045,0.239-0.075,0.359s-0.056,0.24-0.075,0.36s-0.029,0.235-0.029,0.345
		c0,0.11,0,0.215,0,0.315l6.6-0.061C210.953,44.733,210.953,44.698,210.953,44.648z"/>
	<path fill="#BE1E2D" d="M226.342,42.398c0-0.09,0-0.175,0-0.255c0-0.101,0.005-0.2,0.015-0.301c0.011-0.1,0.025-0.199,0.046-0.3
		c0.119-1.2,0.449-2.354,0.989-3.465s1.29-2.175,2.25-3.195c0.94-1.02,2.101-1.784,3.48-2.295c1.38-0.51,2.979-0.765,4.8-0.765
		l1.2-0.03c1.84,0.08,3.415,0.33,4.725,0.75s2.365,1.04,3.165,1.86c0.8,0.8,1.455,1.64,1.965,2.52
		c0.511,0.881,0.875,1.801,1.096,2.761c0.039,0.119,0.069,0.239,0.09,0.359c0.02,0.12,0.04,0.23,0.06,0.33
		c0.02,0.12,0.04,0.24,0.061,0.36c0.02,0.12,0.039,0.24,0.06,0.359c0.04,0.24,0.064,0.476,0.075,0.705
		c0.01,0.23,0.024,0.455,0.045,0.676v0.06v0.09v0.12v0.09c0,1.681-0.285,3.176-0.855,4.485c-0.569,1.31-1.435,2.435-2.595,3.375
		c-1.16,0.96-2.396,1.67-3.705,2.13s-2.695,0.69-4.154,0.69h-1.2c-0.041,0-0.08,0-0.12,0s-0.08,0-0.12,0s-0.085,0-0.135,0
		c-0.051,0-0.096,0-0.136,0c-0.26,0-0.515-0.006-0.765-0.016s-0.505-0.035-0.765-0.075c-0.261-0.02-0.521-0.06-0.78-0.12
		c-0.26-0.06-0.521-0.119-0.78-0.18c-1-0.22-1.96-0.6-2.88-1.14s-1.8-1.22-2.64-2.04s-1.466-1.835-1.875-3.045
		c-0.41-1.21-0.615-2.605-0.615-4.186v-0.06C226.342,42.573,226.342,42.488,226.342,42.398z M230.632,42.683
		c0,1.56,0.195,2.935,0.585,4.125c0.39,1.189,0.985,2.205,1.785,3.045c0.72,0.76,1.534,1.35,2.445,1.77
		c0.909,0.42,1.914,0.66,3.015,0.72c1.02-0.06,1.955-0.3,2.805-0.72c0.851-0.42,1.615-1.01,2.295-1.77
		c0.76-0.84,1.36-1.86,1.801-3.061c0.439-1.2,0.72-2.56,0.84-4.08c0-0.039,0-0.085,0-0.135s0-0.085,0-0.104c0-0.04,0-0.08,0-0.12
		s0-0.08,0-0.12c0-1.3-0.195-2.5-0.585-3.601c-0.391-1.1-0.976-2.089-1.755-2.97c-0.74-0.8-1.575-1.42-2.506-1.86
		c-0.93-0.439-1.955-0.689-3.074-0.75c-0.98,0.061-1.86,0.266-2.641,0.615c-0.779,0.351-1.439,0.846-1.979,1.485
		c-0.601,0.72-1.105,1.47-1.516,2.25s-0.734,1.59-0.975,2.43c-0.06,0.261-0.12,0.51-0.18,0.75c-0.061,0.24-0.11,0.48-0.15,0.72
		c-0.04,0.24-0.075,0.48-0.104,0.721c-0.03,0.24-0.065,0.47-0.105,0.689V42.683z"/>
	<path fill="#BE1E2D" d="M253.792,38.632h1.2c0.06,0.041,0.12,0.075,0.18,0.105s0.13,0.056,0.21,0.075c0.02,0,0.035,0,0.045,0
		s0.025,0,0.045,0c0.02,0.02,0.035,0.029,0.045,0.029s0.025,0,0.045,0c0.04,0,0.085-0.004,0.136-0.015
		c0.049-0.01,0.104-0.024,0.165-0.045c0.039-0.02,0.084-0.035,0.135-0.045c0.05-0.01,0.095-0.025,0.135-0.045l1.2-0.03v1.14
		c0.04-0.02,0.085-0.049,0.135-0.09c0.05-0.039,0.095-0.09,0.135-0.149c0.04-0.04,0.085-0.08,0.136-0.12
		c0.049-0.04,0.104-0.08,0.165-0.12c0.359-0.3,0.744-0.525,1.154-0.675c0.41-0.15,0.855-0.226,1.335-0.226l1.2-0.029
		c0.04,0.02,0.08,0.029,0.12,0.029s0.08,0,0.12,0c0.02,0,0.04,0,0.06,0s0.04,0,0.061,0c0.02,0.021,0.04,0.03,0.06,0.03
		s0.04,0,0.061,0l-0.24,2.76h-1.2c-0.14-0.039-0.285-0.09-0.435-0.149c-0.15-0.061-0.296-0.101-0.436-0.12
		c-0.02,0-0.04-0.005-0.06-0.016c-0.021-0.01-0.041-0.015-0.061-0.015c-0.04,0-0.07-0.005-0.09-0.015
		c-0.021-0.01-0.04-0.016-0.06-0.016c-0.2,0.061-0.391,0.15-0.57,0.271s-0.34,0.27-0.48,0.45c-0.22,0.26-0.404,0.54-0.555,0.84
		c-0.149,0.3-0.275,0.61-0.375,0.93c-0.02,0.12-0.045,0.235-0.075,0.345c-0.029,0.11-0.055,0.216-0.074,0.315
		c-0.021,0.101-0.03,0.195-0.03,0.285s0,0.185,0,0.285v8.43h-1.2c-0.06,0-0.125,0-0.195,0s-0.145-0.01-0.225-0.03
		c-0.021,0-0.035,0-0.045,0c-0.011,0-0.015-0.01-0.015-0.029c-0.021,0-0.035,0-0.046,0c-0.01,0-0.024,0-0.045,0
		c-0.1,0.02-0.194,0.035-0.284,0.045c-0.091,0.01-0.186,0.015-0.285,0.015h-1.2V38.632z"/>
	<path fill="#BE1E2D" d="M263.917,43.223c0.289-1,0.715-1.86,1.274-2.58c0.58-0.721,1.28-1.265,2.101-1.636
		c0.819-0.369,1.76-0.555,2.819-0.555l1.2-0.03c0.02,0.021,0.04,0.03,0.061,0.03c0.02,0,0.05,0,0.09,0
		c0.02,0.021,0.045,0.03,0.075,0.03c0.029,0,0.055,0,0.074,0c0.04,0,0.085,0,0.136,0c0.05,0,0.104,0,0.165,0
		c0.399,0.06,0.795,0.149,1.185,0.27s0.765,0.28,1.125,0.48c0.04,0.02,0.075,0.04,0.105,0.06c0.029,0.021,0.064,0.041,0.104,0.061
		c0.02,0.02,0.05,0.04,0.09,0.06c0.04,0.021,0.07,0.04,0.09,0.061v-9.12h1.2c0.1,0.06,0.205,0.104,0.315,0.135
		c0.109,0.03,0.215,0.056,0.314,0.075h0.03h0.03c0.1-0.02,0.21-0.045,0.33-0.075s0.239-0.055,0.359-0.075l1.2-0.03v22.65h-1.2
		c-0.08,0-0.165-0.005-0.255-0.015s-0.185-0.025-0.285-0.045h-0.029h-0.03c-0.021,0-0.04,0-0.06,0c-0.12,0.02-0.24,0.035-0.36,0.045
		s-0.24,0.015-0.36,0.015h-1.2v-1.26c-0.119,0.14-0.245,0.26-0.375,0.359c-0.13,0.101-0.265,0.19-0.404,0.271
		c-0.36,0.22-0.716,0.396-1.065,0.524c-0.35,0.13-0.695,0.226-1.035,0.285c-0.04,0-0.08,0-0.12,0s-0.08,0.01-0.119,0.03
		c-0.041,0-0.075,0-0.105,0s-0.065,0-0.104,0c-0.041,0-0.081,0-0.12,0c-0.041,0-0.07,0.01-0.091,0.03c-0.04,0-0.074,0-0.104,0
		s-0.065,0-0.105,0h-1.199c-0.801,0-1.561-0.146-2.28-0.436c-0.72-0.289-1.4-0.744-2.04-1.364c-0.62-0.641-1.085-1.335-1.396-2.085
		c-0.31-0.75-0.465-1.556-0.465-2.415v-0.15v-0.15v-0.029C263.481,45.363,263.627,44.223,263.917,43.223z M267.532,46.193
		c0,0.8,0.055,1.49,0.164,2.07c0.11,0.58,0.275,1.069,0.495,1.47s0.46,0.745,0.721,1.035c0.26,0.29,0.52,0.515,0.779,0.675
		c0.08,0.04,0.155,0.08,0.226,0.12c0.069,0.04,0.145,0.08,0.225,0.12c0.061,0.04,0.125,0.07,0.195,0.09
		c0.069,0.02,0.145,0.04,0.225,0.06c0.1,0.021,0.185,0.035,0.255,0.045c0.07,0.011,0.136,0.016,0.195,0.016
		c0.439-0.08,0.855-0.24,1.245-0.48s0.755-0.57,1.095-0.99c0.42-0.52,0.735-1.145,0.945-1.875c0.21-0.729,0.314-1.574,0.314-2.534
		c0-0.16-0.005-0.34-0.015-0.54s-0.025-0.4-0.045-0.601c-0.021-0.22-0.045-0.439-0.075-0.66c-0.03-0.22-0.065-0.449-0.104-0.689
		c-0.101-0.46-0.245-0.9-0.436-1.32s-0.425-0.819-0.705-1.2c-0.22-0.319-0.5-0.569-0.84-0.75c-0.34-0.18-0.73-0.3-1.17-0.359
		c-0.54,0.08-1.016,0.22-1.425,0.42c-0.41,0.2-0.735,0.479-0.976,0.84c-0.26,0.38-0.479,0.785-0.659,1.215
		c-0.181,0.431-0.32,0.875-0.42,1.335c-0.061,0.24-0.105,0.471-0.136,0.69c-0.029,0.22-0.045,0.439-0.045,0.659
		c-0.02,0.221-0.029,0.426-0.029,0.615c0,0.19,0,0.375,0,0.556V46.193z"/>
	<path fill="#BE1E2D" d="M281.946,43.058c0.33-0.971,0.835-1.775,1.516-2.415c0.68-0.641,1.425-1.125,2.234-1.455
		c0.811-0.33,1.685-0.495,2.625-0.495l1.2-0.03c0.84,0.021,1.59,0.135,2.25,0.345s1.21,0.516,1.65,0.915
		c0.459,0.42,0.85,0.855,1.17,1.306c0.319,0.449,0.569,0.925,0.75,1.425c0.06,0.2,0.12,0.405,0.18,0.615s0.1,0.425,0.12,0.645
		c0.04,0.2,0.069,0.396,0.09,0.585c0.02,0.19,0.03,0.365,0.03,0.525c0,0.06,0,0.11,0,0.149c0,0.041,0,0.091,0,0.15
		c-0.021,0.04-0.03,0.08-0.03,0.12s0,0.08,0,0.12c0,0.08-0.005,0.16-0.015,0.239c-0.011,0.081-0.025,0.15-0.045,0.211l-1.2-0.03
		l-8.97-0.03c0,0.92,0.09,1.74,0.27,2.46s0.45,1.351,0.81,1.89c0.32,0.48,0.771,0.855,1.351,1.125c0.58,0.271,1.27,0.426,2.07,0.466
		c0.319-0.021,0.634-0.07,0.944-0.15c0.31-0.08,0.615-0.189,0.915-0.33c0.4-0.16,0.755-0.354,1.065-0.585
		c0.31-0.229,0.585-0.495,0.825-0.795l1.199-0.03l0.24,1.62l-0.06,0.09l-0.061,0.03l-0.18,0.12l-0.18,0.12
		c-0.32,0.22-0.646,0.42-0.976,0.6c-0.33,0.181-0.675,0.33-1.035,0.45c-0.359,0.16-0.785,0.28-1.274,0.36
		c-0.49,0.079-1.046,0.12-1.665,0.12h-1.2c-1.24-0.061-2.306-0.275-3.195-0.646s-1.604-0.904-2.145-1.604s-0.955-1.45-1.245-2.25
		s-0.465-1.641-0.525-2.521v-0.06C281.451,45.153,281.616,44.028,281.946,43.058z M292.101,44.648c0-0.05,0-0.105,0-0.165
		c0-0.04,0-0.07,0-0.09c0-0.021,0-0.05,0-0.091c-0.021-0.02-0.03-0.045-0.03-0.074c0-0.03,0-0.055,0-0.075
		c-0.02-0.54-0.104-1.055-0.255-1.545s-0.365-0.955-0.645-1.396c-0.221-0.379-0.516-0.68-0.886-0.899s-0.814-0.36-1.335-0.42
		c-0.38,0.06-0.734,0.18-1.064,0.359c-0.33,0.181-0.626,0.42-0.885,0.721c-0.32,0.38-0.591,0.77-0.811,1.17
		c-0.221,0.4-0.39,0.83-0.51,1.29c-0.021,0.119-0.045,0.239-0.075,0.359s-0.056,0.24-0.075,0.36s-0.029,0.235-0.029,0.345
		c0,0.11,0,0.215,0,0.315l6.6-0.061C292.101,44.733,292.101,44.698,292.101,44.648z"/>
	<path fill="#BE1E2D" d="M299.211,38.632h1.2c0.06,0.041,0.12,0.075,0.18,0.105s0.13,0.056,0.21,0.075c0.02,0,0.035,0,0.045,0
		s0.025,0,0.045,0c0.02,0.02,0.035,0.029,0.045,0.029s0.025,0,0.045,0c0.04,0,0.085-0.004,0.136-0.015
		c0.049-0.01,0.104-0.024,0.165-0.045c0.039-0.02,0.084-0.035,0.135-0.045c0.05-0.01,0.095-0.025,0.135-0.045l1.2-0.03v1.14
		c0.04-0.02,0.085-0.049,0.135-0.09c0.05-0.039,0.095-0.09,0.135-0.149c0.04-0.04,0.085-0.08,0.136-0.12
		c0.049-0.04,0.104-0.08,0.165-0.12c0.359-0.3,0.744-0.525,1.154-0.675c0.41-0.15,0.855-0.226,1.335-0.226l1.2-0.029
		c0.04,0.02,0.08,0.029,0.12,0.029s0.08,0,0.12,0c0.02,0,0.04,0,0.06,0s0.04,0,0.061,0c0.02,0.021,0.04,0.03,0.06,0.03
		s0.04,0,0.061,0l-0.24,2.76h-1.2c-0.14-0.039-0.285-0.09-0.435-0.149c-0.15-0.061-0.296-0.101-0.436-0.12
		c-0.02,0-0.04-0.005-0.06-0.016c-0.021-0.01-0.041-0.015-0.061-0.015c-0.04,0-0.07-0.005-0.09-0.015
		c-0.021-0.01-0.04-0.016-0.06-0.016c-0.2,0.061-0.391,0.15-0.57,0.271s-0.34,0.27-0.48,0.45c-0.22,0.26-0.404,0.54-0.555,0.84
		c-0.149,0.3-0.275,0.61-0.375,0.93c-0.02,0.12-0.045,0.235-0.075,0.345c-0.029,0.11-0.055,0.216-0.074,0.315
		c-0.021,0.101-0.03,0.195-0.03,0.285s0,0.185,0,0.285v8.43h-1.2c-0.06,0-0.125,0-0.195,0s-0.145-0.01-0.225-0.03
		c-0.021,0-0.035,0-0.045,0c-0.011,0-0.015-0.01-0.015-0.029c-0.021,0-0.035,0-0.046,0c-0.01,0-0.024,0-0.045,0
		c-0.1,0.02-0.194,0.035-0.284,0.045c-0.091,0.01-0.186,0.015-0.285,0.015h-1.2V38.632z"/>
</g>
<circle fill="none" stroke="#BE1E2D" stroke-width="4" stroke-miterlimit="10" cx="44.25" cy="42.691" r="24.618"/>
<g>
	
		<polyline fill="none" stroke="#BE1E2D" stroke-width="4" stroke-linecap="round" stroke-linejoin="round" stroke-miterlimit="10" points="
		56.018,55.602 44.248,45.837 44.274,31.478 	"/>
</g>
</svg>
