<?xml version="1.0" encoding="utf-8"?>
<!-- Generator: Adobe Illustrator 17.0.0, SVG Export Plug-In . SVG Version: 6.00 Build 0)  -->
<!DOCTYPE svg PUBLIC "-//W3C//DTD SVG 1.1//EN" "http://www.w3.org/Graphics/SVG/1.1/DTD/svg11.dtd">
<svg version="1.1" id="Layer_1" xmlns="http://www.w3.org/2000/svg" xmlns:xlink="http://www.w3.org/1999/xlink" x="0px" y="0px"
	 width="212.598px" height="85.039px" viewBox="0 0 212.598 85.039" enable-background="new 0 0 212.598 85.039"
	 xml:space="preserve">
<rect x="0" y="0" fill="none" stroke="#BE1E2D" stroke-miterlimit="10" width="85.039" height="85.039"/>
<g>
	<path fill="#BE1E2D" d="M105.043,32.483h1.2h7.109c0.04,0.04,0.085,0.06,0.136,0.06c0.049,0,0.095,0,0.135,0s0.085,0,0.135,0
		s0.095,0,0.135,0c0.641,0.021,1.25,0.105,1.83,0.255c0.58,0.15,1.141,0.365,1.681,0.646c0.54,0.26,0.944,0.655,1.215,1.185
		c0.27,0.53,0.404,1.195,0.404,1.995v0.09v0.09v0.12v0.091c0,0.6-0.109,1.165-0.329,1.694c-0.221,0.53-0.54,1.035-0.961,1.515
		c-0.42,0.479-0.899,0.865-1.439,1.154c-0.54,0.29-1.13,0.495-1.771,0.615c0.7,0.12,1.36,0.29,1.98,0.51
		c0.62,0.221,1.18,0.49,1.68,0.811c0.521,0.32,0.905,0.785,1.155,1.395c0.25,0.61,0.375,1.355,0.375,2.235
		c0,1.061-0.176,1.976-0.525,2.745s-0.875,1.385-1.574,1.845c-0.681,0.48-1.405,0.845-2.176,1.095
		c-0.77,0.251-1.574,0.386-2.415,0.405h-1.199c-0.021,0-0.045,0-0.075,0s-0.056,0-0.075,0c-0.04,0-0.07,0-0.09,0
		c-0.021,0-0.05,0-0.09,0c-0.061,0-0.115,0-0.165,0c-0.051,0-0.096,0-0.135,0h-6.15V32.483z M109.543,41.452
		c0.88,0.04,1.66-0.024,2.34-0.195c0.68-0.169,1.26-0.424,1.74-0.765c0.46-0.34,0.825-0.76,1.095-1.259
		c0.271-0.5,0.436-1.08,0.495-1.74v-0.12l0.03-0.09v-0.06v-0.091c0-0.56-0.12-1.06-0.36-1.5c-0.24-0.439-0.6-0.799-1.08-1.08
		c-0.479-0.279-0.995-0.489-1.545-0.63c-0.55-0.14-1.135-0.21-1.755-0.21l-1.65-0.06v7.799H109.543z M110.503,51.862
		c0.7,0.04,1.324-0.025,1.875-0.195c0.55-0.17,1.045-0.425,1.485-0.765c0.42-0.34,0.77-0.694,1.05-1.065
		c0.279-0.369,0.489-0.765,0.63-1.185c0-0.04,0.005-0.08,0.015-0.12s0.025-0.09,0.045-0.15c0-0.039,0.005-0.079,0.016-0.119
		c0.01-0.04,0.015-0.08,0.015-0.12c0.02-0.08,0.035-0.16,0.045-0.24s0.016-0.16,0.016-0.24c0-1-0.155-1.835-0.466-2.505
		c-0.31-0.67-0.785-1.165-1.425-1.485c-0.54-0.279-1.22-0.499-2.04-0.659s-1.79-0.25-2.91-0.271v9.12H110.503z"/>
	<path fill="#BE1E2D" d="M123.463,48.473c0.14-0.4,0.35-0.771,0.63-1.11c0.279-0.34,0.664-0.646,1.154-0.915
		c0.49-0.271,1.085-0.495,1.785-0.675l3.78-0.78c0.22-0.02,0.415-0.075,0.585-0.165s0.305-0.205,0.405-0.345
		c0.1-0.16,0.175-0.33,0.225-0.51c0.05-0.181,0.075-0.37,0.075-0.57c0-0.04,0-0.075,0-0.105c0-0.029,0-0.064,0-0.104
		c-0.021-0.04-0.03-0.08-0.03-0.12s0-0.08,0-0.12c-0.02-0.08-0.035-0.16-0.045-0.24c-0.01-0.079-0.035-0.159-0.075-0.239
		c-0.1-0.32-0.25-0.631-0.449-0.931c-0.2-0.3-0.44-0.58-0.721-0.84c-0.22-0.22-0.465-0.399-0.734-0.54
		c-0.271-0.14-0.565-0.229-0.886-0.27c-0.14,0.02-0.27,0.05-0.39,0.09s-0.24,0.08-0.36,0.12c-0.18,0.08-0.359,0.17-0.54,0.27
		c-0.18,0.101-0.359,0.221-0.539,0.36c-0.101,0.08-0.2,0.17-0.301,0.27c-0.1,0.101-0.2,0.2-0.3,0.3
		c-0.101,0.101-0.205,0.211-0.314,0.33c-0.11,0.12-0.216,0.24-0.315,0.36l-1.2-0.03l-0.45-0.029v-1.65
		c0.04,0,0.091-0.015,0.15-0.045s0.12-0.055,0.18-0.075c0.061-0.04,0.12-0.079,0.181-0.12c0.06-0.04,0.12-0.079,0.18-0.12
		c0.28-0.159,0.574-0.305,0.885-0.435c0.31-0.13,0.646-0.264,1.005-0.405c0.36-0.12,0.735-0.215,1.125-0.285
		c0.391-0.069,0.805-0.104,1.245-0.104l1.2-0.03c0.88,0.021,1.65,0.125,2.31,0.315c0.66,0.19,1.2,0.474,1.62,0.854
		s0.735,0.891,0.945,1.53c0.21,0.641,0.315,1.4,0.315,2.28v7.5c0,0.2,0.015,0.354,0.045,0.465c0.029,0.11,0.085,0.194,0.165,0.255
		c0.02,0,0.034,0.005,0.045,0.015c0.01,0.011,0.024,0.016,0.045,0.016c0,0.02,0.005,0.035,0.015,0.045s0.025,0.015,0.045,0.015
		s0.04-0.01,0.061-0.03h0.029l1.2-0.029v0.659c-0.101,0.12-0.205,0.216-0.314,0.285c-0.11,0.07-0.226,0.125-0.346,0.165
		c-0.06,0.021-0.12,0.03-0.18,0.03s-0.12,0.01-0.18,0.03c-0.08,0.02-0.15,0.034-0.21,0.045c-0.061,0.01-0.12,0.015-0.181,0.015
		l-0.149,0.03h-1.2h-0.15c-0.3,0-0.59-0.035-0.87-0.105c-0.28-0.069-0.54-0.175-0.779-0.314c-0.12-0.08-0.23-0.165-0.33-0.255
		c-0.101-0.09-0.19-0.185-0.271-0.285c-0.3,0.22-0.595,0.41-0.885,0.57s-0.575,0.279-0.854,0.359
		c-0.341,0.12-0.676,0.21-1.006,0.271c-0.329,0.06-0.645,0.09-0.944,0.09h-1.2c-0.6,0-1.146-0.086-1.635-0.255
		c-0.49-0.171-0.936-0.425-1.335-0.766c-0.381-0.359-0.671-0.765-0.87-1.215c-0.2-0.45-0.3-0.935-0.3-1.455v-0.06
		C123.253,49.293,123.322,48.872,123.463,48.473z M132.013,46.103c-0.801,0.14-1.495,0.29-2.085,0.449
		c-0.591,0.161-1.085,0.351-1.485,0.57c-0.479,0.261-0.845,0.58-1.095,0.96s-0.375,0.83-0.375,1.351c0,0.08,0,0.154,0,0.225
		s0.01,0.135,0.03,0.195c0,0.06,0.004,0.125,0.015,0.194c0.01,0.07,0.024,0.146,0.045,0.226l0.03,0.149l0.09,0.15
		c0.1,0.2,0.225,0.38,0.375,0.54s0.345,0.32,0.585,0.479c0.16,0.101,0.325,0.181,0.495,0.24c0.17,0.061,0.354,0.11,0.555,0.15
		c0.04,0,0.07,0,0.09,0s0.05-0.01,0.09-0.03c0.021,0,0.046-0.005,0.075-0.015c0.03-0.01,0.055-0.016,0.075-0.016
		c0.16-0.039,0.319-0.095,0.48-0.165c0.159-0.069,0.319-0.154,0.479-0.255c0.12-0.079,0.245-0.169,0.375-0.27
		c0.13-0.1,0.265-0.21,0.405-0.33c0.06-0.061,0.12-0.12,0.18-0.18c0.061-0.061,0.13-0.13,0.21-0.21c0.061-0.08,0.12-0.16,0.181-0.24
		c0.06-0.08,0.119-0.16,0.18-0.24v-0.06V46.103z"/>
	<path fill="#BE1E2D" d="M139.827,43.177c0.33-0.909,0.825-1.704,1.485-2.385c0.66-0.699,1.495-1.225,2.505-1.575
		c1.01-0.35,2.194-0.524,3.555-0.524l1.2-0.03c0.36,0.021,0.694,0.045,1.005,0.075c0.31,0.03,0.595,0.075,0.855,0.135
		c0.239,0.061,0.479,0.12,0.72,0.18c0.24,0.061,0.48,0.141,0.72,0.24c0.04,0.021,0.085,0.041,0.136,0.061
		c0.049,0.02,0.104,0.04,0.164,0.06c0.04,0.04,0.085,0.07,0.136,0.09c0.05,0.021,0.095,0.041,0.135,0.061
		c0.1,0.06,0.199,0.115,0.3,0.165c0.1,0.05,0.21,0.095,0.33,0.135l-0.479,2.07h-1.2h-0.48c-0.24-0.32-0.495-0.61-0.765-0.87
		c-0.271-0.26-0.565-0.48-0.885-0.66c-0.261-0.14-0.53-0.255-0.811-0.345c-0.28-0.091-0.59-0.146-0.93-0.165
		c-0.62,0.08-1.175,0.274-1.665,0.585c-0.49,0.31-0.915,0.745-1.275,1.305c-0.4,0.62-0.7,1.285-0.899,1.995
		c-0.2,0.71-0.3,1.445-0.3,2.205c0,0.78,0.104,1.525,0.314,2.234c0.21,0.711,0.525,1.386,0.945,2.025c0.38,0.561,0.845,1,1.395,1.32
		s1.195,0.51,1.936,0.569c0.319-0.039,0.619-0.09,0.899-0.149c0.28-0.061,0.54-0.15,0.78-0.271c0.319-0.159,0.63-0.35,0.93-0.569
		c0.301-0.22,0.601-0.46,0.9-0.721l0.06-0.12l0.091-0.06h1.199l0.24,0.18l-0.24,1.44c-0.32,0.28-0.67,0.521-1.05,0.72
		c-0.38,0.2-0.771,0.351-1.17,0.45c-0.42,0.1-0.84,0.185-1.26,0.255s-0.84,0.105-1.26,0.105h-1.2h-0.09h-0.091
		c-0.92-0.021-1.805-0.176-2.654-0.466c-0.851-0.289-1.655-0.725-2.415-1.305c-0.78-0.58-1.36-1.295-1.74-2.145
		c-0.38-0.851-0.57-1.825-0.57-2.926v-0.09v-0.09v-0.06v-0.09v-0.03C139.332,45.093,139.497,44.088,139.827,43.177z"/>
	<path fill="#BE1E2D" d="M156.612,29.873h1.2c0.06,0.04,0.135,0.075,0.225,0.105c0.09,0.029,0.175,0.055,0.255,0.074
		c0.02,0,0.04,0,0.061,0c0.02,0,0.039,0,0.06,0c0,0.021,0.01,0.03,0.03,0.03c0.02,0,0.04,0,0.06,0h0.03h0.03
		c0.12-0.02,0.234-0.045,0.345-0.075c0.109-0.029,0.205-0.055,0.285-0.074l1.2-0.03v14.28c0.079-0.021,0.159-0.065,0.239-0.136
		c0.08-0.069,0.16-0.145,0.24-0.225c0.34-0.3,0.7-0.63,1.08-0.99c0.38-0.359,0.77-0.75,1.17-1.17c0.04-0.04,0.08-0.085,0.12-0.135
		s0.08-0.105,0.12-0.165c0.04-0.04,0.085-0.085,0.135-0.135s0.105-0.105,0.165-0.165c0.12-0.12,0.235-0.24,0.345-0.36
		c0.11-0.12,0.215-0.24,0.315-0.36c0.1-0.1,0.205-0.21,0.314-0.329c0.11-0.12,0.215-0.24,0.315-0.36c0.22-0.22,0.42-0.429,0.6-0.629
		c0.181-0.2,0.351-0.391,0.511-0.57l1.199-0.03c0.061,0.041,0.12,0.07,0.181,0.091c0.06,0.02,0.13,0.04,0.21,0.06
		c0.02,0,0.034,0,0.045,0c0.01,0,0.024,0,0.045,0c0.02,0.021,0.035,0.03,0.045,0.03s0.025,0,0.045,0
		c0.1-0.02,0.205-0.045,0.315-0.075c0.109-0.03,0.204-0.055,0.285-0.075l1.199-0.03v0.21l-6.39,5.91l6.84,8.01v0.48h-1.2
		c-0.06,0-0.12,0-0.18,0s-0.12-0.01-0.18-0.03c-0.021,0-0.045,0-0.075,0s-0.056-0.01-0.075-0.029c-0.04,0-0.07-0.005-0.09-0.016
		c-0.021-0.01-0.05-0.015-0.09-0.015c-0.021,0-0.051,0-0.09,0c-0.021,0.02-0.041,0.03-0.061,0.03s-0.04,0-0.06,0
		c-0.12,0.02-0.24,0.035-0.36,0.045s-0.24,0.015-0.36,0.015h-1.199c-0.16-0.14-0.315-0.29-0.465-0.45
		c-0.15-0.159-0.306-0.33-0.466-0.51c-0.14-0.18-0.284-0.36-0.435-0.54s-0.306-0.36-0.465-0.54c-0.561-0.66-1.085-1.29-1.575-1.89
		c-0.49-0.601-0.955-1.18-1.396-1.74c-0.16-0.22-0.314-0.41-0.465-0.57c-0.149-0.159-0.285-0.31-0.404-0.45v6.69h-1.2
		c-0.08,0-0.165-0.005-0.255-0.015s-0.186-0.025-0.285-0.045h-0.03h-0.03c-0.02,0-0.04,0-0.06,0c-0.12,0.02-0.24,0.035-0.36,0.045
		s-0.239,0.015-0.359,0.015h-1.2V29.873z"/>
</g>
<g>
	<path fill="none" stroke="#BE1E2D" stroke-width="4" stroke-linecap="round" stroke-linejoin="round" stroke-miterlimit="10" d="
		M28.795,52.389h19.949c6.535,0,11.833-5.298,11.833-11.833v0c0-6.535-5.298-11.833-11.833-11.833H28.795"/>
	
		<polyline fill="none" stroke="#BE1E2D" stroke-width="4" stroke-linecap="round" stroke-linejoin="round" stroke-miterlimit="10" points="
		36.329,44.855 28.795,52.389 36.329,59.922 	"/>
</g>
</svg>
