<?xml version="1.0" encoding="utf-8"?>
<!-- Generator: Adobe Illustrator 17.0.0, SVG Export Plug-In . SVG Version: 6.00 Build 0)  -->
<!DOCTYPE svg PUBLIC "-//W3C//DTD SVG 1.1//EN" "http://www.w3.org/Graphics/SVG/1.1/DTD/svg11.dtd">
<svg version="1.1" id="Layer_1" xmlns="http://www.w3.org/2000/svg" xmlns:xlink="http://www.w3.org/1999/xlink" x="0px" y="0px"
	 width="212.598px" height="85.039px" viewBox="0 0 212.598 85.039" enable-background="new 0 0 212.598 85.039"
	 xml:space="preserve">
<rect x="0" y="0" fill="none" stroke="#776155" stroke-miterlimit="10" width="85.039" height="85.039"/>
<g>
	<path fill="#776155" d="M105.042,32.483h1.2h7.11c0.04,0.04,0.085,0.06,0.135,0.06s0.095,0,0.135,0s0.085,0,0.136,0
		c0.049,0,0.095,0,0.135,0c0.64,0.021,1.25,0.105,1.83,0.255c0.58,0.15,1.14,0.365,1.68,0.646c0.54,0.26,0.945,0.655,1.215,1.185
		c0.271,0.53,0.405,1.195,0.405,1.995v0.09v0.09v0.12v0.091c0,0.6-0.11,1.165-0.33,1.694c-0.221,0.53-0.54,1.035-0.96,1.516
		c-0.42,0.479-0.9,0.865-1.44,1.154c-0.54,0.29-1.13,0.495-1.77,0.615c0.7,0.12,1.359,0.29,1.979,0.51
		c0.62,0.221,1.181,0.49,1.681,0.811c0.52,0.32,0.904,0.785,1.155,1.395c0.249,0.61,0.375,1.355,0.375,2.235
		c0,1.061-0.176,1.976-0.525,2.745c-0.351,0.77-0.875,1.385-1.575,1.845c-0.68,0.48-1.405,0.845-2.175,1.095
		c-0.771,0.251-1.575,0.386-2.415,0.405h-1.2c-0.02,0-0.045,0-0.075,0c-0.029,0-0.055,0-0.074,0c-0.041,0-0.07,0-0.091,0
		c-0.02,0-0.05,0-0.09,0c-0.06,0-0.115,0-0.165,0s-0.095,0-0.135,0h-6.15V32.483z M109.542,41.452c0.88,0.04,1.66-0.024,2.341-0.195
		c0.68-0.169,1.26-0.424,1.739-0.765c0.46-0.34,0.825-0.76,1.096-1.26c0.27-0.5,0.435-1.08,0.495-1.74v-0.12l0.029-0.09v-0.06
		v-0.091c0-0.56-0.12-1.06-0.359-1.5c-0.24-0.439-0.601-0.799-1.08-1.08c-0.48-0.279-0.995-0.489-1.545-0.63
		c-0.551-0.14-1.136-0.21-1.756-0.21l-1.649-0.06v7.8H109.542z M110.502,51.862c0.7,0.04,1.325-0.025,1.875-0.195
		c0.551-0.17,1.045-0.425,1.485-0.765c0.42-0.34,0.77-0.694,1.05-1.065c0.28-0.369,0.49-0.765,0.63-1.185
		c0-0.04,0.005-0.08,0.016-0.12c0.01-0.04,0.024-0.09,0.045-0.15c0-0.039,0.005-0.079,0.015-0.119s0.016-0.08,0.016-0.12
		c0.02-0.08,0.034-0.16,0.045-0.24c0.01-0.08,0.015-0.16,0.015-0.24c0-1-0.155-1.835-0.465-2.505
		c-0.311-0.67-0.785-1.165-1.425-1.485c-0.54-0.279-1.221-0.499-2.04-0.659c-0.82-0.16-1.79-0.25-2.91-0.271v9.12H110.502z"/>
	<path fill="#776155" d="M123.462,48.473c0.14-0.4,0.35-0.771,0.63-1.11s0.665-0.646,1.155-0.915
		c0.49-0.271,1.085-0.495,1.785-0.675l3.78-0.78c0.22-0.02,0.414-0.075,0.585-0.165c0.169-0.09,0.305-0.205,0.404-0.345
		c0.101-0.16,0.175-0.33,0.226-0.51c0.05-0.181,0.074-0.37,0.074-0.57c0-0.04,0-0.075,0-0.105c0-0.029,0-0.064,0-0.104
		c-0.02-0.04-0.029-0.08-0.029-0.12s0-0.08,0-0.12c-0.021-0.08-0.035-0.16-0.045-0.24c-0.011-0.079-0.035-0.159-0.075-0.239
		c-0.101-0.32-0.25-0.631-0.45-0.931s-0.44-0.58-0.72-0.84c-0.221-0.22-0.465-0.399-0.735-0.54c-0.27-0.14-0.565-0.229-0.885-0.27
		c-0.141,0.02-0.271,0.05-0.39,0.09c-0.12,0.04-0.24,0.08-0.36,0.12c-0.18,0.08-0.36,0.17-0.54,0.27
		c-0.18,0.101-0.36,0.221-0.54,0.36c-0.101,0.08-0.2,0.17-0.3,0.27c-0.101,0.101-0.2,0.2-0.3,0.3
		c-0.101,0.101-0.206,0.211-0.315,0.33c-0.11,0.12-0.215,0.24-0.315,0.36l-1.199-0.03l-0.45-0.029v-1.65
		c0.04,0,0.09-0.015,0.149-0.045c0.061-0.03,0.12-0.055,0.181-0.075c0.06-0.04,0.12-0.079,0.18-0.12
		c0.061-0.04,0.12-0.079,0.18-0.12c0.28-0.159,0.575-0.305,0.886-0.435c0.31-0.13,0.645-0.265,1.005-0.405
		c0.359-0.12,0.734-0.215,1.125-0.285c0.39-0.069,0.805-0.104,1.245-0.104l1.199-0.03c0.88,0.021,1.65,0.125,2.311,0.315
		s1.2,0.475,1.62,0.854s0.734,0.891,0.944,1.53c0.211,0.641,0.315,1.4,0.315,2.28v7.5c0,0.2,0.015,0.354,0.045,0.465
		s0.085,0.194,0.165,0.255c0.02,0,0.035,0.005,0.045,0.015c0.01,0.011,0.025,0.016,0.045,0.016c0,0.02,0.005,0.035,0.016,0.045
		c0.01,0.01,0.024,0.015,0.045,0.015c0.02,0,0.039-0.01,0.06-0.03h0.03l1.2-0.029v0.659c-0.101,0.12-0.206,0.216-0.315,0.285
		c-0.11,0.07-0.225,0.125-0.345,0.165c-0.061,0.021-0.12,0.03-0.181,0.03c-0.06,0-0.119,0.01-0.18,0.03
		c-0.08,0.02-0.149,0.034-0.21,0.045c-0.06,0.01-0.12,0.015-0.18,0.015l-0.15,0.03h-1.2h-0.149c-0.3,0-0.591-0.035-0.87-0.105
		c-0.28-0.069-0.54-0.175-0.78-0.314c-0.12-0.08-0.229-0.165-0.33-0.255c-0.1-0.09-0.19-0.185-0.27-0.285
		c-0.3,0.22-0.596,0.41-0.885,0.57c-0.291,0.16-0.575,0.279-0.855,0.359c-0.34,0.12-0.675,0.21-1.005,0.271
		c-0.33,0.06-0.646,0.09-0.945,0.09h-1.2c-0.6,0-1.145-0.086-1.635-0.255c-0.49-0.171-0.935-0.425-1.335-0.766
		c-0.38-0.359-0.67-0.765-0.87-1.215s-0.3-0.935-0.3-1.455v-0.06C123.252,49.293,123.322,48.872,123.462,48.473z M132.011,46.103
		c-0.8,0.14-1.495,0.29-2.085,0.449c-0.59,0.161-1.085,0.351-1.484,0.57c-0.48,0.261-0.846,0.58-1.096,0.96s-0.375,0.83-0.375,1.351
		c0,0.08,0,0.154,0,0.225s0.01,0.135,0.03,0.195c0,0.06,0.005,0.125,0.015,0.194c0.011,0.07,0.025,0.146,0.046,0.226l0.029,0.149
		l0.09,0.15c0.101,0.2,0.226,0.38,0.375,0.54c0.15,0.16,0.346,0.32,0.585,0.479c0.16,0.101,0.325,0.181,0.495,0.24
		c0.17,0.061,0.355,0.11,0.556,0.15c0.039,0,0.069,0,0.09,0c0.02,0,0.05-0.01,0.09-0.03c0.02,0,0.045-0.005,0.075-0.015
		c0.029-0.01,0.055-0.016,0.075-0.016c0.159-0.039,0.319-0.095,0.479-0.165c0.16-0.069,0.319-0.154,0.48-0.255
		c0.119-0.079,0.244-0.169,0.375-0.27c0.13-0.1,0.265-0.21,0.404-0.33c0.061-0.061,0.12-0.12,0.181-0.18
		c0.06-0.061,0.13-0.13,0.21-0.21c0.06-0.08,0.12-0.16,0.18-0.24s0.12-0.16,0.18-0.24v-0.06V46.103z"/>
	<path fill="#776155" d="M139.827,43.177c0.33-0.909,0.825-1.704,1.484-2.385c0.66-0.699,1.495-1.225,2.505-1.575
		c1.01-0.35,2.195-0.524,3.556-0.524l1.2-0.03c0.359,0.021,0.694,0.045,1.005,0.075c0.31,0.03,0.595,0.075,0.854,0.135
		c0.24,0.061,0.48,0.12,0.721,0.18c0.239,0.061,0.479,0.141,0.72,0.24c0.04,0.021,0.085,0.041,0.135,0.061s0.105,0.04,0.165,0.06
		c0.04,0.04,0.085,0.07,0.135,0.09c0.05,0.021,0.095,0.041,0.135,0.061c0.101,0.06,0.2,0.115,0.301,0.165
		c0.1,0.05,0.21,0.095,0.33,0.135l-0.48,2.07h-1.2h-0.479c-0.24-0.32-0.495-0.61-0.766-0.87c-0.27-0.26-0.564-0.48-0.885-0.66
		c-0.26-0.14-0.53-0.255-0.81-0.345c-0.28-0.091-0.591-0.146-0.931-0.165c-0.62,0.08-1.175,0.274-1.665,0.585
		c-0.49,0.31-0.915,0.745-1.274,1.305c-0.4,0.62-0.7,1.285-0.9,1.995s-0.3,1.445-0.3,2.205c0,0.78,0.105,1.525,0.315,2.234
		c0.21,0.711,0.524,1.386,0.944,2.025c0.38,0.561,0.845,1,1.396,1.32c0.55,0.32,1.194,0.51,1.935,0.569
		c0.32-0.039,0.62-0.09,0.9-0.149c0.279-0.061,0.54-0.15,0.78-0.271c0.319-0.159,0.63-0.35,0.93-0.569s0.6-0.46,0.899-0.721
		l0.061-0.12l0.09-0.06h1.2l0.24,0.18l-0.24,1.44c-0.32,0.28-0.671,0.521-1.05,0.72c-0.381,0.2-0.771,0.351-1.17,0.45
		c-0.421,0.1-0.841,0.185-1.261,0.255s-0.84,0.105-1.26,0.105h-1.2h-0.09h-0.09c-0.92-0.021-1.806-0.176-2.655-0.466
		c-0.85-0.289-1.655-0.725-2.415-1.305c-0.779-0.58-1.36-1.295-1.739-2.145c-0.381-0.851-0.57-1.825-0.57-2.926v-0.09v-0.09v-0.06
		v-0.09v-0.03C139.332,45.093,139.497,44.088,139.827,43.177z"/>
	<path fill="#776155" d="M156.611,29.872h1.2c0.061,0.04,0.135,0.075,0.226,0.105c0.09,0.029,0.175,0.055,0.255,0.074
		c0.02,0,0.039,0,0.06,0c0.02,0,0.04,0,0.061,0c0,0.021,0.01,0.03,0.029,0.03s0.04,0,0.061,0h0.029h0.03
		c0.12-0.02,0.235-0.045,0.345-0.075c0.11-0.029,0.205-0.055,0.285-0.074l1.2-0.03v14.28c0.08-0.021,0.16-0.065,0.24-0.136
		c0.079-0.069,0.16-0.145,0.24-0.225c0.34-0.3,0.699-0.63,1.08-0.99c0.379-0.359,0.77-0.75,1.17-1.17
		c0.039-0.04,0.079-0.085,0.119-0.135s0.08-0.105,0.12-0.165c0.04-0.04,0.085-0.085,0.136-0.135c0.049-0.05,0.104-0.105,0.165-0.165
		c0.119-0.12,0.234-0.24,0.345-0.36c0.109-0.12,0.215-0.24,0.314-0.36c0.101-0.1,0.205-0.21,0.315-0.329
		c0.109-0.12,0.215-0.24,0.315-0.36c0.22-0.22,0.42-0.43,0.6-0.63s0.35-0.391,0.51-0.57l1.2-0.03c0.06,0.041,0.12,0.07,0.18,0.091
		c0.061,0.02,0.13,0.04,0.21,0.06c0.02,0,0.035,0,0.045,0s0.025,0,0.045,0c0.021,0.021,0.035,0.03,0.046,0.03
		c0.01,0,0.024,0,0.045,0c0.1-0.02,0.204-0.045,0.314-0.075s0.205-0.055,0.285-0.075l1.2-0.03v0.21l-6.391,5.91l6.841,8.01v0.48
		h-1.2c-0.061,0-0.12,0-0.18,0c-0.061,0-0.12-0.01-0.181-0.03c-0.02,0-0.045,0-0.075,0c-0.029,0-0.055-0.01-0.074-0.029
		c-0.041,0-0.07-0.005-0.091-0.016c-0.02-0.01-0.05-0.015-0.09-0.015c-0.02,0-0.05,0-0.09,0c-0.021,0.02-0.04,0.03-0.06,0.03
		c-0.021,0-0.041,0-0.061,0c-0.12,0.02-0.24,0.035-0.359,0.045c-0.12,0.01-0.24,0.015-0.36,0.015h-1.2
		c-0.16-0.14-0.314-0.29-0.465-0.45c-0.15-0.159-0.305-0.33-0.465-0.51c-0.141-0.18-0.285-0.36-0.436-0.54
		c-0.149-0.18-0.305-0.36-0.465-0.54c-0.56-0.66-1.085-1.29-1.575-1.89c-0.49-0.601-0.955-1.18-1.395-1.74
		c-0.16-0.22-0.315-0.41-0.465-0.57c-0.15-0.159-0.285-0.31-0.405-0.45v6.69h-1.2c-0.08,0-0.165-0.005-0.255-0.015
		s-0.185-0.025-0.285-0.045h-0.029h-0.03c-0.021,0-0.04,0-0.061,0c-0.119,0.02-0.239,0.035-0.359,0.045s-0.24,0.015-0.36,0.015h-1.2
		V29.872z"/>
</g>
<g>
	<path fill="none" stroke="#776155" stroke-width="4" stroke-linecap="round" stroke-linejoin="round" stroke-miterlimit="10" d="
		M28.795,52.389h19.949c6.535,0,11.833-5.298,11.833-11.833v0c0-6.535-5.298-11.833-11.833-11.833H28.795"/>
	
		<polyline fill="none" stroke="#776155" stroke-width="4" stroke-linecap="round" stroke-linejoin="round" stroke-miterlimit="10" points="
		36.329,44.855 28.795,52.389 36.329,59.922 	"/>
</g>
</svg>
