<?xml version="1.0" encoding="utf-8"?>
<!-- Generator: Adobe Illustrator 17.0.0, SVG Export Plug-In . SVG Version: 6.00 Build 0)  -->
<!DOCTYPE svg PUBLIC "-//W3C//DTD SVG 1.1//EN" "http://www.w3.org/Graphics/SVG/1.1/DTD/svg11.dtd">
<svg version="1.1" id="Layer_1" xmlns="http://www.w3.org/2000/svg" xmlns:xlink="http://www.w3.org/1999/xlink" x="0px" y="0px"
	 width="212.598px" height="85.039px" viewBox="0 0 212.598 85.039" enable-background="new 0 0 212.598 85.039"
	 xml:space="preserve">
<rect x="0" y="0" fill="none" stroke="#776155" stroke-miterlimit="10" width="85.039" height="85.039"/>
<g>
	<path fill="#776155" d="M108.879,43.071c0.896-0.958,1.458-1.438,1.688-1.438c0.25,0,0.802,0.334,1.656,1
		c0.854,0.646,1.281,1.073,1.281,1.281c0,0.188-0.094,0.323-0.281,0.406c-0.333,0.167-0.511,0.303-0.531,0.406
		c-0.583,2.521-1.458,4.553-2.625,6.094c0,0.229,0.708,0.531,2.125,0.906c1.438,0.396,3.771,0.594,7,0.594
		c5.458,0,9.698-0.292,12.719-0.875l-0.031,0.563c-0.542,0.229-0.865,1.114-0.969,2.656c-0.063,0.813-0.354,1.219-0.875,1.219
		c-3.021,0-5.667-0.073-7.938-0.219c-0.021,0-0.042,0-0.063,0c-4.396-0.229-7.375-0.719-8.938-1.469s-2.719-1.688-3.469-2.813
		c-1.729,2.25-4.011,3.969-6.844,5.156l-0.281-0.375c1.563-1.438,2.927-3.344,4.094-5.719c1.167-2.354,1.938-4.541,2.313-6.563
		h-1.25l-0.313,0.75c-0.229,0.542-0.865,0.813-1.906,0.813c-1.458,0-2.188-0.25-2.188-0.75c0-0.063,0.01-0.135,0.031-0.219
		c0.833-1.604,1.281-2.479,1.344-2.625l2.094-5.625h-0.594c-1.354,0-2.396,0.063-3.125,0.188l-0.5-1.25
		c0.958,0.188,2.229,0.281,3.813,0.281h0.313c1.042-0.916,1.646-1.375,1.813-1.375c0.25,0,0.802,0.313,1.656,0.938
		c0.854,0.625,1.281,1.053,1.281,1.281c0,0.209-0.125,0.365-0.375,0.469c-0.583,0.25-0.886,0.406-0.906,0.469l-2.125,5.813
		L108.879,43.071z M104.754,27.509l0.25-0.375c3.792,0.375,5.688,1.709,5.688,4c0,1.459-0.781,2.187-2.344,2.187
		c-1.083,0-1.656-0.583-1.719-1.75C106.524,29.593,105.899,28.238,104.754,27.509z M114.816,34.04c0-1.313-0.125-2.771-0.375-4.375
		c1.75,0.417,3.177,0.844,4.281,1.281c3.396-0.896,6.083-2.156,8.063-3.781c2.771,1.938,4.156,3.053,4.156,3.344
		c0,0.209-0.115,0.313-0.344,0.313c-0.021,0-0.042,0-0.063,0c-0.729-0.083-1.104-0.125-1.125-0.125c-2.729,0.667-5.99,1-9.781,1
		c-0.479,0-0.865-0.01-1.156-0.031l-0.063,3.437h6.844c1.292-1.021,2.042-1.531,2.25-1.531c0.229,0,0.813,0.354,1.75,1.063
		c0.938,0.688,1.406,1.156,1.406,1.406s-0.24,0.448-0.719,0.594c-0.396,0.104-0.604,0.198-0.625,0.281
		c-0.938,3.188-2.188,5.761-3.75,7.719c1.604,1.271,3.698,1.979,6.281,2.125l-0.125,0.563c-0.917,0.417-1.406,1.344-1.469,2.781
		c-0.021,0.584-0.229,0.875-0.625,0.875c-0.5,0-1.469-0.427-2.906-1.281c-1.417-0.854-2.552-1.781-3.406-2.781
		c-2.458,1.979-5.479,3.344-9.063,4.094l-0.25-0.438c3-1.521,5.542-3.521,7.625-6c-1.354-2.354-2.188-5.229-2.5-8.625h-0.75
		c-0.063,7.313-2.146,12.094-6.25,14.344l-0.281-0.313c1.979-3.416,2.969-8.521,2.969-15.313
		C114.816,34.415,114.816,34.207,114.816,34.04z M119.785,35.915c0.583,2.646,1.656,4.875,3.219,6.688
		c1.292-2.063,2.135-4.291,2.531-6.688H119.785z"/>
	<path fill="#776155" d="M164.091,29.915c1.291-1.104,2.031-1.656,2.219-1.656c0.229,0,0.833,0.334,1.813,1
		c0.979,0.646,1.469,1.094,1.469,1.344c0,0.167-0.063,0.313-0.188,0.438c-0.584,0.459-0.875,0.771-0.875,0.938v16.219
		c0,0.354,0.052,2.667,0.156,6.938c0,0.666-0.99,1-2.969,1c-0.813,0-1.219-0.209-1.219-0.625v-2.313h-17.5v2.25
		c0,0.666-0.969,1-2.906,1c-0.875,0-1.313-0.229-1.313-0.688c0.104-4.271,0.156-7.063,0.156-8.375V34.509
		c0-2.313-0.104-4.281-0.313-5.906c1.271,0.292,2.833,0.719,4.688,1.281L164.091,29.915z M146.997,30.728v21.656h17.5V30.728
		H146.997z M153.904,45.509v1.438c0,0.75-0.938,1.125-2.813,1.125c-0.813,0-1.219-0.229-1.219-0.688v-0.031
		c0.083-2.021,0.125-3.604,0.125-4.75v-3.156c0-1.688-0.094-3.197-0.281-4.531c1.188,0.271,2.708,0.729,4.563,1.375h2.781
		c1.229-1.063,1.938-1.594,2.125-1.594s0.75,0.313,1.688,0.938c0.938,0.646,1.406,1.073,1.406,1.281
		c0,0.146-0.073,0.292-0.219,0.438c-0.542,0.459-0.813,0.709-0.813,0.75v3.844c0,0.209,0.041,1.74,0.125,4.594
		c0,0.709-0.959,1.063-2.875,1.063c-0.771,0-1.156-0.219-1.156-0.656v-1.438H153.904z M157.372,44.728V37.04h-3.469v7.688H157.372z"
		/>
</g>
<g>
	<path fill="none" stroke="#776155" stroke-width="4" stroke-linecap="round" stroke-linejoin="round" stroke-miterlimit="10" d="
		M28.795,52.389h19.949c6.535,0,11.833-5.298,11.833-11.833v0c0-6.535-5.298-11.833-11.833-11.833H28.795"/>
	
		<polyline fill="none" stroke="#776155" stroke-width="4" stroke-linecap="round" stroke-linejoin="round" stroke-miterlimit="10" points="
		36.329,44.855 28.795,52.389 36.329,59.922 	"/>
</g>
</svg>
